<?xml version="1.0" encoding="UTF-8" standalone="no"?>
<!-- Created with Inkscape (http://www.inkscape.org/) -->

<svg
   width="160"
   height="50"
   viewBox="0 0 42.333328 13.229165"
   version="1.1"
   id="svg35817"
   inkscape:version="1.2.2 (732a01da63, 2022-12-09)"
   sodipodi:docname="logoroot.svg"
   xmlns:inkscape="http://www.inkscape.org/namespaces/inkscape"
   xmlns:sodipodi="http://sodipodi.sourceforge.net/DTD/sodipodi-0.dtd"
   xmlns="http://www.w3.org/2000/svg"
   xmlns:svg="http://www.w3.org/2000/svg">
  <sodipodi:namedview
     id="namedview35819"
     pagecolor="#ffffff"
     bordercolor="#000000"
     borderopacity="0.25"
     inkscape:showpageshadow="2"
     inkscape:pageopacity="0.0"
     inkscape:pagecheckerboard="0"
     inkscape:deskcolor="#d1d1d1"
     inkscape:document-units="mm"
     showgrid="false"
     inkscape:zoom="5.9651515"
     inkscape:cx="62.278385"
     inkscape:cy="60.01524"
     inkscape:window-width="1920"
     inkscape:window-height="1017"
     inkscape:window-x="-8"
     inkscape:window-y="-8"
     inkscape:window-maximized="1"
     inkscape:current-layer="g32952" />
  <defs
     id="defs35814">
    <inkscape:path-effect
       effect="bspline"
       id="path-effect19703-0-7-62-2-5-7-3-7-0-96-5-9-4-4-2-3-2-3-8"
       is_visible="true"
       weight="33.333333"
       steps="2"
       helper_size="0"
       apply_no_weight="true"
       apply_with_weight="true"
       only_selected="false"
       lpeversion="0" />
    <inkscape:path-effect
       effect="bspline"
       id="path-effect19703-0-7-62-2-5-7-4-1-6-0-9-4-3-6-0-7-7-0-8-5-2"
       is_visible="true"
       weight="33.333333"
       steps="2"
       helper_size="0"
       apply_no_weight="true"
       apply_with_weight="true"
       only_selected="false"
       lpeversion="0" />
    <filter
       inkscape:collect="always"
       style="color-interpolation-filters:sRGB"
       id="filter24004-8-9-4-1-7-9-1-0-4-6"
       x="-0.020090773"
       width="1.0401815"
       y="-0.027191705"
       height="1.0543834">
      <feGaussianBlur
         inkscape:collect="always"
         stdDeviation="0.066582242"
         id="feGaussianBlur24006-3-6-2-7-8-8-6-5-8-4" />
    </filter>
    <inkscape:path-effect
       effect="bspline"
       id="path-effect19703-0-7-62-2-5-7-2-0-3-0-27-1-5-0-7-6-3-6-5-3"
       is_visible="true"
       weight="33.333333"
       steps="2"
       helper_size="0"
       apply_no_weight="true"
       apply_with_weight="true"
       only_selected="false"
       lpeversion="0" />
    <inkscape:path-effect
       effect="bspline"
       id="path-effect19703-0-7-62-2-5-7-70-7-6-0-8-3-7-9-5-6-0-7-7-1"
       is_visible="true"
       weight="33.333333"
       steps="2"
       helper_size="0"
       apply_no_weight="true"
       apply_with_weight="true"
       only_selected="false"
       lpeversion="0" />
    <inkscape:path-effect
       effect="bspline"
       id="path-effect19703-0-7-62-2-5-7-4-4-9-3-1-7-1-9-1-7-5-8-7-9-2"
       is_visible="true"
       weight="33.333333"
       steps="2"
       helper_size="0"
       apply_no_weight="true"
       apply_with_weight="true"
       only_selected="false"
       lpeversion="0" />
    <filter
       inkscape:collect="always"
       style="color-interpolation-filters:sRGB"
       id="filter24000-0-1-6-7-6-9-2-6-2-8"
       x="-0.01762018"
       width="1.0352404"
       y="-0.030242013"
       height="1.060484">
      <feGaussianBlur
         inkscape:collect="always"
         stdDeviation="0.066582242"
         id="feGaussianBlur24002-7-3-3-1-1-8-7-3-9-9" />
    </filter>
    <inkscape:path-effect
       effect="bspline"
       id="path-effect19703-0-7-62-2-5-7-7-0-7-6-3-5-4-1-8-3-2-5-9-9-9"
       is_visible="true"
       weight="33.333333"
       steps="2"
       helper_size="0"
       apply_no_weight="true"
       apply_with_weight="true"
       only_selected="false"
       lpeversion="0" />
    <inkscape:path-effect
       effect="bspline"
       id="path-effect19703-0-7-62-2-5-7-4-1-8-3-3-7-0-5-6-7-4-3-1-6-8-9"
       is_visible="true"
       weight="33.333333"
       steps="2"
       helper_size="0"
       apply_no_weight="true"
       apply_with_weight="true"
       only_selected="false"
       lpeversion="0" />
    <inkscape:path-effect
       effect="bspline"
       id="path-effect19703-0-7-62-2-5-7-2-5-6-3-41-2-3-5-8-3-0-7-7-6-1"
       is_visible="true"
       weight="33.333333"
       steps="2"
       helper_size="0"
       apply_no_weight="true"
       apply_with_weight="true"
       only_selected="false"
       lpeversion="0" />
    <inkscape:path-effect
       effect="bspline"
       id="path-effect19703-0-7-62-2-5-7-7-5-6-6-4-13-1-4-1-0-6-7-4-1-5-8"
       is_visible="true"
       weight="33.333333"
       steps="2"
       helper_size="0"
       apply_no_weight="true"
       apply_with_weight="true"
       only_selected="false"
       lpeversion="0" />
    <filter
       inkscape:collect="always"
       style="color-interpolation-filters:sRGB"
       id="filter23996-1-9-1-4-7-1-9-3-9-2"
       x="-0.017620192"
       width="1.0352404"
       y="-0.030242021"
       height="1.060484">
      <feGaussianBlur
         inkscape:collect="always"
         stdDeviation="0.066582242"
         id="feGaussianBlur23998-3-7-3-6-3-1-7-6-3-8" />
    </filter>
    <inkscape:path-effect
       effect="bspline"
       id="path-effect19703-0-7-62-2-5-7-4-1-1-6-5-4-0-0-7-9-1-0-5-5-2-2-4"
       is_visible="true"
       weight="33.333333"
       steps="2"
       helper_size="0"
       apply_no_weight="true"
       apply_with_weight="true"
       only_selected="false"
       lpeversion="0" />
    <inkscape:path-effect
       effect="bspline"
       id="path-effect19703-0-7-62-2-5-7-4-17-1-4-9-1-8-6-0-7-4-9-2-5-5-6"
       is_visible="true"
       weight="33.333333"
       steps="2"
       helper_size="0"
       apply_no_weight="true"
       apply_with_weight="true"
       only_selected="false"
       lpeversion="0" />
    <inkscape:path-effect
       effect="bspline"
       id="path-effect19703-0-7-62-2-5-7-4-5-7-7-6-0-1-8-8-0-0-3-5-6"
       is_visible="true"
       weight="33.333333"
       steps="2"
       helper_size="0"
       apply_no_weight="true"
       apply_with_weight="true"
       only_selected="false"
       lpeversion="0" />
    <filter
       inkscape:collect="always"
       style="color-interpolation-filters:sRGB"
       id="filter23992-5-3-6-6-0-6-2-8-3-3"
       x="-0.020090773"
       width="1.0401815"
       y="-0.027191706"
       height="1.0543834">
      <feGaussianBlur
         inkscape:collect="always"
         stdDeviation="0.066582242"
         id="feGaussianBlur23994-2-3-6-5-3-3-4-8-0-0" />
    </filter>
    <inkscape:path-effect
       effect="bspline"
       id="path-effect19703-0-7-62-2-5-7-4-17-17-2-5-5-0-1-7-7-7-7-5-4-6"
       is_visible="true"
       weight="33.333333"
       steps="2"
       helper_size="0"
       apply_no_weight="true"
       apply_with_weight="true"
       only_selected="false"
       lpeversion="0" />
    <inkscape:path-effect
       effect="bspline"
       id="path-effect19703-0-7-62-2-5-7-7-08-5-6-0-8-5-1-7-8-8-4-5-1"
       is_visible="true"
       weight="33.333333"
       steps="2"
       helper_size="0"
       apply_no_weight="true"
       apply_with_weight="true"
       only_selected="false"
       lpeversion="0" />
    <inkscape:path-effect
       effect="bspline"
       id="path-effect19703-0-7-62-2-5-7-4-1-1-4-4-4-5-7-7-1-7-9-8-4-6-4"
       is_visible="true"
       weight="33.333333"
       steps="2"
       helper_size="0"
       apply_no_weight="true"
       apply_with_weight="true"
       only_selected="false"
       lpeversion="0" />
    <inkscape:path-effect
       effect="bspline"
       id="path-effect19703-0-7-62-2-5-7-7-5-9-3-32-6-9-6-9-0-3-0-5-2-3"
       is_visible="true"
       weight="33.333333"
       steps="2"
       helper_size="0"
       apply_no_weight="true"
       apply_with_weight="true"
       only_selected="false"
       lpeversion="0" />
  </defs>
  <g
     inkscape:label="Capa 1"
     inkscape:groupmode="layer"
     id="layer1">
    <g
       id="g32952"
       inkscape:export-filename="..\..\..\..\..\..\apps\octagono\src\assets\images\logoroot.png"
       inkscape:export-xdpi="96"
       inkscape:export-ydpi="96"
       transform="matrix(0.19910881,0,0,0.19910881,102.13846,-116.49139)">
      <g
         id="g40301"
         transform="translate(0,1.4134607)">
        <rect
           style="fill:#4e554f;fill-opacity:1;stroke:none;stroke-width:0.242362;stroke-linecap:butt;stroke-miterlimit:4;stroke-dasharray:none;stroke-dashoffset:0;stroke-opacity:0"
           id="rect20884-1-0-2-9-8-0-4-9-0-85-2-9-6"
           width="6.3869281"
           height="6.3869281"
           x="-643.64722"
           y="-441.49081"
           transform="rotate(-90)" />
        <rect
           style="fill:#1a1d1b;fill-opacity:1;stroke:none;stroke-width:0.242362;stroke-linecap:butt;stroke-miterlimit:4;stroke-dasharray:none;stroke-dashoffset:0;stroke-opacity:0"
           id="rect20884-1-0-2-0-42-3-3-6-6-2-7-0-9-9"
           width="6.3869281"
           height="6.3869281"
           x="-643.64716"
           y="-433.82651"
           transform="rotate(-90)" />
        <rect
           style="fill:#8e9b90;fill-opacity:1;stroke:none;stroke-width:0.242362;stroke-linecap:butt;stroke-miterlimit:4;stroke-dasharray:none;stroke-dashoffset:0;stroke-opacity:0"
           id="rect20884-1-0-2-0-4-26-3-3-8-3-2-2-5-6-8"
           width="6.3869281"
           height="6.3869281"
           x="-643.64722"
           y="-449.15512"
           transform="rotate(-90)" />
        <rect
           style="fill:#c1c8c2;fill-opacity:1;stroke:none;stroke-width:0.242362;stroke-linecap:butt;stroke-miterlimit:4;stroke-dasharray:none;stroke-dashoffset:0;stroke-opacity:0"
           id="rect20884-1-0-2-0-4-2-4-3-3-6-9-2-57-9-1-9"
           width="6.3869281"
           height="6.3869281"
           x="-643.64722"
           y="-456.81943"
           transform="rotate(-90)" />
        <rect
           style="fill:#f4f5f4;fill-opacity:1;stroke:none;stroke-width:0.242362;stroke-linecap:butt;stroke-miterlimit:4;stroke-dasharray:none;stroke-dashoffset:0;stroke-opacity:0"
           id="rect20884-1-0-2-0-4-2-9-1-8-7-3-6-2-9-4-7-3"
           width="6.3869281"
           height="6.3869281"
           x="-643.64716"
           y="-464.48373"
           transform="rotate(-90)" />
      </g>
      <path
         d="m -454.67959,635.61188 q -3.2512,0 -5.4356,-1.2192 -2.1844,-1.27 -3.302,-3.556 -1.0668,-2.286 -1.0668,-5.4356 v -9.906 q 0,-3.302 1.0668,-5.5372 1.1176,-2.286 3.302,-3.5052 2.1844,-1.2192 5.4356,-1.2192 3.1496,0 5.2832,1.016 2.1336,0.9652 3.1496,2.9464 1.0668,1.9812 1.0668,4.9784 v 2.794 h -7.3152 v -2.9972 q 0,-1.3208 -0.254,-2.032 -0.2032,-0.762 -0.7112,-1.0668 -0.4572,-0.3048 -1.2192,-0.3048 -0.762,0 -1.2192,0.4064 -0.4572,0.3556 -0.6604,1.27 -0.2032,0.8636 -0.2032,2.4384 v 11.5316 q 0,2.3876 0.508,3.2512 0.5588,0.8128 1.6256,0.8128 0.8128,0 1.27,-0.3556 0.4572,-0.3556 0.6604,-1.1176 0.2032,-0.762 0.2032,-1.9304 v -3.556 h 7.3152 v 3.2004 q 0,2.9464 -1.0668,5.0292 -1.0668,2.032 -3.2004,3.048 -2.1336,1.016 -5.2324,1.016 z"
         id="path40368"
         style="font-size:192px;line-height:1.25;font-family:'Oswald SemiBold';-inkscape-font-specification:'Oswald SemiBold, ';letter-spacing:0.01px;word-spacing:0px;fill:#4d4d4d;stroke-width:0.264583" />
      <path
         d="m -431.91859,635.40868 q -3.048,0 -4.7752,-0.9144 -1.7272,-0.9652 -2.3876,-2.7432 -0.6604,-1.778 -0.6604,-4.318 v -16.6624 h -2.8956 v -5.0292 h 2.8956 v -8.89 h 7.7724 v 8.89 h 4.2672 v 5.0292 h -4.2672 v 15.9512 q 0,1.3716 0.6604,1.9812 0.7112,0.5588 1.9304,0.5588 0.6096,0 1.1684,-0.0508 0.5588,-0.1016 1.016,-0.1524 v 5.9944 q -0.7112,0.1016 -2.032,0.2032 -1.3208,0.1524 -2.6924,0.1524 z"
         id="path40370"
         style="font-size:192px;line-height:1.25;font-family:'Oswald SemiBold';-inkscape-font-specification:'Oswald SemiBold, ';letter-spacing:0.01px;word-spacing:0px;fill:#4d4d4d;stroke-width:0.264583" />
      <path
         d="m -417.38715,635.61188 q -2.0828,0 -3.6068,-1.0668 -1.4732,-1.0668 -2.2352,-2.6924 -0.762,-1.6256 -0.762,-3.3528 0,-2.7432 1.0668,-4.6228 1.0668,-1.8796 2.794,-3.1496 1.7272,-1.27 3.8608,-2.1844 2.1336,-0.9144 4.2672,-1.6764 v -2.7432 q 0,-0.9652 -0.1524,-1.6764 -0.1524,-0.7112 -0.6096,-1.0668 -0.4064,-0.4064 -1.2192,-0.4064 -0.8128,0 -1.27,0.3556 -0.4064,0.3048 -0.6096,0.9652 -0.1524,0.6096 -0.2032,1.3716 l -0.1524,2.032 -7.2644,-0.3048 q 0.254,-5.1816 2.6924,-7.6708 2.4892,-2.4892 7.4676,-2.4892 4.4704,0 6.604,2.4892 2.1336,2.4384 2.1336,6.4516 v 13.6652 q 0,1.7272 0.0508,3.0988 0.1016,1.3208 0.2032,2.3876 0.1524,1.016 0.254,1.778 h -6.9088 q -0.1524,-1.1176 -0.3556,-2.4384 -0.2032,-1.3208 -0.3048,-1.778 -0.508,1.8288 -1.9304,3.302 -1.4224,1.4224 -3.81,1.4224 z m 2.794,-5.4356 q 0.5588,0 1.0668,-0.254 0.508,-0.254 0.8636,-0.6604 0.4064,-0.4064 0.6604,-0.762 v -8.0772 q -1.0668,0.6604 -1.9812,1.3208 -0.9144,0.6096 -1.5748,1.3716 -0.6604,0.762 -1.016,1.6764 -0.3556,0.9144 -0.3556,2.0828 0,1.524 0.6096,2.4384 0.6096,0.8636 1.7272,0.8636 z m -1.1684,-27.5336 3.1496,-10.16 h 7.7724 l -6.2484,10.16 z"
         id="path40372"
         style="font-size:192px;line-height:1.25;font-family:'Oswald SemiBold';-inkscape-font-specification:'Oswald SemiBold, ';letter-spacing:0.01px;word-spacing:0px;fill:#4d4d4d;stroke-width:0.264583" />
      <path
         d="m -390.4605,645.06068 q -3.2004,0 -5.588,-0.6604 -2.3368,-0.6604 -3.6576,-1.9812 -1.3208,-1.27 -1.3208,-3.302 0,-1.3716 0.5588,-2.4892 0.6096,-1.0668 1.6256,-1.8796 1.0668,-0.8128 2.286,-1.4224 -1.778,-0.508 -2.794,-1.5748 -0.9652,-1.0668 -0.9652,-2.7432 0,-1.778 0.8636,-3.048 0.8636,-1.27 2.3876,-2.5908 -1.524,-1.27 -2.286,-3.1496 -0.762,-1.8796 -0.762,-4.7244 0,-3.302 1.1684,-5.588 1.1684,-2.286 3.4036,-3.4544 2.286,-1.2192 5.4864,-1.2192 2.286,0 3.9624,0.6604 1.6764,0.6096 2.794,1.8288 0.508,-0.762 1.4732,-1.5748 0.9652,-0.8636 2.1844,-1.4732 l 1.016,-0.4572 1.8288,3.8608 q -0.508,0.1524 -1.4224,0.508 -0.8636,0.3556 -1.778,0.762 -0.8636,0.4064 -1.4732,0.762 0.508,1.0668 0.8128,2.54 0.3048,1.4732 0.3048,2.9464 0,3.0988 -1.0668,5.3848 -1.0668,2.286 -3.2004,3.5052 -2.1336,1.2192 -5.4356,1.2192 -1.27,0 -2.4384,-0.2032 -1.1176,-0.2032 -2.1336,-0.508 -0.3048,0.4064 -0.5588,0.9144 -0.2032,0.4572 -0.2032,0.9652 0,0.6096 0.5588,0.9652 0.6096,0.3556 2.1336,0.508 l 7.0612,0.762 q 3.7084,0.4064 5.4356,2.3876 1.778,1.9304 1.778,5.1816 0,2.6924 -1.2192,4.572 -1.2192,1.8796 -3.9116,2.8448 -2.6416,0.9652 -6.9088,0.9652 z m 0.9144,-5.6388 q 2.794,0 4.2672,-0.508 1.4732,-0.508 1.4732,-1.9812 0,-0.7112 -0.4064,-1.2192 -0.3556,-0.4572 -1.3208,-0.762 -0.9144,-0.3048 -2.5908,-0.4572 l -5.2832,-0.508 q -0.508,0.4064 -0.9144,0.8636 -0.4064,0.4572 -0.6604,0.9652 -0.254,0.508 -0.254,1.1176 0,1.2192 1.27,1.8288 1.3208,0.6604 4.4196,0.6604 z m -0.508,-18.3896 q 0.8128,0 1.3208,-0.3048 0.508,-0.3048 0.762,-0.9652 0.254,-0.6604 0.3556,-1.7272 0.1016,-1.0668 0.1016,-2.54 0,-1.4732 -0.1016,-2.4892 -0.1016,-1.0668 -0.3556,-1.7272 -0.254,-0.7112 -0.762,-1.016 -0.508,-0.3048 -1.3208,-0.3048 -0.762,0 -1.3208,0.3048 -0.508,0.3048 -0.762,0.9652 -0.254,0.6604 -0.3556,1.7272 -0.1016,1.0668 -0.1016,2.54 0,1.4224 0.1016,2.4892 0.1016,1.016 0.3556,1.7272 0.254,0.6604 0.762,1.016 0.508,0.3048 1.3208,0.3048 z"
         id="path40374"
         style="font-size:192px;line-height:1.25;font-family:'Oswald SemiBold';-inkscape-font-specification:'Oswald SemiBold, ';letter-spacing:0.01px;word-spacing:0px;fill:#4d4d4d;stroke-width:0.264583" />
      <path
         d="m -365.66751,635.61188 q -3.1496,0 -5.3848,-1.1176 -2.2352,-1.1684 -3.4036,-3.3528 -1.1176,-2.1844 -1.1176,-5.4356 v -10.5664 q 0,-3.2512 1.1176,-5.4356 1.1684,-2.1844 3.4036,-3.302 2.2352,-1.1684 5.3848,-1.1684 3.1496,0 5.3848,1.1684 2.2352,1.1176 3.4036,3.302 1.1684,2.1844 1.1684,5.4356 v 10.5664 q 0,3.2512 -1.1684,5.4356 -1.1684,2.1844 -3.4036,3.3528 -2.2352,1.1176 -5.3848,1.1176 z m 0.0508,-5.1816 q 0.9652,0 1.4732,-0.508 0.508,-0.5588 0.6604,-1.4732 0.1524,-0.9652 0.1524,-2.1844 v -11.6332 q 0,-1.27 -0.1524,-2.1844 -0.1524,-0.9144 -0.6604,-1.4732 -0.508,-0.5588 -1.4732,-0.5588 -0.9652,0 -1.4732,0.5588 -0.508,0.5588 -0.7112,1.4732 -0.1524,0.9144 -0.1524,2.1844 v 11.6332 q 0,1.2192 0.1524,2.1844 0.2032,0.9144 0.7112,1.4732 0.508,0.508 1.4732,0.508 z"
         id="path40376"
         style="font-size:192px;line-height:1.25;font-family:'Oswald SemiBold';-inkscape-font-specification:'Oswald SemiBold, ';letter-spacing:0.01px;word-spacing:0px;fill:#4d4d4d;stroke-width:0.264583" />
      <path
         d="m -351.03444,635.10388 v -29.3624 h 7.6708 v 2.9464 q 1.5748,-1.5748 3.302,-2.4892 1.778,-0.9652 3.7592,-0.9652 1.8288,0 2.9464,0.9144 1.1684,0.9144 1.7272,2.4384 0.5588,1.4732 0.5588,3.3528 v 23.1648 h -7.62 v -21.8948 q 0,-1.2192 -0.4064,-1.8288 -0.3556,-0.6096 -1.4224,-0.6096 -0.6096,0 -1.3716,0.3556 -0.7112,0.3048 -1.4732,0.8636 v 23.114 z"
         id="path40378"
         style="font-size:192px;line-height:1.25;font-family:'Oswald SemiBold';-inkscape-font-specification:'Oswald SemiBold, ';letter-spacing:0.01px;word-spacing:0px;fill:#4d4d4d;stroke-width:0.264583" />
      <path
         d="m -316.69099,635.61188 q -3.1496,0 -5.3848,-1.1176 -2.2352,-1.1684 -3.4036,-3.3528 -1.1176,-2.1844 -1.1176,-5.4356 v -10.5664 q 0,-3.2512 1.1176,-5.4356 1.1684,-2.1844 3.4036,-3.302 2.2352,-1.1684 5.3848,-1.1684 3.1496,0 5.3848,1.1684 2.2352,1.1176 3.4036,3.302 1.1684,2.1844 1.1684,5.4356 v 10.5664 q 0,3.2512 -1.1684,5.4356 -1.1684,2.1844 -3.4036,3.3528 -2.2352,1.1176 -5.3848,1.1176 z m 0.0508,-5.1816 q 0.9652,0 1.4732,-0.508 0.508,-0.5588 0.6604,-1.4732 0.1524,-0.9652 0.1524,-2.1844 v -11.6332 q 0,-1.27 -0.1524,-2.1844 -0.1524,-0.9144 -0.6604,-1.4732 -0.508,-0.5588 -1.4732,-0.5588 -0.9652,0 -1.4732,0.5588 -0.508,0.5588 -0.7112,1.4732 -0.1524,0.9144 -0.1524,2.1844 v 11.6332 q 0,1.2192 0.1524,2.1844 0.2032,0.9144 0.7112,1.4732 0.508,0.508 1.4732,0.508 z"
         id="path40380"
         style="font-size:192px;line-height:1.25;font-family:'Oswald SemiBold';-inkscape-font-specification:'Oswald SemiBold, ';letter-spacing:0.01px;word-spacing:0px;fill:#4d4d4d;stroke-width:0.264583" />
      <g
         id="g16621"
         transform="translate(-205.89153,-125.76982)">
        <circle
           style="opacity:1;fill:#ba2d0b;fill-opacity:1;stroke:none;stroke-width:0.127917;stroke-linecap:butt;stroke-miterlimit:4;stroke-dasharray:none;stroke-dashoffset:0;stroke-opacity:0"
           id="path22005-5-9-8-1-2-2-0-1-8-5-5"
           cx="-280.54684"
           cy="744.39557"
           r="4.51717" />
        <path
           style="fill:#8e9b90;fill-opacity:1;stroke:none;stroke-width:0.377826px;stroke-linecap:butt;stroke-linejoin:miter;stroke-opacity:1"
           d="m -269.35559,735.75902 c 0.53601,0.45659 1.6079,1.36965 2.10015,2.52899 0.49224,1.15934 0.40495,2.56487 0.31768,3.96997 -0.0873,1.4051 -0.17458,2.81099 0.89691,3.72372 1.07149,0.91273 3.30341,1.33365 4.3396,0.55172 1.03619,-0.78193 0.87736,-2.76678 0.42868,-4.62895 -0.44868,-1.86217 -1.18695,-3.60057 -2.38217,-4.80369 -1.19522,-1.20311 -2.8464,-1.8699 -3.96215,-2.08019 -1.11576,-0.2103 -1.69531,0.0358 -1.98494,0.15884 -0.28963,0.123 -0.28978,0.123 0.24624,0.57959 z"
           id="path19701-46-0-0-6-8-7-94-9-2-41-4-0-9-4-0-5-5-1-5"
           inkscape:connector-curvature="0"
           inkscape:path-effect="#path-effect19703-0-7-62-2-5-7-3-7-0-96-5-9-4-4-2-3-2-3-8"
           inkscape:original-d="m -269.89161,735.30243 c 1.0717,0.91357 2.1436,1.82662 3.21571,2.73921 -0.0876,1.40569 -0.17485,2.81122 -0.26184,4.2161 -0.0873,1.40534 -0.17486,2.81121 -0.26185,4.21609 2.23013,0.42111 4.46206,0.84201 6.69335,1.2623 -0.15915,-1.98461 -0.31788,-3.96947 -0.47653,-5.95492 -0.73884,-1.73876 -1.47709,-3.47717 -2.21535,-5.21649 -1.65203,-0.66657 -3.30322,-1.33334 -4.95452,-2.00075 -0.57984,0.24672 -1.15942,0.49279 -1.73882,0.73846 z" />
        <path
           style="fill:#8e9b90;fill-opacity:1;stroke:none;stroke-width:0.377826px;stroke-linecap:butt;stroke-linejoin:miter;stroke-opacity:1"
           d="m -291.7381,753.0321 c -0.53602,-0.45658 -1.60792,-1.36963 -2.10017,-2.52896 -0.49225,-1.15934 -0.40495,-2.56486 -0.31769,-3.96999 0.0873,-1.40513 0.17458,-2.81097 -0.89691,-3.72369 -1.07148,-0.91273 -3.30344,-1.33365 -4.33963,-0.55174 -1.03619,0.78191 -0.87735,2.76677 -0.42867,4.62895 0.44869,1.86219 1.18696,3.60059 2.38218,4.80369 1.19522,1.2031 2.84638,1.86987 3.96214,2.08017 1.11576,0.21031 1.69533,-0.0358 1.98497,-0.15884 0.28963,-0.123 0.2898,-0.123 -0.24622,-0.57959 z"
           id="path19701-46-0-0-6-8-7-3-0-4-0-2-7-4-2-3-9-9-6-1-8-3"
           inkscape:connector-curvature="0"
           inkscape:path-effect="#path-effect19703-0-7-62-2-5-7-4-1-6-0-9-4-3-6-0-7-7-0-8-5-2"
           inkscape:original-d="m -291.20208,753.48869 c -1.07173,-0.91354 -2.1436,-1.82662 -3.21574,-2.73918 0.0876,-1.40569 0.17486,-2.81121 0.26185,-4.21609 0.0876,-1.40538 0.17485,-2.81122 0.26184,-4.2161 -2.23012,-0.42113 -4.46208,-0.84203 -6.69337,-1.26229 0.15914,1.98457 0.31788,3.96944 0.47653,5.95491 0.73883,1.73877 1.47709,3.47718 2.21534,5.21646 1.65206,0.66657 3.30322,1.33334 4.95456,2.00075 0.57981,-0.24671 1.15941,-0.49279 1.73882,-0.73846 z" />
        <path
           style="fill:#8e9b90;fill-opacity:1;stroke:none;stroke-width:0.250326px;stroke-linecap:butt;stroke-linejoin:miter;stroke-opacity:1;filter:url(#filter24004-8-9-4-1-7-9-1-0-4-6)"
           d="m -218.13415,66.545948 c -0.30251,0.355137 -0.90745,1.065321 -1.67556,1.391444 -0.76811,0.326122 -1.69934,0.268271 -2.63029,0.210437 -0.93095,-0.05783 -1.8624,-0.1157 -2.46712,0.5942 -0.60472,0.709899 -0.8836,2.188651 -0.36555,2.875178 0.51805,0.686528 1.83312,0.581295 3.06689,0.284023 1.23377,-0.297273 2.38555,-0.786416 3.18266,-1.578301 0.79711,-0.791884 1.23888,-1.88587 1.37821,-2.625096 0.13934,-0.739226 -0.0237,-1.123236 -0.10524,-1.315129 -0.0815,-0.191893 -0.0815,-0.191893 -0.384,0.163244 z"
           id="path19701-46-0-0-6-8-7-1-1-2-1-0-7-7-6-1-1-2-8-2-1"
           inkscape:connector-curvature="0"
           inkscape:path-effect="#path-effect19703-0-7-62-2-5-7-2-0-3-0-27-1-5-0-7-6-3-6-5-3"
           inkscape:original-d="m -217.83164,66.190811 c -0.60527,0.710058 -1.21022,1.420235 -1.81483,2.130562 -0.93134,-0.05796 -1.86257,-0.115822 -2.79336,-0.173534 -0.93111,-0.05796 -1.86256,-0.115822 -2.79335,-0.173534 -0.27901,1.477558 -0.55787,2.956313 -0.83633,4.434648 1.31488,-0.105367 2.62995,-0.210605 3.9454,-0.315713 1.152,-0.489526 2.30378,-0.978654 3.45615,-1.467781 0.44162,-1.094546 0.88339,-2.188533 1.32558,-3.2826 -0.16341,-0.384159 -0.3265,-0.768168 -0.48927,-1.152048 z"
           transform="matrix(1.5093333,0,0,1.5093333,57.326835,655.14681)" />
        <path
           style="fill:#8e9b90;fill-opacity:1;stroke:none;stroke-width:0.377826px;stroke-linecap:butt;stroke-linejoin:miter;stroke-opacity:1"
           d="m -294.85901,742.4713 c 0.23562,-0.58405 0.1233,-1.98762 0.59501,-3.15546 0.47172,-1.16784 1.52732,-2.09994 2.58262,-3.03178 1.05529,-0.93184 2.11113,-1.86418 1.99888,-3.26723 -0.11225,-1.40305 -1.39284,-3.27891 -2.67844,-3.45872 -1.28559,-0.1798 -2.5768,1.33602 -3.57628,2.97005 -0.99949,1.63402 -1.70668,3.3853 -1.71226,5.08118 -0.006,1.69588 0.69051,3.33492 1.33076,4.27258 0.64025,0.93766 1.22409,1.17343 1.45971,0.58938 z"
           id="path19701-46-0-0-6-8-7-9-9-7-2-12-1-2-8-4-0-4-0-1-1"
           inkscape:connector-curvature="0"
           inkscape:path-effect="#path-effect19703-0-7-62-2-5-7-70-7-6-0-8-3-7-9-5-6-0-7-7-1"
           inkscape:original-d="m -294.51106,743.291 c -0.11172,-1.4038 -0.22402,-2.80737 -0.33696,-4.21077 1.05584,-0.93211 2.11145,-1.86421 3.16645,-2.796 1.05558,-0.9319 2.11142,-1.86424 3.16642,-2.79603 -1.27917,-1.87472 -2.55976,-3.75057 -3.84035,-5.62552 -1.29084,1.51579 -2.58205,3.03161 -3.87381,4.54771 -0.70704,1.75194 -1.41425,3.50321 -2.1221,5.25513 0.69685,1.63949 1.39292,3.27854 2.08867,4.91813 0.58438,0.23565 1.16826,0.47134 1.75168,0.70735 z" />
        <path
           style="fill:#8e9b90;fill-opacity:1;stroke:none;stroke-width:0.377826px;stroke-linecap:butt;stroke-linejoin:miter;stroke-opacity:1"
           d="m -282.47114,730.08343 c -0.58407,0.2356 -1.98762,0.12329 -3.15544,0.595 -1.16783,0.47171 -2.09994,1.52731 -3.03179,2.58261 -0.93185,1.0553 -1.86419,2.11115 -3.26723,1.99889 -1.40305,-0.11225 -3.27889,-1.39282 -3.45871,-2.67842 -0.17982,-1.2856 1.33602,-2.57681 2.97004,-3.5763 1.63402,-0.99948 3.3853,-1.70668 5.08118,-1.71226 1.69587,-0.006 3.33493,0.69051 4.27258,1.33074 0.93765,0.64024 1.17344,1.22413 0.58937,1.45974 z"
           id="path19701-46-0-0-6-8-7-3-6-8-6-4-2-7-9-4-8-6-9-7-6-8"
           inkscape:connector-curvature="0"
           inkscape:path-effect="#path-effect19703-0-7-62-2-5-7-4-4-9-3-1-7-1-9-1-7-5-8-7-9-2"
           inkscape:original-d="m -281.65143,730.43137 c -1.40381,-0.11201 -2.80738,-0.22402 -4.21075,-0.33696 -0.9321,1.05584 -1.86424,2.11142 -2.79603,3.16645 -0.9319,1.05558 -1.86424,2.11142 -2.79602,3.16642 -1.87472,-1.27916 -3.75054,-2.55976 -5.62552,-3.84035 1.51579,-1.29083 3.0316,-2.58207 4.54774,-3.87381 1.75191,-0.70703 3.50318,-1.41424 5.25509,-2.1221 1.63949,0.69686 3.27855,1.39293 4.91813,2.08865 0.23566,0.58437 0.47138,1.16829 0.70736,1.7517 z" />
        <path
           style="fill:#8e9b90;fill-opacity:1;stroke:none;stroke-width:0.250326px;stroke-linecap:butt;stroke-linejoin:miter;stroke-opacity:1;filter:url(#filter24000-0-1-6-7-6-9-2-6-2-8)"
           d="m -222.65939,68.420369 c 0.46503,0.03721 1.39495,0.111631 2.1687,-0.200901 0.77374,-0.312533 1.3913,-1.011912 2.00869,-1.711093 0.61739,-0.69918 1.2351,-1.39873 2.16468,-1.32436 0.92958,0.07437 2.17242,0.922813 2.29155,1.774578 0.11913,0.851766 -0.88518,1.707252 -1.96779,2.369455 -1.08261,0.662203 -2.24292,1.130754 -3.3665,1.134449 -1.12359,0.0037 -2.20954,-0.45749 -2.83077,-0.881674 -0.62124,-0.424183 -0.77746,-0.811044 -0.85552,-1.004361 -0.0781,-0.193317 -0.0781,-0.193307 0.38696,-0.156093 z"
           id="path19701-46-0-0-6-8-7-2-8-3-5-1-8-3-4-5-9-8-2-7-9-4"
           inkscape:connector-curvature="0"
           inkscape:path-effect="#path-effect19703-0-7-62-2-5-7-7-0-7-6-3-5-4-1-8-3-2-5-9-9-9"
           inkscape:original-d="m -223.12442,68.383155 c 0.93008,0.07412 1.86001,0.148504 2.78982,0.223255 0.61757,-0.699543 1.23513,-1.398926 1.85249,-2.097911 0.61742,-0.699373 1.23513,-1.398926 1.85249,-2.09791 1.24208,0.847508 2.48491,1.695954 3.72715,2.54441 -1.00427,0.855239 -2.00858,1.710729 -3.01307,2.566567 -1.16073,0.468447 -2.32103,0.937003 -3.48174,1.405989 -1.08623,-0.461693 -2.17218,-0.922878 -3.25848,-1.383822 -0.15609,-0.387182 -0.3123,-0.774045 -0.46865,-1.160588 z"
           transform="matrix(1.5093333,0,0,1.5093333,57.326835,655.14681)" />
        <path
           style="fill:#8e9b90;fill-opacity:1;stroke:none;stroke-width:0.377826px;stroke-linecap:butt;stroke-linejoin:miter;stroke-opacity:1"
           d="m -266.52648,746.202 c 0.0562,0.70188 0.16849,2.1055 -0.30323,3.27332 -0.47172,1.16782 -1.52731,2.09993 -2.5826,3.03177 -1.05529,0.93184 -2.11115,1.86419 -1.9989,3.26723 0.11225,1.40305 1.39283,3.2789 2.67844,3.45871 1.2856,0.1798 2.57679,-1.336 3.57628,-2.97003 0.99949,-1.63403 1.70669,-3.38533 1.71226,-5.0812 0.006,-1.69586 -0.69051,-3.33492 -1.33076,-4.27258 -0.64025,-0.93765 -1.22411,-1.17343 -1.51589,-1.29125 -0.29177,-0.11782 -0.29177,-0.11785 -0.2356,0.58403 z"
           id="path19701-46-0-0-6-8-7-3-0-0-8-7-6-1-4-3-9-1-5-2-7-0-4"
           inkscape:connector-curvature="0"
           inkscape:path-effect="#path-effect19703-0-7-62-2-5-7-4-1-8-3-3-7-0-5-6-7-4-3-1-6-8-9"
           inkscape:original-d="m -266.58265,745.50012 c 0.11172,1.40381 0.22431,2.80741 0.33696,4.21078 -1.05584,0.93213 -2.11142,1.86424 -3.16642,2.79602 -1.05558,0.93191 -2.11145,1.86425 -3.16645,2.79603 1.27916,1.87472 2.55975,3.75057 3.84035,5.62552 1.29086,-1.51579 2.58204,-3.0316 3.87381,-4.54771 0.70703,-1.75194 1.41424,-3.50324 2.1221,-5.25512 -0.69686,-1.63949 -1.39293,-3.27855 -2.08865,-4.91813 -0.5844,-0.23566 -1.16829,-0.47138 -1.7517,-0.70736 z" />
        <path
           style="fill:#8e9b90;fill-opacity:1;stroke:none;stroke-width:0.377826px;stroke-linecap:butt;stroke-linejoin:miter;stroke-opacity:1"
           d="m -278.62257,730.08343 c 0.58406,0.2356 1.98761,0.12329 3.15544,0.59501 1.16783,0.47172 2.09993,1.5273 3.03178,2.58259 0.93184,1.05529 1.86419,2.11115 3.26724,1.9989 1.40305,-0.11225 3.27889,-1.39282 3.45871,-2.67843 0.17982,-1.2856 -1.33602,-2.57682 -2.97004,-3.5763 -1.63402,-0.99948 -3.3853,-1.70667 -5.08118,-1.71225 -1.69588,-0.006 -3.33494,0.69051 -4.27259,1.33074 -0.93765,0.64024 -1.17343,1.22413 -0.58936,1.45974 z"
           id="path19701-46-0-0-6-8-7-1-0-5-1-5-0-8-5-3-7-7-1-3-8-6"
           inkscape:connector-curvature="0"
           inkscape:path-effect="#path-effect19703-0-7-62-2-5-7-2-5-6-3-41-2-3-5-8-3-0-7-7-6-1"
           inkscape:original-d="m -279.44228,730.43137 c 1.4038,-0.11201 2.80737,-0.22402 4.21074,-0.33696 0.93214,1.05584 1.86424,2.11142 2.79603,3.16645 0.9319,1.05555 1.86424,2.11142 2.79603,3.16642 1.87472,-1.27916 3.75054,-2.55976 5.62552,-3.84035 -1.51579,-1.29083 -3.03161,-2.58207 -4.54771,-3.87381 -1.75194,-0.70703 -3.50321,-1.41424 -5.25513,-2.1221 -1.63949,0.69686 -3.27855,1.39293 -4.91813,2.08865 -0.23566,0.58437 -0.47137,1.16829 -0.70735,1.7517 z" />
        <path
           style="fill:#8e9b90;fill-opacity:1;stroke:none;stroke-width:0.377826px;stroke-linecap:butt;stroke-linejoin:miter;stroke-opacity:1"
           d="m -294.56723,746.202 c -0.0562,0.70188 -0.16849,2.1055 0.30323,3.27332 0.47172,1.16782 1.52731,2.09993 2.5826,3.03177 1.05529,0.93184 2.11114,1.86418 1.99889,3.26723 -0.11224,1.40305 -1.39281,3.27889 -2.67842,3.4587 -1.28561,0.17981 -2.57679,-1.336 -3.57628,-2.97003 -0.99949,-1.63403 -1.7067,-3.38533 -1.71228,-5.08119 -0.006,-1.69586 0.69051,-3.33492 1.33076,-4.27258 0.64025,-0.93765 1.22412,-1.17342 1.51589,-1.29125 0.29178,-0.11782 0.29178,-0.11785 0.23561,0.58403 z"
           id="path19701-46-0-0-6-8-7-2-1-9-2-3-7-0-6-9-7-2-8-0-0-0-3"
           inkscape:connector-curvature="0"
           inkscape:path-effect="#path-effect19703-0-7-62-2-5-7-7-5-6-6-4-13-1-4-1-0-6-7-4-1-5-8"
           inkscape:original-d="m -294.51106,745.50012 c -0.11172,1.40381 -0.22431,2.80741 -0.33696,4.21078 1.05584,0.93213 2.11142,1.86424 3.16642,2.79602 1.05558,0.93191 2.11145,1.86422 3.16645,2.79603 -1.27917,1.87472 -2.55976,3.75054 -3.84035,5.62552 -1.29086,-1.51579 -2.58205,-3.0316 -3.87381,-4.54774 -0.70704,-1.75191 -1.41425,-3.50321 -2.1221,-5.25509 0.69685,-1.63949 1.39292,-3.27855 2.08864,-4.91813 0.58441,-0.23566 1.16829,-0.47138 1.75171,-0.70736 z" />
        <path
           style="fill:#8e9b90;fill-opacity:1;stroke:none;stroke-width:0.250326px;stroke-linecap:butt;stroke-linejoin:miter;stroke-opacity:1;filter:url(#filter23996-1-9-1-4-7-1-9-3-9-2)"
           d="m -225.0531,68.420367 c -0.46503,0.03721 -1.39496,0.111627 -2.1687,-0.200904 -0.77373,-0.31253 -1.3913,-1.011909 -2.00869,-1.711089 -0.61739,-0.699179 -1.2351,-1.398729 -2.16468,-1.324358 -0.92958,0.07437 -2.17241,0.92281 -2.29154,1.774575 -0.11914,0.851765 0.88517,1.707252 1.96778,2.369456 1.08261,0.662204 2.24292,1.130755 3.3665,1.134449 1.12359,0.0037 2.20954,-0.457491 2.83077,-0.881673 0.62123,-0.424182 0.77745,-0.811045 0.85552,-1.004362 0.0781,-0.193316 0.0781,-0.193306 -0.38696,-0.156094 z"
           id="path19701-46-0-0-6-8-7-3-0-1-7-2-3-8-0-8-5-7-4-9-8-8-1-3"
           inkscape:connector-curvature="0"
           inkscape:path-effect="#path-effect19703-0-7-62-2-5-7-4-1-1-6-5-4-0-0-7-9-1-0-5-5-2-2-4"
           inkscape:original-d="m -224.58807,68.383155 c -0.93008,0.07412 -1.86002,0.148504 -2.78982,0.223245 -0.61757,-0.699533 -1.23513,-1.398916 -1.85249,-2.097901 -0.61742,-0.699373 -1.23513,-1.398926 -1.85249,-2.09791 -1.24208,0.847508 -2.4849,1.695954 -3.72714,2.54441 1.00426,0.855239 2.00857,1.710729 3.01306,2.566567 1.16073,0.468447 2.32103,0.937003 3.48174,1.405989 1.08623,-0.461693 2.17218,-0.922878 3.25847,-1.383822 0.15609,-0.387182 0.31231,-0.774045 0.46866,-1.160588 z"
           transform="matrix(1.5093333,0,0,1.5093333,57.326835,655.14681)" />
        <path
           style="fill:#8e9b90;fill-opacity:1;stroke:none;stroke-width:0.377826px;stroke-linecap:butt;stroke-linejoin:miter;stroke-opacity:1"
           d="m -266.2347,742.4713 c -0.23562,-0.58405 -0.1233,-1.98762 -0.59501,-3.15546 -0.47172,-1.16784 -1.52731,-2.09993 -2.58261,-3.03178 -1.0553,-0.93184 -2.11114,-1.86418 -1.99889,-3.26723 0.11225,-1.40305 1.39283,-3.2789 2.67843,-3.45872 1.2856,-0.17981 2.5768,1.33602 3.57629,2.97004 0.99949,1.63403 1.70668,3.38531 1.71226,5.08119 0.006,1.69588 -0.6905,3.33493 -1.33075,4.27259 -0.64025,0.93766 -1.22411,1.17343 -1.45972,0.58937 z"
           id="path19701-46-0-0-6-8-7-3-7-2-2-8-9-50-5-2-1-1-0-2-1-7-7"
           inkscape:connector-curvature="0"
           inkscape:path-effect="#path-effect19703-0-7-62-2-5-7-4-17-1-4-9-1-8-6-0-7-4-9-2-5-5-6"
           inkscape:original-d="m -266.58265,743.291 c 0.11172,-1.4038 0.22402,-2.80737 0.33696,-4.21077 -1.05584,-0.93211 -2.11142,-1.86421 -3.16645,-2.796 -1.05558,-0.9319 -2.11142,-1.86424 -3.16642,-2.79603 1.27916,-1.87472 2.55975,-3.75057 3.84035,-5.62552 1.29083,1.51579 2.58204,3.03161 3.87381,4.54771 0.70703,1.75194 1.41424,3.50321 2.1221,5.25513 -0.69686,1.63949 -1.39293,3.27854 -2.08865,4.91813 -0.5844,0.23565 -1.16829,0.47134 -1.7517,0.70735 z" />
        <path
           style="fill:#8e9b90;fill-opacity:1;stroke:none;stroke-width:0.377826px;stroke-linecap:butt;stroke-linejoin:miter;stroke-opacity:1"
           d="m -269.3556,753.03211 c 0.53601,-0.45658 1.60792,-1.36965 2.10016,-2.52898 0.49224,-1.15933 0.40495,-2.56485 0.31768,-3.96997 -0.0873,-1.40512 -0.17458,-2.81098 0.89691,-3.72371 1.07149,-0.91273 3.30342,-1.33364 4.33961,-0.55173 1.03619,0.78191 0.87735,2.76677 0.42867,4.62895 -0.44869,1.86219 -1.18696,3.60059 -2.38217,4.80368 -1.19522,1.2031 -2.8464,1.86989 -3.96215,2.08018 -1.11575,0.2103 -1.69531,-0.0358 -1.98494,-0.15884 -0.28963,-0.123 -0.28978,-0.123 0.24623,-0.57958 z"
           id="path19701-46-0-0-6-8-7-3-1-5-2-2-9-4-7-5-8-9-9-9-7"
           inkscape:connector-curvature="0"
           inkscape:path-effect="#path-effect19703-0-7-62-2-5-7-4-5-7-7-6-0-1-8-8-0-0-3-5-6"
           inkscape:original-d="m -269.89161,753.48869 c 1.0717,-0.91354 2.1436,-1.82662 3.21571,-2.73918 -0.0876,-1.40569 -0.17485,-2.81121 -0.26184,-4.21609 -0.0873,-1.40538 -0.17486,-2.81122 -0.26185,-4.2161 2.23013,-0.42113 4.46206,-0.84203 6.69335,-1.26229 -0.15915,1.98457 -0.31788,3.96944 -0.47653,5.95491 -0.73884,1.73877 -1.47709,3.47718 -2.21535,5.21646 -1.65203,0.66657 -3.30322,1.33334 -4.95452,2.00075 -0.57984,-0.24671 -1.15942,-0.49279 -1.73882,-0.73846 z" />
        <path
           style="fill:#8e9b90;fill-opacity:1;stroke:none;stroke-width:0.250326px;stroke-linecap:butt;stroke-linejoin:miter;stroke-opacity:1;filter:url(#filter23992-5-3-6-6-0-6-2-8-3-3)"
           d="m -229.57834,66.54595 c 0.30251,0.35514 0.90745,1.065319 1.67556,1.391442 0.76811,0.326122 1.69934,0.268271 2.63029,0.210437 0.93095,-0.05783 1.8624,-0.1157 2.46712,0.5942 0.60472,0.709899 0.8836,2.188653 0.36555,2.875179 -0.51805,0.686527 -1.83312,0.581294 -3.06689,0.284022 -1.23377,-0.297273 -2.38555,-0.786416 -3.18266,-1.578301 -0.79711,-0.791884 -1.23888,-1.88587 -1.37821,-2.625096 -0.13934,-0.739226 0.0237,-1.123236 0.10524,-1.315129 0.0815,-0.191893 0.0815,-0.191893 0.384,0.163246 z"
           id="path19701-46-0-0-6-8-7-3-7-5-1-7-9-5-8-0-3-6-4-0-8-3"
           inkscape:connector-curvature="0"
           inkscape:path-effect="#path-effect19703-0-7-62-2-5-7-4-17-17-2-5-5-0-1-7-7-7-7-5-4-6"
           inkscape:original-d="m -229.88085,66.190811 c 0.60528,0.710058 1.21022,1.420235 1.81483,2.130562 0.93134,-0.05796 1.86257,-0.115822 2.79336,-0.173534 0.93111,-0.05796 1.86256,-0.115822 2.79335,-0.173534 0.27901,1.477558 0.55788,2.956313 0.83633,4.434648 -1.31488,-0.105367 -2.62995,-0.210605 -3.9454,-0.315713 -1.152,-0.489526 -2.30378,-0.978654 -3.45615,-1.467781 -0.44162,-1.094546 -0.88339,-2.188533 -1.32558,-3.2826 0.16341,-0.384159 0.3265,-0.768168 0.48927,-1.152048 z"
           transform="matrix(1.5093333,0,0,1.5093333,57.326835,655.14681)" />
        <path
           style="fill:#8e9b90;fill-opacity:1;stroke:none;stroke-width:0.377826px;stroke-linecap:butt;stroke-linejoin:miter;stroke-opacity:1"
           d="m -291.73811,735.75902 c -0.53602,0.4566 -1.6079,1.36964 -2.10015,2.52898 -0.49226,1.15935 -0.40496,2.56488 -0.3177,3.96999 0.0873,1.40511 0.17458,2.81098 -0.8969,3.72371 -1.07149,0.91273 -3.30344,1.33365 -4.33963,0.55172 -1.03619,-0.78193 -0.87736,-2.76678 -0.42868,-4.62895 0.44868,-1.86217 1.18695,-3.60058 2.38218,-4.80369 1.19522,-1.20312 2.84638,-1.86989 3.96214,-2.08019 1.11576,-0.21031 1.69533,0.0358 1.98497,0.15884 0.28963,0.123 0.2898,0.123 -0.24623,0.57959 z"
           id="path19701-46-0-0-6-8-7-2-5-0-3-3-5-3-7-0-3-4-6-8-0"
           inkscape:connector-curvature="0"
           inkscape:path-effect="#path-effect19703-0-7-62-2-5-7-7-08-5-6-0-8-5-1-7-8-8-4-5-1"
           inkscape:original-d="m -291.20208,735.30243 c -1.07173,0.91357 -2.1436,1.82662 -3.21574,2.73921 0.0876,1.40569 0.17486,2.81122 0.26185,4.2161 0.0876,1.40534 0.17485,2.81121 0.26184,4.21609 -2.23012,0.42111 -4.46208,0.84201 -6.69337,1.2623 0.15914,-1.98461 0.31788,-3.96947 0.47653,-5.95492 0.73883,-1.73876 1.47709,-3.47717 2.21534,-5.21649 1.65206,-0.66657 3.30322,-1.33334 4.95456,-2.00075 0.57981,0.24672 1.15941,0.49279 1.73882,0.73846 z" />
        <path
           style="fill:#8e9b90;fill-opacity:1;stroke:none;stroke-width:0.377826px;stroke-linecap:butt;stroke-linejoin:miter;stroke-opacity:1"
           d="m -289.18341,733.20433 c 0.45659,-0.53603 1.36964,-1.60793 2.52899,-2.10017 1.15934,-0.49224 2.56486,-0.40495 3.96997,-0.31768 1.40512,0.0873 2.81099,0.17458 3.72371,-0.89691 0.91273,-1.07149 1.33365,-3.30342 0.55174,-4.33962 -0.78191,-1.03621 -2.7668,-0.87737 -4.62897,-0.42868 -1.86217,0.44868 -3.60058,1.18697 -4.80368,2.38218 -1.20311,1.19522 -1.8699,2.84641 -2.0802,3.96215 -0.2103,1.11574 0.0358,1.69533 0.15886,1.98497 0.12301,0.28964 0.12299,0.28979 0.57958,-0.24624 z"
           id="path19701-46-0-0-6-8-7-3-0-1-4-4-7-7-7-9-5-8-9-6-6-2-7"
           inkscape:connector-curvature="0"
           inkscape:path-effect="#path-effect19703-0-7-62-2-5-7-4-1-1-4-4-4-5-7-7-1-7-9-8-4-6-4"
           inkscape:original-d="m -289.64,733.74036 c 0.91357,-1.07173 1.82662,-2.14363 2.73918,-3.21574 1.40572,0.0876 2.81124,0.17485 4.21612,0.26184 1.40535,0.0876 2.81122,0.17486 4.2161,0.26185 0.4211,-2.23013 0.84203,-4.46206 1.26229,-6.69338 -1.98457,0.15915 -3.96947,0.31788 -5.95492,0.47653 -1.73876,0.73884 -3.47717,1.47712 -5.21648,2.21538 -0.66654,1.65203 -1.33334,3.30322 -2.00075,4.95452 0.24671,0.57981 0.49282,1.15942 0.73848,1.73885 z" />
        <path
           style="fill:#8e9b90;fill-opacity:1;stroke:none;stroke-width:0.377826px;stroke-linecap:butt;stroke-linejoin:miter;stroke-opacity:1"
           d="m -271.9103,733.20433 c -0.45659,-0.53603 -1.36965,-1.60793 -2.52899,-2.10017 -1.15935,-0.49224 -2.56487,-0.40495 -3.96998,-0.31768 -1.40511,0.0873 -2.81098,0.17458 -3.72371,-0.89691 -0.91273,-1.07149 -1.33364,-3.30341 -0.55173,-4.33962 0.78191,-1.03621 2.76679,-0.87737 4.62896,-0.42868 1.86217,0.44868 3.60058,1.18696 4.80369,2.38218 1.20311,1.19522 1.8699,2.84641 2.08019,3.96215 0.2103,1.11574 -0.0358,1.69533 -0.15886,1.98497 -0.12301,0.28964 -0.12298,0.28979 -0.57957,-0.24624 z"
           id="path19701-46-0-0-6-8-7-2-1-5-3-5-1-2-7-1-3-4-0-4-3-7"
           inkscape:connector-curvature="0"
           inkscape:path-effect="#path-effect19703-0-7-62-2-5-7-7-5-9-3-32-6-9-6-9-0-3-0-5-2-3"
           inkscape:original-d="m -271.45371,733.74036 c -0.91357,-1.07173 -1.82663,-2.14363 -2.73918,-3.21574 -1.40573,0.0876 -2.81125,0.17485 -4.21613,0.26184 -1.40534,0.0876 -2.81121,0.17486 -4.21609,0.26185 -0.42111,-2.23013 -0.84201,-4.46206 -1.2623,-6.69338 1.98458,0.15915 3.96947,0.31788 5.95492,0.47653 1.73876,0.73884 3.47717,1.47712 5.21649,2.21538 0.66654,1.65203 1.33334,3.30322 2.00075,4.95452 -0.24672,0.57981 -0.49282,1.15942 -0.73849,1.73885 z" />
      </g>
      <g
         aria-label="Social Network"
         transform="matrix(0.32908363,0,0,0.32908363,602.65188,554.00774)"
         id="flowRoot13954-0-2-9-4-0-0-1-6-4-4-4-6-1-3-8"
         style="font-weight:bold;font-size:26.6667px;line-height:1.25;font-family:Comfortaa;-inkscape-font-specification:'Comfortaa Bold';text-align:center;letter-spacing:0.01px;word-spacing:0px;text-anchor:middle;fill:#c1c8c2">
        <path
           d="m -2961.817,147.70154 q -1.7066,0 -3.2533,-0.53334 -1.5467,-0.53333 -2.6933,-1.49333 -1.1467,-0.96001 -1.6801,-2.21334 -0.2666,-0.56 0,-1.04 0.2934,-0.48 0.96,-0.61334 0.4801,-0.10666 0.9334,0.16 0.48,0.24001 0.72,0.74667 0.32,0.66667 1.04,1.22667 0.7467,0.56 1.7867,0.90667 1.04,0.34667 2.1866,0.34667 1.28,0 2.3467,-0.40001 1.0933,-0.4 1.76,-1.14666 0.6667,-0.77334 0.6667,-1.89334 0,-1.41333 -1.12,-2.53334 -1.0934,-1.12 -3.6267,-1.38666 -3.3067,-0.32 -5.2,-1.94667 -1.8934,-1.62667 -1.8934,-4.02667 0,-1.76001 0.9867,-2.98668 0.9867,-1.22666 2.6667,-1.86666 1.7067,-0.64001 3.7867,-0.64001 1.6266,0 2.8266,0.45334 1.2267,0.45333 2.1334,1.25333 0.9066,0.8 1.5733,1.89334 0.3733,0.58667 0.2933,1.12 -0.053,0.50667 -0.5066,0.8 -0.5067,0.32 -1.0934,0.13334 -0.5866,-0.18667 -0.88,-0.69334 -0.4266,-0.77333 -1.04,-1.30667 -0.6133,-0.53333 -1.44,-0.82666 -0.8266,-0.32001 -1.9466,-0.32001 -1.9734,-0.0267 -3.3067,0.74667 -1.3333,0.74667 -1.3333,2.32001 0,0.8 0.4,1.54666 0.4266,0.72 1.52,1.25334 1.12,0.53333 3.2,0.74667 3.1733,0.32 4.9333,1.94667 1.7867,1.6 1.7867,4.24 0,1.52 -0.64,2.64 -0.6134,1.12001 -1.68,1.89334 -1.04,0.74667 -2.4,1.12 -1.3334,0.37334 -2.7734,0.37334 z"
           id="path40458" />
        <path
           d="m -2943.727,147.54154 q -2.16,0 -3.8133,-0.93334 -1.6533,-0.96 -2.6133,-2.61334 -0.9334,-1.68 -0.9334,-3.84 0,-2.18667 0.9334,-3.84001 0.96,-1.68 2.6133,-2.61333 1.6533,-0.96 3.8133,-0.96 2.1334,0 3.7867,0.96 1.6533,0.93333 2.5867,2.61333 0.96,1.65334 0.96,3.84001 0,2.16 -0.9334,3.84 -0.9333,1.65334 -2.5866,2.61334 -1.6534,0.93334 -3.8134,0.93334 z m 0,-2.40001 q 1.3867,0 2.4534,-0.64 1.0666,-0.64 1.6533,-1.76 0.6133,-1.12 0.6133,-2.58667 0,-1.46667 -0.6133,-2.58667 -0.5867,-1.14667 -1.6533,-1.78667 -1.0667,-0.64 -2.4534,-0.64 -1.3866,0 -2.4533,0.64 -1.0667,0.64 -1.68,1.78667 -0.6133,1.12 -0.6133,2.58667 0,1.46667 0.6133,2.58667 0.6133,1.12 1.68,1.76 1.0667,0.64 2.4533,0.64 z"
           id="path40460" />
        <path
           d="m -2925.717,147.54154 q -2.1333,0 -3.8133,-0.96001 -1.6533,-0.98666 -2.6133,-2.64 -0.9334,-1.68 -0.9334,-3.78667 0,-2.16 0.9334,-3.84001 0.9333,-1.68 2.56,-2.61333 1.6266,-0.96 3.7333,-0.96 1.5733,0 2.88,0.61333 1.3067,0.58667 2.3467,1.78667 0.3733,0.42667 0.2666,0.88 -0.1066,0.45333 -0.5866,0.8 -0.3734,0.26667 -0.8267,0.18667 -0.4533,-0.10667 -0.8267,-0.48 -1.3066,-1.38667 -3.2533,-1.38667 -1.36,0 -2.4,0.64 -1.04,0.61333 -1.6267,1.73334 -0.5866,1.12 -0.5866,2.64 0,1.44 0.5866,2.56 0.6134,1.12 1.68,1.78667 1.0667,0.64 2.48,0.64 0.9334,0 1.6267,-0.21333 0.72,-0.24 1.3067,-0.72 0.4266,-0.34667 0.88,-0.37334 0.4533,-0.0533 0.8,0.24 0.4533,0.37334 0.5066,0.85334 0.053,0.45333 -0.32,0.82667 -1.92,1.78667 -4.8,1.78667 z"
           id="path40462" />
        <path
           d="m -2914.6669,147.43487 q -0.5867,0 -0.9867,-0.37334 -0.3734,-0.4 -0.3734,-0.98666 v -11.86669 q 0,-0.61333 0.3734,-0.98666 0.4,-0.37334 0.9867,-0.37334 0.6133,0 0.9866,0.37334 0.3734,0.37333 0.3734,0.98666 v 11.86669 q 0,0.58666 -0.3734,0.98666 -0.3733,0.37334 -0.9866,0.37334 z m 0,-16.96002 q -0.7201,0 -1.2534,-0.50667 -0.5067,-0.53333 -0.5067,-1.25334 0,-0.72 0.5067,-1.22666 0.5333,-0.53334 1.2534,-0.53334 0.72,0 1.2266,0.53334 0.5334,0.50666 0.5334,1.22666 0,0.72001 -0.5334,1.25334 -0.5066,0.50667 -1.2266,0.50667 z"
           id="path40464" />
        <path
           d="m -2902.1503,147.54154 q -1.9466,0 -3.4933,-0.96001 -1.5467,-0.98666 -2.4533,-2.64 -0.88,-1.68 -0.88,-3.78667 0,-2.10667 0.96,-3.78667 0.9866,-1.68 2.64,-2.64001 1.68,-0.98666 3.76,-0.98666 2.08,0 3.7333,0.98666 1.6533,0.96001 2.6133,2.64001 0.9867,1.68 0.9867,3.78667 h -1.04 q 0,2.10667 -0.9067,3.78667 -0.88,1.65334 -2.4266,2.64 -1.5467,0.96001 -3.4934,0.96001 z m 0.5334,-2.40001 q 1.36,0 2.4266,-0.64 1.0667,-0.66667 1.68,-1.78667 0.6134,-1.14667 0.6134,-2.56 0,-1.44 -0.6134,-2.56 -0.6133,-1.14667 -1.68,-1.78667 -1.0666,-0.66667 -2.4266,-0.66667 -1.3334,0 -2.4267,0.66667 -1.0667,0.64 -1.7067,1.78667 -0.6133,1.12 -0.6133,2.56 0,1.41333 0.6133,2.56 0.64,1.12 1.7067,1.78667 1.0933,0.64 2.4267,0.64 z m 5.9733,2.32 q -0.5867,0 -0.9867,-0.37333 -0.3733,-0.4 -0.3733,-0.98667 v -4.08 l 0.5067,-2.82667 2.2133,0.96 v 5.94667 q 0,0.58667 -0.4,0.98667 -0.3733,0.37333 -0.96,0.37333 z"
           id="path40466" />
        <path
           d="m -2886.7536,147.43487 q -1.1733,0 -2.08,-0.64 -0.9067,-0.64 -1.4133,-1.73334 -0.5067,-1.12 -0.5067,-2.56 v -14.56002 q 0,-0.58667 0.3733,-0.96 0.3734,-0.37333 0.96,-0.37333 0.5867,0 0.96,0.37333 0.3734,0.37333 0.3734,0.96 v 14.56002 q 0,0.98667 0.3733,1.62667 0.3733,0.64 0.96,0.64 h 0.6667 q 0.5333,0 0.8533,0.37333 0.3467,0.37334 0.3467,0.96 0,0.58667 -0.5067,0.96 -0.5067,0.37334 -1.3067,0.37334 z"
           id="path40468" />
        <path
           d="m -2872.7603,147.43487 q -0.5867,0 -0.9867,-0.4 -0.3733,-0.4 -0.3733,-0.98667 v -18.05336 q 0,-0.61333 0.3733,-0.98666 0.4,-0.4 0.9867,-0.4 0.64,0 1.0667,0.50666 l 11.6267,15.46669 v -14.58669 q 0,-0.61333 0.4,-0.98666 0.4,-0.4 0.9866,-0.4 0.6134,0 0.9867,0.4 0.3733,0.37333 0.3733,0.98666 v 18.05336 q 0,0.58667 -0.3733,0.98667 -0.3733,0.4 -0.9867,0.4 -0.2666,0 -0.5866,-0.10667 -0.2934,-0.13333 -0.48,-0.37333 l -11.6267,-15.46669 v 14.56002 q 0,0.58667 -0.4,0.98667 -0.3734,0.4 -0.9867,0.4 z"
           id="path40470" />
        <path
           d="m -2845.3903,147.54154 q -2.2133,0 -3.9466,-0.93334 -1.7067,-0.96 -2.6934,-2.61334 -0.96,-1.68 -0.96,-3.84 0,-2.18667 0.9067,-3.84001 0.9333,-1.68 2.56,-2.61333 1.6267,-0.96 3.7333,-0.96 2.08,0 3.5734,0.93333 1.4933,0.90667 2.2666,2.53334 0.8001,1.6 0.8001,3.70667 0,0.50667 -0.3467,0.85333 -0.3467,0.32 -0.88,0.32 h -10.7467 v -2.13333 h 10.6667 l -1.0934,0.74667 q -0.027,-1.33334 -0.5333,-2.37334 -0.5067,-1.06667 -1.44,-1.68 -0.9333,-0.61334 -2.2667,-0.61334 -1.52,0 -2.6133,0.66667 -1.0667,0.66667 -1.6267,1.84 -0.56,1.14667 -0.56,2.61334 0,1.46667 0.6667,2.61334 0.6667,1.14666 1.84,1.81333 1.1733,0.66667 2.6933,0.66667 0.8267,0 1.68,-0.29333 0.88,-0.32001 1.4134,-0.72001 0.4,-0.29333 0.8533,-0.29333 0.48,-0.0267 0.8267,0.26667 0.4533,0.4 0.48,0.88 0.027,0.48 -0.4267,0.82667 -0.9067,0.72 -2.2667,1.17333 -1.3333,0.45334 -2.56,0.45334 z"
           id="path40472" />
        <path
           d="m -2830.3669,147.43487 q -1.3333,0 -2.4,-0.66667 -1.0667,-0.69333 -1.68,-1.86667 -0.6133,-1.17333 -0.6133,-2.64 v -12.72002 q 0,-0.58667 0.3733,-0.96 0.3733,-0.37333 0.96,-0.37333 0.5867,0 0.96,0.37333 0.3733,0.37333 0.3733,0.96 v 12.72002 q 0,1.06667 0.5867,1.78667 0.5867,0.72 1.44,0.72 h 0.9067 q 0.48,0 0.8,0.37333 0.3466,0.37334 0.3466,0.96 0,0.58667 -0.4533,0.96 -0.4267,0.37334 -1.12,0.37334 z m -5.92,-11.76002 q -0.56,0 -0.9067,-0.32 -0.3466,-0.32 -0.3466,-0.8 0,-0.53333 0.3466,-0.85333 0.3467,-0.32 0.9067,-0.32 h 6.16 q 0.56,0 0.9067,0.32 0.3466,0.32 0.3466,0.85333 0,0.48 -0.3466,0.8 -0.3467,0.32 -0.9067,0.32 z"
           id="path40474" />
        <path
           d="m -2821.6102,147.43487 q -0.4267,0 -0.8001,-0.24 -0.3466,-0.26667 -0.48,-0.64 l -3.9466,-11.84002 q -0.2134,-0.82667 0,-1.33333 0.24,-0.53334 1.0133,-0.53334 0.5067,0 0.8267,0.29334 0.3466,0.26666 0.56,0.93333 l 3.36,10.50668 h -0.9333 l 3.1733,-10.72001 q 0.1333,-0.45334 0.4533,-0.72 0.32,-0.29334 0.88,-0.29334 0.5334,0 0.8534,0.29334 0.3466,0.26666 0.4533,0.72 l 2.5867,10.08001 h -0.4 l 3.1466,-9.86668 q 0.3734,-1.22667 1.3867,-1.22667 0.7467,0 1.0133,0.53334 0.2667,0.50666 -0.027,1.33333 l -3.9467,11.84002 q -0.1067,0.37333 -0.4533,0.64 -0.3467,0.24 -0.8,0.24 -0.4267,0 -0.8,-0.24 -0.3734,-0.26667 -0.48,-0.64 l -2.7467,-10.16002 h 0.2667 l -2.88,10.16002 q -0.1067,0.37333 -0.48,0.64 -0.3467,0.24 -0.8,0.24 z"
           id="path40476" />
        <path
           d="m -2799.4669,147.54154 q -2.16,0 -3.8133,-0.93334 -1.6534,-0.96 -2.6134,-2.61334 -0.9333,-1.68 -0.9333,-3.84 0,-2.18667 0.9333,-3.84001 0.96,-1.68 2.6134,-2.61333 1.6533,-0.96 3.8133,-0.96 2.1334,0 3.7867,0.96 1.6533,0.93333 2.5867,2.61333 0.96,1.65334 0.96,3.84001 0,2.16 -0.9334,3.84 -0.9333,1.65334 -2.5866,2.61334 -1.6534,0.93334 -3.8134,0.93334 z m 0,-2.40001 q 1.3867,0 2.4534,-0.64 1.0666,-0.64 1.6533,-1.76 0.6133,-1.12 0.6133,-2.58667 0,-1.46667 -0.6133,-2.58667 -0.5867,-1.14667 -1.6533,-1.78667 -1.0667,-0.64 -2.4534,-0.64 -1.3867,0 -2.4533,0.64 -1.0667,0.64 -1.68,1.78667 -0.6134,1.12 -0.6134,2.58667 0,1.46667 0.6134,2.58667 0.6133,1.12 1.68,1.76 1.0666,0.64 2.4533,0.64 z"
           id="path40478" />
        <path
           d="m -2786.7635,138.31486 q 0,-1.60001 0.7733,-2.85334 0.8,-1.28 2.1333,-2.02667 1.3334,-0.74667 2.9334,-0.74667 1.6,0 2.3733,0.53334 0.8,0.50666 0.6133,1.22667 -0.08,0.37333 -0.32,0.58666 -0.2133,0.18667 -0.5066,0.24 -0.2934,0.0533 -0.64,-0.0267 -1.7067,-0.34667 -3.0667,-0.0533 -1.36,0.29334 -2.16,1.09334 -0.7733,0.8 -0.7733,2.02667 z m 0.027,9.12001 q -0.64,0 -0.9866,-0.32 -0.3467,-0.34667 -0.3467,-1.01334 v -11.92001 q 0,-0.64 0.3467,-0.98667 0.3466,-0.34667 0.9866,-0.34667 0.6667,0 0.9867,0.34667 0.3467,0.32 0.3467,0.98667 v 11.92001 q 0,0.64 -0.3467,0.98667 -0.32,0.34667 -0.9867,0.34667 z"
           id="path40480" />
        <path
           d="m -2772.5402,142.10153 -1.6533,-1.81334 8.1866,-7.30667 q 0.4,-0.37334 0.88,-0.34667 0.5067,0.0267 0.8534,0.42667 0.3733,0.4 0.3466,0.88 -0.027,0.48 -0.4266,0.85333 z m -1.2533,5.33334 q -0.5867,0 -0.96,-0.34667 -0.3467,-0.37333 -0.3467,-0.96 v -18.21336 q 0,-0.58666 0.3467,-0.93333 0.3733,-0.37333 0.96,-0.37333 0.5866,0 0.9333,0.37333 0.3733,0.34667 0.3733,0.93333 v 18.21336 q 0,0.58667 -0.3733,0.96 -0.3467,0.34667 -0.9333,0.34667 z m 9.52,-0.13334 q -0.4267,0.34667 -0.96,0.29334 -0.5067,-0.0267 -0.8534,-0.45334 l -5.4133,-6.69334 1.8667,-1.76 5.5466,6.82668 q 0.3467,0.42666 0.2934,0.93333 -0.027,0.48 -0.48,0.85333 z"
           id="path40482" />
      </g>
      <g
         aria-label="Root"
         transform="matrix(0.24660037,0,0,0.24660037,-333.34492,519.83797)"
         id="flowRoot23460-8-7-1-3-6-9-8-4-3-9"
         style="font-weight:bold;font-size:40.0558px;line-height:1.25;font-family:Comfortaa;-inkscape-font-specification:'Comfortaa Bold';text-align:end;letter-spacing:0.01px;word-spacing:0px;text-anchor:end;fill:#4e554f">
        <path
           d="m 19.687638,504.67598 q -0.881228,0 -1.482065,-0.60084 -0.600837,-0.60084 -0.600837,-1.48206 V 475.4753 q 0,-0.92128 0.600837,-1.48207 0.600837,-0.60083 1.482065,-0.60083 h 7.210044 q 3.004185,0 5.327422,1.28178 2.323236,1.24173 3.605022,3.4448 1.321841,2.20307 1.321841,5.12714 0,2.7238 -1.321841,4.84676 -1.281786,2.12295 -3.605022,3.32463 -2.323237,1.20167 -5.327422,1.20167 H 21.77054 v 9.9739 q 0,0.88122 -0.600837,1.48206 -0.560782,0.60084 -1.482065,0.60084 z m 16.623158,0 q -0.560782,0 -1.041451,-0.24034 -0.440614,-0.24033 -0.761061,-0.76106 l -7.210044,-11.61618 4.045636,-1.16162 6.569152,10.57473 q 0.721004,1.16162 0.200279,2.20307 -0.520726,1.0014 -1.802511,1.0014 z M 21.77054,488.77383 h 5.127142 q 1.842567,0 3.24452,-0.68095 1.401953,-0.72101 2.203069,-1.96274 0.801116,-1.28178 0.801116,-2.88402 0,-1.76245 -0.801116,-3.12435 -0.801116,-1.3619 -2.203069,-2.12296 -1.401953,-0.76106 -3.24452,-0.76106 H 21.77054 Z"
           id="path40485" />
        <path
           d="m 52.463283,504.8362 q -3.24452,0 -5.72798,-1.40195 -2.483459,-1.44201 -3.925468,-3.92547 -1.401953,-2.52352 -1.401953,-5.76804 0,-3.28457 1.401953,-5.76803 1.442009,-2.52352 3.925468,-3.92547 2.48346,-1.44201 5.72798,-1.44201 3.204464,0 5.687924,1.44201 2.483459,1.40195 3.885412,3.92547 1.442009,2.48346 1.442009,5.76803 0,3.24452 -1.401953,5.76804 -1.401953,2.48346 -3.885412,3.92547 -2.48346,1.40195 -5.72798,1.40195 z m 0,-3.60502 q 2.082902,0 3.685134,-0.96134 1.602232,-0.96134 2.483459,-2.64368 0.921284,-1.68235 0.921284,-3.88542 0,-2.20306 -0.921284,-3.88541 -0.881227,-1.7224 -2.483459,-2.68374 -1.602232,-0.96134 -3.685134,-0.96134 -2.082902,0 -3.685134,0.96134 -1.602232,0.96134 -2.523515,2.68374 -0.921284,1.68235 -0.921284,3.88541 0,2.20307 0.921284,3.88542 0.921283,1.68234 2.523515,2.64368 1.602232,0.96134 3.685134,0.96134 z"
           id="path40487" />
        <path
           d="m 79.510919,504.8362 q -3.24452,0 -5.72798,-1.40195 -2.483459,-1.44201 -3.925468,-3.92547 -1.401953,-2.52352 -1.401953,-5.76804 0,-3.28457 1.401953,-5.76803 1.442009,-2.52352 3.925468,-3.92547 2.48346,-1.44201 5.72798,-1.44201 3.204464,0 5.687924,1.44201 2.483459,1.40195 3.885412,3.92547 1.442009,2.48346 1.442009,5.76803 0,3.24452 -1.401953,5.76804 -1.401953,2.48346 -3.885412,3.92547 -2.48346,1.40195 -5.72798,1.40195 z m 0,-3.60502 q 2.082902,0 3.685134,-0.96134 1.602232,-0.96134 2.483459,-2.64368 0.921284,-1.68235 0.921284,-3.88542 0,-2.20306 -0.921284,-3.88541 -0.881227,-1.7224 -2.483459,-2.68374 -1.602232,-0.96134 -3.685134,-0.96134 -2.082902,0 -3.685134,0.96134 -1.602232,0.96134 -2.523515,2.68374 -0.921284,1.68235 -0.921284,3.88541 0,2.20307 0.921284,3.88542 0.921283,1.68234 2.523515,2.64368 1.602232,0.96134 3.685134,0.96134 z"
           id="path40489" />
        <path
           d="m 104.59582,504.67598 q -2.00279,0 -3.60502,-1.0014 -1.602232,-1.04145 -2.523515,-2.8039 -0.921283,-1.76246 -0.921283,-3.96553 v -19.10661 q 0,-0.88123 0.560781,-1.44201 0.560781,-0.56078 1.442009,-0.56078 0.881228,0 1.442008,0.56078 0.56078,0.56078 0.56078,1.44201 v 19.10661 q 0,1.60223 0.88123,2.68374 0.88123,1.08151 2.16301,1.08151 h 1.3619 q 0.721,0 1.20167,0.56078 0.52073,0.56078 0.52073,1.44201 0,0.88123 -0.68095,1.44201 -0.64089,0.56078 -1.68234,0.56078 z m -8.892385,-17.66461 q -0.841172,0 -1.361898,-0.48067 -0.520725,-0.48067 -0.520725,-1.20167 0,-0.80112 0.520725,-1.28179 0.520726,-0.48067 1.361898,-0.48067 h 9.252885 q 0.84118,0 1.3619,0.48067 0.52073,0.48067 0.52073,1.28179 0,0.721 -0.52073,1.20167 -0.52072,0.48067 -1.3619,0.48067 z"
           id="path40491" />
      </g>
    </g>
  </g>
</svg>
