<?xml version="1.0" encoding="UTF-8" standalone="no"?>
<!-- Created with Inkscape (http://www.inkscape.org/) -->

<svg
   width="28"
   height="28"
   viewBox="0 0 7.4083331 7.4083333"
   version="1.1"
   id="svg401"
   inkscape:version="1.2.1 (9c6d41e410, 2022-07-14)"
   sodipodi:docname="minilogo.svg"
   xmlns:inkscape="http://www.inkscape.org/namespaces/inkscape"
   xmlns:sodipodi="http://sodipodi.sourceforge.net/DTD/sodipodi-0.dtd"
   xmlns="http://www.w3.org/2000/svg"
   xmlns:svg="http://www.w3.org/2000/svg">
  <sodipodi:namedview
     id="namedview403"
     pagecolor="#ffffff"
     bordercolor="#666666"
     borderopacity="1.0"
     inkscape:showpageshadow="2"
     inkscape:pageopacity="0.0"
     inkscape:pagecheckerboard="0"
     inkscape:deskcolor="#d1d1d1"
     inkscape:document-units="mm"
     showgrid="false"
     inkscape:zoom="21.314219"
     inkscape:cx="16.585173"
     inkscape:cy="12.761434"
     inkscape:window-width="1920"
     inkscape:window-height="1017"
     inkscape:window-x="-8"
     inkscape:window-y="-8"
     inkscape:window-maximized="1"
     inkscape:current-layer="g24137-6-3-4-9" />
  <defs
     id="defs398" />
  <g
     inkscape:label="Capa 1"
     inkscape:groupmode="layer"
     id="layer1">
    <g
       style="display:inline;stroke:none"
       transform="matrix(0.27734865,0,0,0.27734865,20.342011,-23.000346)"
       id="g24137-6-3-4-9"
       inkscape:label="logo">
      <path
         id="alumno"
         style="opacity:1;fill:#ba2d0b;stroke-width:0.0849535;stroke-opacity:0"
         d="m -56.955334,96.318573 a 3,3 0 0 1 -3,3 3,3 0 0 1 -3,-3 3,3 0 0 1 3,-3 3,3 0 0 1 3,3 z"
         inkscape:label="alumno" />
      <path
         inkscape:connector-curvature="0"
         id="moradoD"
         d="m -67.580157,102.13608 c -0.163635,-0.38493 -0.875524,-0.99132 -1.202427,-1.76127 -0.326904,-0.769946 -0.268915,-1.703407 -0.210942,-2.636592 0.05797,-0.933185 0.115978,-1.866865 -0.595625,-2.473039 -0.711602,-0.606174 -2.193897,-0.885721 -2.882073,-0.366429 -0.688176,0.519293 -0.582689,1.837512 -0.284701,3.074246 0.297987,1.236734 0.788301,2.391264 1.582084,3.190284 0.793783,0.79902 1.890391,1.24185 2.631387,1.38152 0.740996,0.13967 1.125931,-0.0238 0.962297,-0.40872 z"
         style="fill:#6053cc;fill-opacity:0.866667;stroke:none;stroke-width:0.250927px;stroke-linecap:butt;stroke-linejoin:miter;stroke-opacity:1"
         inkscape:label="moradoD" />
      <path
         inkscape:connector-curvature="0"
         id="olivaD"
         d="m -69.266717,95.118853 c -0.0373,-0.466136 -0.111899,-1.398306 0.201381,-2.173898 0.31328,-0.775592 1.014342,-1.394642 1.715194,-2.013507 0.700851,-0.618865 1.402084,-1.238066 1.327533,-2.169873 -0.07455,-0.931808 -0.925026,-2.177621 -1.778834,-2.29704 -0.853809,-0.119419 -1.711341,0.887294 -2.375134,1.972505 -0.663794,1.085212 -1.133466,2.248295 -1.137169,3.374577 -0.0037,1.126282 0.458587,2.214833 0.883787,2.837557 0.425201,0.622724 0.812987,0.779316 1.006767,0.857566 0.193779,0.07825 0.193777,0.07825 0.156475,-0.387887 z"
         style="fill:#aaa95a;fill-opacity:0.866667;stroke:none;stroke-width:0.250927px;stroke-linecap:butt;stroke-linejoin:miter;stroke-opacity:1"
         inkscape:label="olivaD" />
      <path
         inkscape:connector-curvature="0"
         id="verdeD"
         d="m -65.691148,88.886101 c 0.303234,-0.355988 0.909628,-1.067878 1.679576,-1.394781 0.769948,-0.326903 1.703406,-0.268913 2.636588,-0.21094 0.933182,0.05797 1.866866,0.115977 2.473041,-0.595624 0.606174,-0.711601 0.885719,-2.1939 0.366427,-2.882076 -0.519292,-0.688176 -1.837514,-0.582688 -3.074244,-0.284701 -1.23673,0.297986 -2.391261,0.788301 -3.190283,1.582085 -0.799022,0.793783 -1.241857,1.890391 -1.381526,2.631386 -0.13967,0.740995 0.02381,1.125927 0.105498,1.318283 0.08169,0.192357 0.08169,0.192357 0.384923,-0.163632 z"
         style="display:inline;fill:#378659;fill-opacity:0.866667;stroke:none;stroke-width:0.250927px;stroke-linecap:butt;stroke-linejoin:miter;stroke-opacity:1"
         inkscape:label="verdeD" />
      <path
         inkscape:connector-curvature="0"
         id="amarilloD"
         d="m -58.755615,87.007187 c 0.466143,-0.0373 1.398304,-0.111899 2.173897,0.201382 0.775593,0.313282 1.394642,1.014341 2.013507,1.715192 0.618865,0.700851 1.23807,1.402084 2.169876,1.327535 0.931806,-0.07455 2.177614,-0.925022 2.297036,-1.778829 0.119421,-0.853808 -0.887297,-1.711343 -1.972505,-2.375134 -1.085208,-0.663791 -2.24829,-1.133464 -3.374573,-1.137168 -1.126284,-0.0037 -2.214831,0.458585 -2.837556,0.883785 -0.622725,0.425199 -0.77932,0.812988 -0.85757,1.006764 -0.07825,0.193776 -0.07825,0.193776 0.387888,0.156473 z"
         style="fill:#ffb800;fill-opacity:0.866667;stroke:none;stroke-width:0.250927px;stroke-linecap:butt;stroke-linejoin:miter;stroke-opacity:1"
         inkscape:label="amarilloD" />
      <path
         inkscape:connector-curvature="0"
         id="naranjaD"
         d="m -52.330509,90.501072 c 0.163634,0.384925 0.875518,0.991314 1.202424,1.761264 0.326906,0.76995 0.268916,1.703411 0.210944,2.636591 -0.05797,0.93318 -0.115979,1.86687 0.595624,2.473042 0.711602,0.606172 2.193897,0.885716 2.882073,0.366422 0.688176,-0.519294 0.582689,-1.837513 0.284703,-3.074243 -0.297985,-1.236729 -0.788302,-2.391266 -1.582085,-3.190286 -0.793783,-0.799019 -1.890392,-1.241853 -2.631388,-1.381523 -0.740995,-0.13967 -1.125929,0.02381 -0.962295,0.408733 z"
         style="display:inline;fill:#ff5614;fill-opacity:0.866667;stroke:none;stroke-width:0.250927px;stroke-linecap:butt;stroke-linejoin:miter;stroke-opacity:1"
         inkscape:label="naranjaD" />
      <path
         inkscape:connector-curvature="0"
         id="cyanD"
         d="m -50.643951,97.518292 c 0.0373,0.466141 0.111899,1.398311 -0.201381,2.173903 -0.31328,0.775595 -1.014337,1.394635 -1.715191,2.013505 -0.700855,0.61887 -1.402086,1.23807 -1.327536,2.16987 0.07455,0.93181 0.925025,2.17763 1.778834,2.29705 0.853808,0.11941 1.711341,-0.8873 2.375134,-1.97251 0.663794,-1.08521 1.133467,-2.24829 1.137169,-3.37458 0.0037,-1.126279 -0.458587,-2.214831 -0.883787,-2.837554 -0.425201,-0.622724 -0.812987,-0.779316 -1.006767,-0.857566 -0.193779,-0.07825 -0.193778,-0.07826 -0.156475,0.387882 z"
         style="display:inline;fill:#177e89;fill-opacity:0.866667;stroke:none;stroke-width:0.250927px;stroke-linecap:butt;stroke-linejoin:miter;stroke-opacity:1"
         inkscape:label="cyanD" />
      <path
         inkscape:connector-curvature="0"
         id="rojoD"
         d="m -54.219524,103.75105 c -0.303235,0.35599 -0.909624,1.06787 -1.679575,1.39478 -0.76995,0.3269 -1.70341,0.26891 -2.636592,0.21094 -0.933181,-0.058 -1.866865,-0.11598 -2.473039,0.59562 -0.606174,0.71161 -0.885719,2.1939 -0.366428,2.88208 0.519291,0.68817 1.837514,0.58269 3.074246,0.2847 1.236731,-0.29799 2.391261,-0.7883 3.190282,-1.58208 0.799022,-0.79379 1.241855,-1.8904 1.381525,-2.63139 0.13967,-0.741 -0.02381,-1.12594 -0.105498,-1.31829 -0.08169,-0.19235 -0.08169,-0.19235 -0.384921,0.16364 z"
         style="display:inline;fill:#d7263c;fill-opacity:0.866667;stroke:none;stroke-width:0.250927px;stroke-linecap:butt;stroke-linejoin:miter;stroke-opacity:1"
         inkscape:label="rojoD" />
      <path
         inkscape:connector-curvature="0"
         id="azulD"
         d="m -61.155061,105.62996 c -0.466142,0.0373 -1.398303,0.1119 -2.173894,-0.20138 -0.775591,-0.31328 -1.394642,-1.01434 -2.01351,-1.71519 -0.618868,-0.70086 -1.238065,-1.40209 -2.169874,-1.32754 -0.931809,0.0746 -2.177617,0.92502 -2.297038,1.77883 -0.11942,0.85381 0.887299,1.71135 1.972506,2.37514 1.085208,0.66379 2.24829,1.13346 3.374573,1.13717 1.126283,0.004 2.214831,-0.45859 2.837555,-0.88379 0.622725,-0.4252 0.779319,-0.81299 0.85757,-1.00677 0.07825,-0.19378 0.07825,-0.19377 -0.387888,-0.15647 z"
         style="fill:#0d3b65;fill-opacity:0.866667;stroke:none;stroke-width:0.250927px;stroke-linecap:butt;stroke-linejoin:miter;stroke-opacity:1"
         inkscape:label="azulD" />
      <path
         inkscape:connector-curvature="0"
         id="moradoI"
         d="m -67.580158,90.501072 c -0.163634,0.384925 -0.875518,0.991314 -1.202424,1.761264 -0.326906,0.76995 -0.268916,1.703411 -0.210944,2.636591 0.05797,0.93318 0.115978,1.86687 -0.595624,2.473042 -0.711602,0.606172 -2.193897,0.885716 -2.882073,0.366422 -0.688177,-0.519294 -0.58269,-1.837513 -0.284704,-3.074243 0.297986,-1.23673 0.788303,-2.391266 1.582086,-3.190286 0.793783,-0.799019 1.890391,-1.241853 2.631387,-1.381523 0.740995,-0.13967 1.125929,0.02381 0.962296,0.408733 z"
         style="display:inline;fill:#6053cc;fill-opacity:0.866667;stroke:none;stroke-width:0.250927px;stroke-linecap:butt;stroke-linejoin:miter;stroke-opacity:1"
         inkscape:label="moradoI" />
      <path
         inkscape:connector-curvature="0"
         id="olivaI"
         d="m -61.155057,87.007187 c -0.466142,-0.0373 -1.398303,-0.111899 -2.173895,0.201382 -0.775593,0.313282 -1.394642,1.014341 -2.01351,1.715195 -0.618867,0.700853 -1.238067,1.402082 -2.169872,1.327532 -0.931806,-0.07455 -2.177616,-0.925022 -2.297037,-1.77883 -0.119421,-0.853807 0.887297,-1.711342 1.972505,-2.375133 1.085208,-0.663791 2.24829,-1.133465 3.374573,-1.137168 1.126283,-0.0037 2.21483,0.458585 2.837555,0.883785 0.622725,0.4252 0.77932,0.812988 0.85757,1.006764 0.07825,0.193776 0.07825,0.193776 -0.387889,0.156473 z"
         style="display:inline;fill:#aaa95a;fill-opacity:0.866667;stroke:none;stroke-width:0.250927px;stroke-linecap:butt;stroke-linejoin:miter;stroke-opacity:1"
         inkscape:label="olivaI" />
      <path
         inkscape:connector-curvature="0"
         id="verdeI"
         d="m -54.219524,88.886101 c -0.303235,-0.355988 -0.909629,-1.067878 -1.679577,-1.394781 -0.769948,-0.326903 -1.703407,-0.268913 -2.636589,-0.21094 -0.933182,0.05797 -1.866865,0.115977 -2.473039,-0.595624 -0.606174,-0.711601 -0.885719,-2.1939 -0.366428,-2.882076 0.519291,-0.688177 1.837514,-0.582688 3.074243,-0.284702 1.23673,0.297987 2.391263,0.788302 3.190285,1.582085 0.799022,0.793784 1.241857,1.890391 1.381526,2.631386 0.139669,0.740995 -0.02381,1.125927 -0.105499,1.318284 -0.08169,0.192357 -0.08169,0.192357 -0.384922,-0.163632 z"
         style="fill:#388659;fill-opacity:0.866667;stroke:none;stroke-width:0.250927px;stroke-linecap:butt;stroke-linejoin:miter;stroke-opacity:1"
         inkscape:label="verdeI" />
      <path
         inkscape:connector-curvature="0"
         id="amarilloI"
         d="m -50.643952,95.118853 c 0.0373,-0.466136 0.111899,-1.398306 -0.201382,-2.173898 -0.313281,-0.775593 -1.014342,-1.394642 -1.715194,-2.013507 -0.700851,-0.618865 -1.402084,-1.238066 -1.327533,-2.169874 0.07455,-0.931808 0.925025,-2.17762 1.778833,-2.297039 0.853809,-0.119418 1.711341,0.887294 2.375135,1.972506 0.663794,1.085211 1.133463,2.248285 1.137167,3.374571 0.0037,1.126287 -0.458584,2.214839 -0.883785,2.837563 -0.425202,0.622724 -0.812987,0.779315 -1.006766,0.857565 -0.193779,0.07825 -0.193778,0.07825 -0.156475,-0.387887 z"
         style="fill:#ffb800;fill-opacity:0.866667;stroke:none;stroke-width:0.250927px;stroke-linecap:butt;stroke-linejoin:miter;stroke-opacity:1"
         inkscape:label="amarilloI" />
      <path
         inkscape:connector-curvature="0"
         id="naranjaI"
         d="m -52.33051,102.13608 c 0.163635,-0.38493 0.875524,-0.99132 1.202427,-1.76127 0.326904,-0.769946 0.268915,-1.703407 0.210942,-2.636592 -0.05797,-0.933185 -0.115978,-1.866865 0.595624,-2.473039 0.711603,-0.606174 2.193898,-0.885721 2.882073,-0.366429 0.688176,0.519293 0.582689,1.837512 0.284702,3.074246 -0.297988,1.236734 -0.788301,2.391264 -1.582084,3.190284 -0.793783,0.79902 -1.890392,1.24185 -2.631388,1.38152 -0.740996,0.13967 -1.125931,-0.0238 -0.962296,-0.40872 z"
         style="fill:#ff5614;fill-opacity:0.866667;stroke:none;stroke-width:0.250927px;stroke-linecap:butt;stroke-linejoin:miter;stroke-opacity:1"
         inkscape:label="naranjaI" />
      <path
         inkscape:connector-curvature="0"
         id="cyanI"
         d="m -58.755612,105.62996 c 0.466143,0.0373 1.398302,0.1119 2.173895,-0.20138 0.775593,-0.31328 1.394643,-1.01434 2.013509,-1.71519 0.618867,-0.70086 1.238065,-1.40209 2.169874,-1.32754 0.931809,0.0746 2.177617,0.92502 2.297037,1.77883 0.119421,0.85381 -0.887298,1.71135 -1.972506,2.37514 -1.085208,0.66379 -2.248289,1.13346 -3.374572,1.13717 -1.126283,0.004 -2.214832,-0.45859 -2.837557,-0.88379 -0.622724,-0.4252 -0.779318,-0.81299 -0.857569,-1.00677 -0.07825,-0.19378 -0.07825,-0.19377 0.387889,-0.15647 z"
         style="display:inline;fill:#177e89;fill-opacity:0.866667;stroke:none;stroke-width:0.25238991;stroke-linecap:butt;stroke-linejoin:miter;stroke-opacity:1;stroke-dasharray:none"
         inkscape:label="cyanI" />
      <path
         inkscape:connector-curvature="0"
         id="rojoI"
         d="m -65.691148,103.75105 c 0.303234,0.35599 0.909623,1.06787 1.679574,1.39478 0.76995,0.3269 1.703409,0.26891 2.636591,0.21094 0.933181,-0.058 1.866866,-0.11598 2.47304,0.59562 0.606175,0.71161 0.88572,2.1939 0.366428,2.88208 -0.519292,0.68817 -1.837514,0.58269 -3.074246,0.2847 -1.236732,-0.29799 -2.39126,-0.7883 -3.190282,-1.58208 -0.799021,-0.79379 -1.241855,-1.8904 -1.381525,-2.63139 -0.13967,-0.741 0.02381,-1.12594 0.105498,-1.31829 0.08169,-0.19235 0.08169,-0.19235 0.384922,0.16364 z"
         style="fill:#d7263c;fill-opacity:0.866667;stroke:none;stroke-width:0.250927px;stroke-linecap:butt;stroke-linejoin:miter;stroke-opacity:1"
         inkscape:label="rojoI" />
      <path
         inkscape:connector-curvature="0"
         id="azulI"
         d="m -69.266722,97.518292 c -0.0373,0.466141 -0.111899,1.398311 0.201381,2.173903 0.313281,0.775595 1.014338,1.394635 1.715192,2.013505 0.700854,0.61887 1.402081,1.23806 1.327533,2.16987 -0.07455,0.93181 -0.925018,2.17762 -1.778829,2.29704 -0.85381,0.11942 -1.71134,-0.88729 -2.375134,-1.9725 -0.663794,-1.08521 -1.133468,-2.24829 -1.137171,-3.37458 -0.0037,-1.126279 0.458586,-2.21483 0.883786,-2.837554 0.425201,-0.622724 0.812988,-0.779316 1.006767,-0.857566 0.193779,-0.07825 0.193778,-0.07826 0.156475,0.387882 z"
         style="display:inline;fill:#0d3b65;fill-opacity:0.866667;stroke:none;stroke-width:0.250927px;stroke-linecap:butt;stroke-linejoin:miter;stroke-opacity:1"
         inkscape:label="azulI" />
    </g>
  </g>
</svg>
