<?xml version="1.0" encoding="UTF-8" standalone="no"?>
<!-- Created with Inkscape (http://www.inkscape.org/) -->

<svg
   width="20"
   height="20"
   viewBox="0 0 5.2916665 5.2916667"
   version="1.1"
   id="svg23433"
   sodipodi:docname="trama.svg"
   inkscape:version="1.2.1 (9c6d41e410, 2022-07-14)"
   xmlns:inkscape="http://www.inkscape.org/namespaces/inkscape"
   xmlns:sodipodi="http://sodipodi.sourceforge.net/DTD/sodipodi-0.dtd"
   xmlns="http://www.w3.org/2000/svg"
   xmlns:svg="http://www.w3.org/2000/svg">
  <sodipodi:namedview
     id="namedview23435"
     pagecolor="#ffffff"
     bordercolor="#666666"
     borderopacity="1.0"
     inkscape:showpageshadow="2"
     inkscape:pageopacity="0.0"
     inkscape:pagecheckerboard="0"
     inkscape:deskcolor="#d1d1d1"
     inkscape:document-units="mm"
     showgrid="false"
     inkscape:zoom="6.29"
     inkscape:cx="79.809221"
     inkscape:cy="31.63752"
     inkscape:window-width="1920"
     inkscape:window-height="1017"
     inkscape:window-x="-8"
     inkscape:window-y="-8"
     inkscape:window-maximized="1"
     inkscape:current-layer="layer1" />
  <defs
     id="defs23430">
    <inkscape:path-effect
       effect="bspline"
       id="path-effect19703-0-7-62-2-5-7-3-7-8-0-9"
       is_visible="true"
       weight="33.333333"
       steps="2"
       helper_size="0"
       apply_no_weight="true"
       apply_with_weight="true"
       only_selected="false"
       lpeversion="0" />
    <inkscape:path-effect
       effect="bspline"
       id="path-effect19703-0-7-62-2-5-7-4-1-6-0-7-3-0"
       is_visible="true"
       weight="33.333333"
       steps="2"
       helper_size="0"
       apply_no_weight="true"
       apply_with_weight="true"
       only_selected="false"
       lpeversion="0" />
    <inkscape:path-effect
       effect="bspline"
       id="path-effect19703-0-7-62-2-5-7-2-0-3-6-8-4"
       is_visible="true"
       weight="33.333333"
       steps="2"
       helper_size="0"
       apply_no_weight="true"
       apply_with_weight="true"
       only_selected="false"
       lpeversion="0" />
    <inkscape:path-effect
       effect="bspline"
       id="path-effect19703-0-7-62-2-5-7-4-1-1-4-4-3-1-0"
       is_visible="true"
       weight="33.333333"
       steps="2"
       helper_size="0"
       apply_no_weight="true"
       apply_with_weight="true"
       only_selected="false"
       lpeversion="0" />
    <inkscape:path-effect
       effect="bspline"
       id="path-effect19703-0-7-62-2-5-7-70-7-6-5-2-6"
       is_visible="true"
       weight="33.333333"
       steps="2"
       helper_size="0"
       apply_no_weight="true"
       apply_with_weight="true"
       only_selected="false"
       lpeversion="0" />
    <inkscape:path-effect
       effect="bspline"
       id="path-effect19703-0-7-62-2-5-7-4-4-9-3-0-1-1"
       is_visible="true"
       weight="33.333333"
       steps="2"
       helper_size="0"
       apply_no_weight="true"
       apply_with_weight="true"
       only_selected="false"
       lpeversion="0" />
    <inkscape:path-effect
       effect="bspline"
       id="path-effect19703-0-7-62-2-5-7-7-0-7-6-8-6-8"
       is_visible="true"
       weight="33.333333"
       steps="2"
       helper_size="0"
       apply_no_weight="true"
       apply_with_weight="true"
       only_selected="false"
       lpeversion="0" />
    <inkscape:path-effect
       effect="bspline"
       id="path-effect19703-0-7-62-2-5-7-4-1-8-3-3-0-9-5"
       is_visible="true"
       weight="33.333333"
       steps="2"
       helper_size="0"
       apply_no_weight="true"
       apply_with_weight="true"
       only_selected="false"
       lpeversion="0" />
    <inkscape:path-effect
       effect="bspline"
       id="path-effect19703-0-7-62-2-5-7-2-5-6-3-4-0-0"
       is_visible="true"
       weight="33.333333"
       steps="2"
       helper_size="0"
       apply_no_weight="true"
       apply_with_weight="true"
       only_selected="false"
       lpeversion="0" />
    <inkscape:path-effect
       effect="bspline"
       id="path-effect19703-0-7-62-2-5-7-7-5-6-6-4-1-5-3"
       is_visible="true"
       weight="33.333333"
       steps="2"
       helper_size="0"
       apply_no_weight="true"
       apply_with_weight="true"
       only_selected="false"
       lpeversion="0" />
    <inkscape:path-effect
       effect="bspline"
       id="path-effect19703-0-7-62-2-5-7-4-1-1-6-5-4-1-5-4"
       is_visible="true"
       weight="33.333333"
       steps="2"
       helper_size="0"
       apply_no_weight="true"
       apply_with_weight="true"
       only_selected="false"
       lpeversion="0" />
    <inkscape:path-effect
       effect="bspline"
       id="path-effect19703-0-7-62-2-5-7-7-5-9-3-3-6-2"
       is_visible="true"
       weight="33.333333"
       steps="2"
       helper_size="0"
       apply_no_weight="true"
       apply_with_weight="true"
       only_selected="false"
       lpeversion="0" />
    <inkscape:path-effect
       effect="bspline"
       id="path-effect19703-0-7-62-2-5-7-4-17-1-4-9-5-6-2"
       is_visible="true"
       weight="33.333333"
       steps="2"
       helper_size="0"
       apply_no_weight="true"
       apply_with_weight="true"
       only_selected="false"
       lpeversion="0" />
    <inkscape:path-effect
       effect="bspline"
       id="path-effect19703-0-7-62-2-5-7-4-5-7-9-64-0"
       is_visible="true"
       weight="33.333333"
       steps="2"
       helper_size="0"
       apply_no_weight="true"
       apply_with_weight="true"
       only_selected="false"
       lpeversion="0" />
    <inkscape:path-effect
       effect="bspline"
       id="path-effect19703-0-7-62-2-5-7-4-17-17-2-3-3-7"
       is_visible="true"
       weight="33.333333"
       steps="2"
       helper_size="0"
       apply_no_weight="true"
       apply_with_weight="true"
       only_selected="false"
       lpeversion="0" />
    <inkscape:path-effect
       effect="bspline"
       id="path-effect19703-0-7-62-2-5-7-7-08-5-4-85-9"
       is_visible="true"
       weight="33.333333"
       steps="2"
       helper_size="0"
       apply_no_weight="true"
       apply_with_weight="true"
       only_selected="false"
       lpeversion="0" />
  </defs>
  <g
     inkscape:label="Capa 1"
     inkscape:groupmode="layer"
     id="layer1">
    <g
       id="g23201-1-4"
       transform="matrix(0.20110221,0,0,0.20110221,10.62211,-23.257596)"
       style="stroke:#d5dcd6;stroke-opacity:1">
      <path
         inkscape:original-d="m -32.586317,122.76824 c 0.71176,0.60672 1.423644,1.21311 2.135668,1.81918 -0.0581,0.93357 -0.116093,1.86703 -0.173947,2.80005 -0.05809,0.93334 -0.116097,1.86703 -0.173953,2.80005 1.481104,0.27967 2.9634,0.55921 4.445288,0.83833 -0.10563,-1.31803 -0.211115,-2.63625 -0.316477,-3.95486 -0.490693,-1.15476 -0.981001,-2.3093 -1.471298,-3.46443 -1.097171,-0.44268 -2.193782,-0.88551 -3.290468,-1.32876 -0.385077,0.1638 -0.77001,0.32728 -1.154813,0.49044 z"
         inkscape:path-effect="#path-effect19703-0-7-62-2-5-7-3-7-8-0-9"
         inkscape:connector-curvature="0"
         id="path19701-46-0-0-6-8-7-94-9-5-3-0"
         d="m -32.037975,122.98978 c 0.163634,0.38493 0.875518,0.99132 1.202424,1.76127 0.326906,0.76995 0.268916,1.70341 0.210944,2.63659 -0.05797,0.93318 -0.115979,1.86687 0.595624,2.47304 0.711602,0.60617 2.193897,0.88571 2.882073,0.36642 0.688176,-0.51929 0.582689,-1.83751 0.284703,-3.07424 -0.297985,-1.23673 -0.788302,-2.39127 -1.582085,-3.19029 -0.793783,-0.79902 -1.890392,-1.24185 -2.631388,-1.38152 -0.740995,-0.13967 -1.125929,0.0238 -0.962295,0.40873 z"
         style="fill:none;fill-opacity:0.866667;stroke:#d5dcd6;stroke-width:0.250927px;stroke-linecap:butt;stroke-linejoin:miter;stroke-opacity:1" />
      <path
         inkscape:original-d="m -46.739282,134.84633 c -0.71176,-0.60672 -1.423644,-1.21312 -2.135668,-1.81918 0.0581,-0.93357 0.116092,-1.86703 0.173947,-2.80006 0.05809,-0.93334 0.116097,-1.86702 0.173952,-2.80004 -1.481103,-0.27968 -2.963399,-0.55922 -4.445287,-0.83834 0.105629,1.31803 0.211115,2.63625 0.316476,3.95486 0.490694,1.15477 0.981002,2.3093 1.471299,3.46443 1.097171,0.44268 2.193781,0.88551 3.290467,1.32876 0.385077,-0.1638 0.77001,-0.32728 1.154814,-0.49043 z"
         inkscape:path-effect="#path-effect19703-0-7-62-2-5-7-4-1-6-0-7-3-0"
         inkscape:connector-curvature="0"
         id="path19701-46-0-0-6-8-7-3-0-4-0-0-5-0"
         d="m -47.287623,134.62479 c -0.163635,-0.38493 -0.875524,-0.99132 -1.202427,-1.76127 -0.326904,-0.76995 -0.268915,-1.70341 -0.210942,-2.63659 0.05797,-0.93319 0.115978,-1.86687 -0.595625,-2.47304 -0.711602,-0.60617 -2.193897,-0.88572 -2.882073,-0.36643 -0.688176,0.51929 -0.582689,1.83751 -0.284701,3.07425 0.297987,1.23673 0.788301,2.39126 1.582084,3.19028 0.793783,0.79902 1.890391,1.24185 2.631387,1.38152 0.740996,0.13967 1.125931,-0.0238 0.962297,-0.40872 z"
         style="fill:none;fill-opacity:0.866667;stroke:#d5dcd6;stroke-width:0.250927px;stroke-linecap:butt;stroke-linejoin:miter;stroke-opacity:1" />
      <path
         inkscape:original-d="m -33.623756,135.88377 c -0.606724,0.71176 -1.213118,1.42364 -1.819183,2.13567 -0.93357,-0.0581 -1.867029,-0.1161 -2.800052,-0.17395 -0.93334,-0.0581 -1.867024,-0.1161 -2.800047,-0.17395 -0.279676,1.4811 -0.559213,2.9634 -0.838332,4.44528 1.318025,-0.10562 2.636248,-0.21111 3.954858,-0.31647 1.154762,-0.4907 2.309297,-0.981 3.464432,-1.4713 0.442677,-1.09717 0.885506,-2.19378 1.32876,-3.29047 -0.163802,-0.38508 -0.327283,-0.77001 -0.49044,-1.15481 z"
         inkscape:path-effect="#path-effect19703-0-7-62-2-5-7-2-0-3-6-8-4"
         inkscape:connector-curvature="0"
         id="path19701-46-0-0-6-8-7-1-1-2-8-1-9"
         d="m -33.92699,136.23976 c -0.303235,0.35599 -0.909624,1.06787 -1.679575,1.39478 -0.76995,0.3269 -1.70341,0.26891 -2.636592,0.21094 -0.933181,-0.058 -1.866865,-0.11598 -2.473039,0.59562 -0.606174,0.7116 -0.885719,2.1939 -0.366428,2.88208 0.519291,0.68817 1.837514,0.58268 3.074246,0.2847 1.236731,-0.29799 2.391261,-0.7883 3.190282,-1.58208 0.799022,-0.79379 1.241855,-1.8904 1.381525,-2.63139 0.13967,-0.741 -0.02381,-1.12594 -0.105498,-1.31829 -0.08169,-0.19235 -0.08169,-0.19235 -0.384921,0.16364 z"
         style="fill:none;fill-opacity:0.866667;stroke:#d5dcd6;stroke-width:0.250927px;stroke-linecap:butt;stroke-linejoin:miter;stroke-opacity:1" />
      <path
         inkscape:original-d="m -45.701848,121.7308 c 0.606723,-0.71176 1.213117,-1.42365 1.819182,-2.13567 0.93357,0.0581 1.867028,0.11609 2.800051,0.17395 0.93334,0.0581 1.867025,0.11609 2.800049,0.17395 0.279674,-1.4811 0.559213,-2.9634 0.838332,-4.44529 -1.318027,0.10563 -2.636249,0.21112 -3.95486,0.31648 -1.154762,0.49069 -2.309296,0.981 -3.46443,1.4713 -0.442677,1.09717 -0.885507,2.19378 -1.32876,3.29046 0.163802,0.38508 0.327283,0.77001 0.490439,1.15482 z"
         inkscape:path-effect="#path-effect19703-0-7-62-2-5-7-4-1-1-4-4-3-1-0"
         inkscape:connector-curvature="0"
         id="path19701-46-0-0-6-8-7-3-0-1-4-4-3-2-4"
         d="m -45.398614,121.37481 c 0.303234,-0.35599 0.909628,-1.06788 1.679576,-1.39478 0.769948,-0.3269 1.703406,-0.26891 2.636588,-0.21094 0.933182,0.058 1.866866,0.11598 2.473041,-0.59562 0.606174,-0.7116 0.885719,-2.1939 0.366427,-2.88208 -0.519292,-0.68818 -1.837514,-0.58269 -3.074244,-0.2847 -1.23673,0.29799 -2.391261,0.7883 -3.190283,1.58208 -0.799022,0.79379 -1.241857,1.89039 -1.381526,2.63139 -0.13967,0.74099 0.02381,1.12593 0.105498,1.31828 0.08169,0.19236 0.08169,0.19236 0.384923,-0.16363 z"
         style="fill:none;fill-opacity:0.866667;stroke:#d5dcd6;stroke-width:0.250927px;stroke-linecap:butt;stroke-linejoin:miter;stroke-opacity:1" />
      <path
         inkscape:original-d="m -48.936881,128.0737 c -0.07427,-0.9323 -0.148865,-1.86447 -0.223789,-2.7965 0.701216,-0.61905 1.402278,-1.2381 2.102935,-1.85693 0.701046,-0.6189 1.402279,-1.2381 2.102935,-1.85693 -0.849538,-1.24506 -1.700017,-2.49087 -2.550503,-3.73609 -0.857293,1.00668 -1.714828,2.01339 -2.572724,3.02029 -0.469567,1.16352 -0.939247,2.3266 -1.409358,3.49009 0.462797,1.08884 0.92509,2.17739 1.387137,3.26629 0.388116,0.15646 0.775903,0.31305 1.163369,0.46978 z"
         inkscape:path-effect="#path-effect19703-0-7-62-2-5-7-70-7-6-5-2-6"
         inkscape:connector-curvature="0"
         id="path19701-46-0-0-6-8-7-9-9-7-5-9-6"
         d="m -48.974183,127.60756 c -0.0373,-0.46613 -0.111899,-1.3983 0.201381,-2.17389 0.31328,-0.7756 1.014342,-1.39465 1.715194,-2.01351 0.700851,-0.61887 1.402084,-1.23807 1.327533,-2.16988 -0.07455,-0.9318 -0.925026,-2.17762 -1.778834,-2.29704 -0.853809,-0.11941 -1.711341,0.8873 -2.375134,1.97251 -0.663794,1.08521 -1.133466,2.24829 -1.137169,3.37458 -0.0037,1.12628 0.458587,2.21483 0.883787,2.83755 0.425201,0.62273 0.812987,0.77932 1.006767,0.85757 0.193779,0.0782 0.193777,0.0782 0.156475,-0.38789 z"
         style="fill:none;fill-opacity:0.866667;stroke:#d5dcd6;stroke-width:0.250927px;stroke-linecap:butt;stroke-linejoin:miter;stroke-opacity:1" />
      <path
         inkscape:original-d="m -40.396381,119.5332 c -0.932308,-0.0743 -1.864472,-0.14886 -2.7965,-0.22379 -0.619051,0.70122 -1.2381,1.40228 -1.856937,2.10294 -0.618895,0.70105 -1.238093,1.40228 -1.85693,2.10293 -1.245058,-0.84953 -2.490863,-1.70001 -3.736083,-2.5505 1.006676,-0.85729 2.01339,-1.71483 3.02029,-2.57272 1.163513,-0.46957 2.326593,-0.93925 3.490088,-1.40936 1.088837,0.4628 2.177384,0.92509 3.266286,1.38714 0.156465,0.38811 0.313055,0.7759 0.469783,1.16336 z"
         inkscape:path-effect="#path-effect19703-0-7-62-2-5-7-4-4-9-3-0-1-1"
         inkscape:connector-curvature="0"
         id="path19701-46-0-0-6-8-7-3-6-8-6-6-08-0"
         d="m -40.862523,119.4959 c -0.466142,-0.0373 -1.398303,-0.1119 -2.173895,0.20138 -0.775593,0.31328 -1.394642,1.01434 -2.01351,1.71519 -0.618867,0.70086 -1.238067,1.40209 -2.169872,1.32754 -0.931806,-0.0746 -2.177616,-0.92503 -2.297037,-1.77883 -0.119421,-0.85381 0.887297,-1.71135 1.972505,-2.37514 1.085208,-0.66379 2.24829,-1.13346 3.374573,-1.13717 1.126283,-0.004 2.21483,0.45859 2.837555,0.88379 0.622725,0.4252 0.77932,0.81299 0.85757,1.00676 0.07825,0.19378 0.07825,0.19378 -0.387889,0.15648 z"
         style="fill:none;fill-opacity:0.866667;stroke:#d5dcd6;stroke-width:0.250927px;stroke-linecap:butt;stroke-linejoin:miter;stroke-opacity:1" />
      <path
         inkscape:original-d="m -38.929221,138.08137 c 0.93231,0.0743 1.864472,0.14886 2.796503,0.22379 0.619049,-0.70122 1.238099,-1.40228 1.856935,-2.10294 0.618895,-0.70105 1.238094,-1.40228 1.856931,-2.10294 1.245058,0.84954 2.490863,1.70002 3.736082,2.55051 -1.006675,0.85729 -2.01339,1.71483 -3.020289,2.57272 -1.163514,0.46957 -2.326593,0.93925 -3.490089,1.40936 -1.088836,-0.4628 -2.177385,-0.92509 -3.266287,-1.38714 -0.156465,-0.38811 -0.313055,-0.7759 -0.469783,-1.16337 z"
         inkscape:path-effect="#path-effect19703-0-7-62-2-5-7-7-0-7-6-8-6-8"
         inkscape:connector-curvature="0"
         id="path19701-46-0-0-6-8-7-2-8-3-5-5-5-6"
         d="m -38.463078,138.11867 c 0.466143,0.0373 1.398302,0.1119 2.173895,-0.20138 0.775593,-0.31328 1.394643,-1.01434 2.013509,-1.71519 0.618867,-0.70086 1.238065,-1.40209 2.169874,-1.32754 0.931809,0.0745 2.177617,0.92502 2.297037,1.77883 0.119421,0.85381 -0.887298,1.71135 -1.972506,2.37514 -1.085208,0.66379 -2.248289,1.13346 -3.374572,1.13717 -1.126283,0.004 -2.214832,-0.45859 -2.837557,-0.88379 -0.622724,-0.4252 -0.779318,-0.81299 -0.857569,-1.00677 -0.07825,-0.19378 -0.07825,-0.19377 0.387889,-0.15647 z"
         style="fill:none;fill-opacity:0.866667;stroke:#d5dcd6;stroke-width:0.250927px;stroke-linecap:butt;stroke-linejoin:miter;stroke-opacity:1" />
      <path
         inkscape:original-d="m -30.38872,129.54086 c 0.07427,0.93231 0.148866,1.86448 0.22379,2.79651 -0.701216,0.61905 -1.402278,1.23809 -2.102934,1.85693 -0.701048,0.6189 -1.402279,1.2381 -2.102937,1.85693 0.849539,1.24506 1.700017,2.49087 2.550503,3.73609 0.857293,-1.00668 1.714828,-2.01339 2.572726,-3.02029 0.469566,-1.16352 0.939246,-2.3266 1.409357,-3.49009 -0.462797,-1.08884 -0.925091,-2.17739 -1.387137,-3.26629 -0.388116,-0.15646 -0.775903,-0.31305 -1.163369,-0.46978 z"
         inkscape:path-effect="#path-effect19703-0-7-62-2-5-7-4-1-8-3-3-0-9-5"
         inkscape:connector-curvature="0"
         id="path19701-46-0-0-6-8-7-3-0-0-8-7-9-4-6"
         d="m -30.351417,130.007 c 0.0373,0.46614 0.111899,1.39831 -0.201381,2.1739 -0.31328,0.7756 -1.014337,1.39464 -1.715191,2.01351 -0.700855,0.61887 -1.402086,1.23807 -1.327536,2.16988 0.07455,0.9318 0.925025,2.17762 1.778834,2.29704 0.853808,0.11941 1.711341,-0.8873 2.375134,-1.97251 0.663794,-1.08521 1.133467,-2.24829 1.137169,-3.37458 0.0037,-1.12628 -0.458587,-2.21483 -0.883787,-2.83755 -0.425201,-0.62273 -0.812987,-0.77932 -1.006767,-0.85757 -0.193779,-0.0782 -0.193778,-0.0783 -0.156475,0.38788 z"
         style="fill:none;fill-opacity:0.866667;stroke:#d5dcd6;stroke-width:0.250927px;stroke-linecap:butt;stroke-linejoin:miter;stroke-opacity:1" />
      <path
         inkscape:original-d="m -38.929223,119.5332 c 0.932309,-0.0743 1.864473,-0.14886 2.796502,-0.22379 0.619051,0.70122 1.238099,1.40228 1.856937,2.10294 0.618895,0.70104 1.238092,1.40228 1.856931,2.10293 1.245058,-0.84953 2.490861,-1.70001 3.736082,-2.5505 -1.006676,-0.85729 -2.01339,-1.71483 -3.020291,-2.57272 -1.163512,-0.46957 -2.326591,-0.93925 -3.490088,-1.40936 -1.088837,0.4628 -2.177384,0.92509 -3.266286,1.38714 -0.156464,0.38811 -0.313055,0.7759 -0.469783,1.16336 z"
         inkscape:path-effect="#path-effect19703-0-7-62-2-5-7-2-5-6-3-4-0-0"
         inkscape:connector-curvature="0"
         id="path19701-46-0-0-6-8-7-1-0-5-1-9-6-9"
         d="m -38.463081,119.4959 c 0.466143,-0.0373 1.398304,-0.1119 2.173897,0.20138 0.775593,0.31328 1.394642,1.01434 2.013507,1.71519 0.618865,0.70085 1.23807,1.40209 2.169876,1.32754 0.931806,-0.0746 2.177614,-0.92503 2.297036,-1.77883 0.119421,-0.85381 -0.887297,-1.71135 -1.972505,-2.37514 -1.085208,-0.66379 -2.24829,-1.13346 -3.374573,-1.13717 -1.126284,-0.004 -2.214831,0.45859 -2.837556,0.88379 -0.622725,0.4252 -0.77932,0.81299 -0.85757,1.00676 -0.07825,0.19378 -0.07825,0.19378 0.387888,0.15648 z"
         style="fill:none;fill-opacity:0.866667;stroke:#d5dcd6;stroke-width:0.250927px;stroke-linecap:butt;stroke-linejoin:miter;stroke-opacity:1" />
      <path
         inkscape:original-d="m -48.936885,129.54086 c -0.07427,0.93231 -0.148865,1.86448 -0.22379,2.79651 0.701217,0.61905 1.402279,1.23809 2.102935,1.85693 0.701047,0.6189 1.402279,1.23809 2.102936,1.85693 -0.849538,1.24506 -1.700017,2.49086 -2.550503,3.73609 -0.857294,-1.00668 -1.714828,-2.01339 -2.572725,-3.0203 -0.469567,-1.16351 -0.939246,-2.32659 -1.409357,-3.49008 0.462797,-1.08884 0.925089,-2.17739 1.387136,-3.26629 0.388116,-0.15646 0.775904,-0.31305 1.163369,-0.46978 z"
         inkscape:path-effect="#path-effect19703-0-7-62-2-5-7-7-5-6-6-4-1-5-3"
         inkscape:connector-curvature="0"
         id="path19701-46-0-0-6-8-7-2-1-9-2-3-0-1-8"
         d="m -48.974188,130.007 c -0.0373,0.46614 -0.111899,1.39831 0.201381,2.17391 0.313281,0.77559 1.014338,1.39463 1.715192,2.0135 0.700854,0.61887 1.402081,1.23806 1.327533,2.16987 -0.07455,0.93181 -0.925018,2.17762 -1.778829,2.29704 -0.85381,0.11942 -1.71134,-0.88729 -2.375134,-1.9725 -0.663794,-1.08521 -1.133468,-2.2483 -1.137171,-3.37458 -0.0037,-1.12628 0.458586,-2.21483 0.883786,-2.83755 0.425201,-0.62273 0.812988,-0.77932 1.006767,-0.85757 0.193779,-0.0782 0.193778,-0.0783 0.156475,0.38788 z"
         style="fill:none;fill-opacity:0.866667;stroke:#d5dcd6;stroke-width:0.250927px;stroke-linecap:butt;stroke-linejoin:miter;stroke-opacity:1" />
      <path
         inkscape:original-d="m -40.396386,138.08137 c -0.932307,0.0743 -1.864471,0.14886 -2.7965,0.22378 -0.619051,-0.70121 -1.238099,-1.40227 -1.856937,-2.10293 -0.618895,-0.70105 -1.238093,-1.40228 -1.85693,-2.10294 -1.245058,0.84954 -2.490863,1.70002 -3.736083,2.55051 1.006676,0.85729 2.013391,1.71483 3.02029,2.57272 1.163513,0.46957 2.326593,0.93925 3.490088,1.40936 1.088837,-0.4628 2.177385,-0.92509 3.266286,-1.38714 0.156465,-0.38811 0.313055,-0.7759 0.469784,-1.16337 z"
         inkscape:path-effect="#path-effect19703-0-7-62-2-5-7-4-1-1-6-5-4-1-5-4"
         inkscape:connector-curvature="0"
         id="path19701-46-0-0-6-8-7-3-0-1-7-2-3-7-5-9"
         d="m -40.862527,138.11867 c -0.466142,0.0373 -1.398303,0.1119 -2.173894,-0.20138 -0.775591,-0.31328 -1.394642,-1.01434 -2.01351,-1.7152 -0.618868,-0.70085 -1.238065,-1.40208 -2.169874,-1.32753 -0.931809,0.0745 -2.177617,0.92502 -2.297038,1.77883 -0.11942,0.85381 0.887299,1.71135 1.972506,2.37514 1.085208,0.66379 2.24829,1.13346 3.374573,1.13717 1.126283,0.004 2.214831,-0.45859 2.837555,-0.88379 0.622725,-0.4252 0.779319,-0.81299 0.85757,-1.00677 0.07825,-0.19378 0.07825,-0.19377 -0.387888,-0.15647 z"
         style="fill:none;fill-opacity:0.866667;stroke:#d5dcd6;stroke-width:0.250927px;stroke-linecap:butt;stroke-linejoin:miter;stroke-opacity:1" />
      <path
         inkscape:original-d="m -33.623756,121.7308 c -0.606724,-0.71176 -1.213118,-1.42365 -1.819183,-2.13567 -0.93357,0.0581 -1.867029,0.11609 -2.800052,0.17395 -0.93334,0.0581 -1.867024,0.11609 -2.800047,0.17395 -0.279676,-1.4811 -0.559213,-2.9634 -0.838332,-4.44529 1.318025,0.10563 2.636248,0.21112 3.954858,0.31648 1.154762,0.49069 2.309297,0.981 3.464432,1.4713 0.442677,1.09717 0.885506,2.19378 1.32876,3.29046 -0.163802,0.38508 -0.327283,0.77001 -0.49044,1.15482 z"
         inkscape:path-effect="#path-effect19703-0-7-62-2-5-7-7-5-9-3-3-6-2"
         inkscape:connector-curvature="0"
         id="path19701-46-0-0-6-8-7-2-1-5-3-6-90-9"
         d="m -33.92699,121.37481 c -0.303235,-0.35599 -0.909629,-1.06788 -1.679577,-1.39478 -0.769948,-0.3269 -1.703407,-0.26891 -2.636589,-0.21094 -0.933182,0.058 -1.866865,0.11598 -2.473039,-0.59562 -0.606174,-0.71161 -0.885719,-2.1939 -0.366428,-2.88208 0.519291,-0.68818 1.837514,-0.58269 3.074243,-0.2847 1.23673,0.29799 2.391263,0.7883 3.190285,1.58208 0.799022,0.79379 1.241857,1.89039 1.381526,2.63139 0.139669,0.74099 -0.02381,1.12593 -0.105499,1.31828 -0.08169,0.19236 -0.08169,0.19236 -0.384922,-0.16363 z"
         style="fill:none;fill-opacity:0.866667;stroke:#d5dcd6;stroke-width:0.250927px;stroke-linecap:butt;stroke-linejoin:miter;stroke-opacity:1" />
      <path
         inkscape:original-d="m -30.388721,128.0737 c 0.07427,-0.9323 0.148865,-1.86447 0.22379,-2.7965 -0.701218,-0.61905 -1.402279,-1.2381 -2.102936,-1.85693 -0.701046,-0.6189 -1.402279,-1.2381 -2.102935,-1.85693 0.849538,-1.24506 1.700016,-2.49087 2.550501,-3.73609 0.857295,1.00668 1.71483,2.01339 2.572726,3.02029 0.469568,1.16352 0.939246,2.32659 1.409358,3.49009 -0.462797,1.08884 -0.92509,2.17739 -1.387136,3.26629 -0.388118,0.15646 -0.775904,0.31305 -1.163369,0.46978 z"
         inkscape:path-effect="#path-effect19703-0-7-62-2-5-7-4-17-1-4-9-5-6-2"
         inkscape:connector-curvature="0"
         id="path19701-46-0-0-6-8-7-3-7-2-2-8-3-0-1"
         d="m -30.351418,127.60756 c 0.0373,-0.46613 0.111899,-1.3983 -0.201382,-2.1739 -0.313281,-0.77559 -1.014342,-1.39464 -1.715194,-2.0135 -0.700851,-0.61887 -1.402084,-1.23807 -1.327533,-2.16988 0.07455,-0.9318 0.925025,-2.17762 1.778833,-2.29703 0.853809,-0.11942 1.711341,0.88729 2.375135,1.9725 0.663794,1.08521 1.133463,2.24829 1.137167,3.37457 0.0037,1.12629 -0.458584,2.21484 -0.883785,2.83756 -0.425202,0.62273 -0.812987,0.77932 -1.006766,0.85757 -0.193779,0.0782 -0.193778,0.0782 -0.156475,-0.38789 z"
         style="fill:none;fill-opacity:0.866667;stroke:#d5dcd6;stroke-width:0.250927px;stroke-linecap:butt;stroke-linejoin:miter;stroke-opacity:1" />
      <path
         inkscape:original-d="m -32.586317,134.84633 c 0.71176,-0.60672 1.423644,-1.21312 2.135668,-1.81918 -0.0581,-0.93357 -0.116093,-1.86703 -0.173947,-2.80006 -0.05809,-0.93334 -0.116097,-1.86702 -0.173953,-2.80004 1.481104,-0.27968 2.9634,-0.55922 4.445288,-0.83834 -0.10563,1.31803 -0.211115,2.63625 -0.316477,3.95486 -0.490693,1.15477 -0.981001,2.3093 -1.471298,3.46443 -1.097171,0.44268 -2.193782,0.88551 -3.290468,1.32876 -0.385077,-0.1638 -0.77001,-0.32728 -1.154813,-0.49043 z"
         inkscape:path-effect="#path-effect19703-0-7-62-2-5-7-4-5-7-9-64-0"
         inkscape:connector-curvature="0"
         id="path19701-46-0-0-6-8-7-3-1-5-7-3-4"
         d="m -32.037976,134.62479 c 0.163635,-0.38493 0.875524,-0.99132 1.202427,-1.76127 0.326904,-0.76995 0.268915,-1.70341 0.210942,-2.63659 -0.05797,-0.93319 -0.115978,-1.86687 0.595624,-2.47304 0.711603,-0.60617 2.193898,-0.88572 2.882073,-0.36643 0.688176,0.51929 0.582689,1.83751 0.284702,3.07425 -0.297988,1.23673 -0.788301,2.39126 -1.582084,3.19028 -0.793783,0.79902 -1.890392,1.24185 -2.631388,1.38152 -0.740996,0.13967 -1.125931,-0.0238 -0.962296,-0.40872 z"
         style="fill:none;fill-opacity:0.866667;stroke:#d5dcd6;stroke-width:0.250927px;stroke-linecap:butt;stroke-linejoin:miter;stroke-opacity:1" />
      <path
         inkscape:original-d="m -45.701848,135.88377 c 0.606723,0.71176 1.213117,1.42364 1.819182,2.13567 0.93357,-0.0581 1.867028,-0.1161 2.800051,-0.17395 0.93334,-0.0581 1.867025,-0.1161 2.800049,-0.17395 0.279674,1.4811 0.559213,2.9634 0.838332,4.44528 -1.318027,-0.10562 -2.636249,-0.21111 -3.95486,-0.31647 -1.154762,-0.4907 -2.309296,-0.981 -3.46443,-1.4713 -0.442677,-1.09717 -0.885507,-2.19378 -1.32876,-3.29047 0.163802,-0.38508 0.327283,-0.77001 0.490439,-1.15481 z"
         inkscape:path-effect="#path-effect19703-0-7-62-2-5-7-4-17-17-2-3-3-7"
         inkscape:connector-curvature="0"
         id="path19701-46-0-0-6-8-7-3-7-5-1-6-6-4"
         d="m -45.398614,136.23976 c 0.303234,0.35599 0.909623,1.06787 1.679574,1.39478 0.76995,0.3269 1.703409,0.26891 2.636591,0.21094 0.933181,-0.058 1.866866,-0.11598 2.47304,0.59562 0.606175,0.7116 0.88572,2.1939 0.366428,2.88208 -0.519292,0.68817 -1.837514,0.58268 -3.074246,0.2847 -1.236732,-0.29799 -2.39126,-0.7883 -3.190282,-1.58208 -0.799021,-0.79379 -1.241855,-1.8904 -1.381525,-2.63139 -0.13967,-0.741 0.02381,-1.12594 0.105498,-1.31829 0.08169,-0.19235 0.08169,-0.19235 0.384922,0.16364 z"
         style="fill:none;fill-opacity:0.866667;stroke:#d5dcd6;stroke-width:0.250927px;stroke-linecap:butt;stroke-linejoin:miter;stroke-opacity:1" />
      <path
         inkscape:original-d="m -46.739282,122.76824 c -0.71176,0.60672 -1.423644,1.21311 -2.135668,1.81918 0.0581,0.93357 0.116092,1.86703 0.173947,2.80005 0.05809,0.93334 0.116097,1.86703 0.173952,2.80005 -1.481103,0.27967 -2.963399,0.55921 -4.445287,0.83833 0.105629,-1.31803 0.211115,-2.63625 0.316476,-3.95486 0.490694,-1.15476 0.981002,-2.3093 1.471299,-3.46443 1.097171,-0.44268 2.193781,-0.88551 3.290467,-1.32876 0.385077,0.1638 0.77001,0.32728 1.154814,0.49044 z"
         inkscape:path-effect="#path-effect19703-0-7-62-2-5-7-7-08-5-4-85-9"
         inkscape:connector-curvature="0"
         id="path19701-46-0-0-6-8-7-2-5-0-1-21-0"
         d="m -47.287624,122.98978 c -0.163634,0.38493 -0.875518,0.99132 -1.202424,1.76127 -0.326906,0.76995 -0.268916,1.70341 -0.210944,2.63659 0.05797,0.93318 0.115978,1.86687 -0.595624,2.47304 -0.711602,0.60617 -2.193897,0.88571 -2.882073,0.36642 -0.688177,-0.51929 -0.58269,-1.83751 -0.284704,-3.07424 0.297986,-1.23673 0.788303,-2.39127 1.582086,-3.19029 0.793783,-0.79902 1.890391,-1.24185 2.631387,-1.38152 0.740995,-0.13967 1.125929,0.0238 0.962296,0.40873 z"
         style="fill:none;fill-opacity:0.866667;stroke:#d5dcd6;stroke-width:0.250927px;stroke-linecap:butt;stroke-linejoin:miter;stroke-opacity:1" />
      <circle
         r="3"
         cy="128.80728"
         cx="-39.6628"
         id="path22005-7-6-6"
         style="opacity:1;fill:none;fill-opacity:1;stroke:#d5dcd6;stroke-width:1;stroke-linecap:butt;stroke-miterlimit:4;stroke-dasharray:none;stroke-dashoffset:0;stroke-opacity:1" />
    </g>
  </g>
</svg>
