<?xml version="1.0" encoding="UTF-8" standalone="no"?>
<!-- Created with Inkscape (http://www.inkscape.org/) -->

<svg
   width="140"
   height="40"
   viewBox="0 0 37.041666 10.583333"
   version="1.1"
   id="svg6373"
   inkscape:version="1.2.1 (9c6d41e410, 2022-07-14)"
   sodipodi:docname="logo.svg"
   xmlns:inkscape="http://www.inkscape.org/namespaces/inkscape"
   xmlns:sodipodi="http://sodipodi.sourceforge.net/DTD/sodipodi-0.dtd"
   xmlns="http://www.w3.org/2000/svg"
   xmlns:svg="http://www.w3.org/2000/svg">
  <sodipodi:namedview
     id="namedview6375"
     pagecolor="#ffffff"
     bordercolor="#666666"
     borderopacity="1.0"
     inkscape:showpageshadow="2"
     inkscape:pageopacity="0.0"
     inkscape:pagecheckerboard="0"
     inkscape:deskcolor="#d1d1d1"
     inkscape:document-units="mm"
     showgrid="false"
     inkscape:zoom="2.5964961"
     inkscape:cx="75.871479"
     inkscape:cy="44.675592"
     inkscape:window-width="1920"
     inkscape:window-height="1017"
     inkscape:window-x="-8"
     inkscape:window-y="-8"
     inkscape:window-maximized="1"
     inkscape:current-layer="layer1" />
  <defs
     id="defs6370">
    <inkscape:path-effect
       effect="bspline"
       id="path-effect19703-0-7-62-2-5-7-3-7-4-8-6"
       is_visible="true"
       weight="33.333333"
       steps="2"
       helper_size="0"
       apply_no_weight="true"
       apply_with_weight="true"
       only_selected="false"
       lpeversion="0" />
    <inkscape:path-effect
       effect="bspline"
       id="path-effect19703-0-7-62-2-5-7-4-1-6-0-85-2-8"
       is_visible="true"
       weight="33.333333"
       steps="2"
       helper_size="0"
       apply_no_weight="true"
       apply_with_weight="true"
       only_selected="false"
       lpeversion="0" />
    <inkscape:path-effect
       effect="bspline"
       id="path-effect19703-0-7-62-2-5-7-2-0-3-1-2-7"
       is_visible="true"
       weight="33.333333"
       steps="2"
       helper_size="0"
       apply_no_weight="true"
       apply_with_weight="true"
       only_selected="false"
       lpeversion="0" />
    <inkscape:path-effect
       effect="bspline"
       id="path-effect19703-0-7-62-2-5-7-4-1-1-4-4-2-0-4"
       is_visible="true"
       weight="33.333333"
       steps="2"
       helper_size="0"
       apply_no_weight="true"
       apply_with_weight="true"
       only_selected="false"
       lpeversion="0" />
    <inkscape:path-effect
       effect="bspline"
       id="path-effect19703-0-7-62-2-5-7-70-7-6-9-6-9"
       is_visible="true"
       weight="33.333333"
       steps="2"
       helper_size="0"
       apply_no_weight="true"
       apply_with_weight="true"
       only_selected="false"
       lpeversion="0" />
    <inkscape:path-effect
       effect="bspline"
       id="path-effect19703-0-7-62-2-5-7-4-4-9-3-7-3-49"
       is_visible="true"
       weight="33.333333"
       steps="2"
       helper_size="0"
       apply_no_weight="true"
       apply_with_weight="true"
       only_selected="false"
       lpeversion="0" />
    <inkscape:path-effect
       effect="bspline"
       id="path-effect19703-0-7-62-2-5-7-7-0-7-6-38-6-0"
       is_visible="true"
       weight="33.333333"
       steps="2"
       helper_size="0"
       apply_no_weight="true"
       apply_with_weight="true"
       only_selected="false"
       lpeversion="0" />
    <inkscape:path-effect
       effect="bspline"
       id="path-effect19703-0-7-62-2-5-7-4-1-8-3-3-09-1-5"
       is_visible="true"
       weight="33.333333"
       steps="2"
       helper_size="0"
       apply_no_weight="true"
       apply_with_weight="true"
       only_selected="false"
       lpeversion="0" />
    <inkscape:path-effect
       effect="bspline"
       id="path-effect19703-0-7-62-2-5-7-2-5-6-3-2-0-4"
       is_visible="true"
       weight="33.333333"
       steps="2"
       helper_size="0"
       apply_no_weight="true"
       apply_with_weight="true"
       only_selected="false"
       lpeversion="0" />
    <inkscape:path-effect
       effect="bspline"
       id="path-effect19703-0-7-62-2-5-7-7-5-6-6-4-3-5-0"
       is_visible="true"
       weight="33.333333"
       steps="2"
       helper_size="0"
       apply_no_weight="true"
       apply_with_weight="true"
       only_selected="false"
       lpeversion="0" />
    <inkscape:path-effect
       effect="bspline"
       id="path-effect19703-0-7-62-2-5-7-4-1-1-6-5-4-18-7-3"
       is_visible="true"
       weight="33.333333"
       steps="2"
       helper_size="0"
       apply_no_weight="true"
       apply_with_weight="true"
       only_selected="false"
       lpeversion="0" />
    <inkscape:path-effect
       effect="bspline"
       id="path-effect19703-0-7-62-2-5-7-7-5-9-3-7-4-5"
       is_visible="true"
       weight="33.333333"
       steps="2"
       helper_size="0"
       apply_no_weight="true"
       apply_with_weight="true"
       only_selected="false"
       lpeversion="0" />
    <inkscape:path-effect
       effect="bspline"
       id="path-effect19703-0-7-62-2-5-7-4-17-1-4-9-4-2-2"
       is_visible="true"
       weight="33.333333"
       steps="2"
       helper_size="0"
       apply_no_weight="true"
       apply_with_weight="true"
       only_selected="false"
       lpeversion="0" />
    <inkscape:path-effect
       effect="bspline"
       id="path-effect19703-0-7-62-2-5-7-4-5-7-1-0-26"
       is_visible="true"
       weight="33.333333"
       steps="2"
       helper_size="0"
       apply_no_weight="true"
       apply_with_weight="true"
       only_selected="false"
       lpeversion="0" />
    <inkscape:path-effect
       effect="bspline"
       id="path-effect19703-0-7-62-2-5-7-4-17-17-2-6-0-4"
       is_visible="true"
       weight="33.333333"
       steps="2"
       helper_size="0"
       apply_no_weight="true"
       apply_with_weight="true"
       only_selected="false"
       lpeversion="0" />
    <inkscape:path-effect
       effect="bspline"
       id="path-effect19703-0-7-62-2-5-7-7-08-5-3-3-09"
       is_visible="true"
       weight="33.333333"
       steps="2"
       helper_size="0"
       apply_no_weight="true"
       apply_with_weight="true"
       only_selected="false"
       lpeversion="0" />
    <inkscape:path-effect
       effect="bspline"
       id="path-effect19703-0-7-62-2-5-7-3-7-4-8-3-9"
       is_visible="true"
       weight="33.333333"
       steps="2"
       helper_size="0"
       apply_no_weight="true"
       apply_with_weight="true"
       only_selected="false"
       lpeversion="0" />
    <inkscape:path-effect
       effect="bspline"
       id="path-effect19703-0-7-62-2-5-7-4-1-6-0-85-2-2-6"
       is_visible="true"
       weight="33.333333"
       steps="2"
       helper_size="0"
       apply_no_weight="true"
       apply_with_weight="true"
       only_selected="false"
       lpeversion="0" />
    <inkscape:path-effect
       effect="bspline"
       id="path-effect19703-0-7-62-2-5-7-2-0-3-1-2-1-2"
       is_visible="true"
       weight="33.333333"
       steps="2"
       helper_size="0"
       apply_no_weight="true"
       apply_with_weight="true"
       only_selected="false"
       lpeversion="0" />
    <inkscape:path-effect
       effect="bspline"
       id="path-effect19703-0-7-62-2-5-7-4-1-1-4-4-2-0-9-5"
       is_visible="true"
       weight="33.333333"
       steps="2"
       helper_size="0"
       apply_no_weight="true"
       apply_with_weight="true"
       only_selected="false"
       lpeversion="0" />
    <inkscape:path-effect
       effect="bspline"
       id="path-effect19703-0-7-62-2-5-7-70-7-6-9-6-8-4"
       is_visible="true"
       weight="33.333333"
       steps="2"
       helper_size="0"
       apply_no_weight="true"
       apply_with_weight="true"
       only_selected="false"
       lpeversion="0" />
    <inkscape:path-effect
       effect="bspline"
       id="path-effect19703-0-7-62-2-5-7-4-4-9-3-7-3-3-49"
       is_visible="true"
       weight="33.333333"
       steps="2"
       helper_size="0"
       apply_no_weight="true"
       apply_with_weight="true"
       only_selected="false"
       lpeversion="0" />
    <inkscape:path-effect
       effect="bspline"
       id="path-effect19703-0-7-62-2-5-7-7-0-7-6-38-6-9-9"
       is_visible="true"
       weight="33.333333"
       steps="2"
       helper_size="0"
       apply_no_weight="true"
       apply_with_weight="true"
       only_selected="false"
       lpeversion="0" />
    <inkscape:path-effect
       effect="bspline"
       id="path-effect19703-0-7-62-2-5-7-4-1-8-3-3-09-1-0-3"
       is_visible="true"
       weight="33.333333"
       steps="2"
       helper_size="0"
       apply_no_weight="true"
       apply_with_weight="true"
       only_selected="false"
       lpeversion="0" />
    <inkscape:path-effect
       effect="bspline"
       id="path-effect19703-0-7-62-2-5-7-2-5-6-3-2-0-5-60"
       is_visible="true"
       weight="33.333333"
       steps="2"
       helper_size="0"
       apply_no_weight="true"
       apply_with_weight="true"
       only_selected="false"
       lpeversion="0" />
    <inkscape:path-effect
       effect="bspline"
       id="path-effect19703-0-7-62-2-5-7-7-5-6-6-4-3-5-2-5"
       is_visible="true"
       weight="33.333333"
       steps="2"
       helper_size="0"
       apply_no_weight="true"
       apply_with_weight="true"
       only_selected="false"
       lpeversion="0" />
    <inkscape:path-effect
       effect="bspline"
       id="path-effect19703-0-7-62-2-5-7-4-1-1-6-5-4-18-7-6-0"
       is_visible="true"
       weight="33.333333"
       steps="2"
       helper_size="0"
       apply_no_weight="true"
       apply_with_weight="true"
       only_selected="false"
       lpeversion="0" />
    <inkscape:path-effect
       effect="bspline"
       id="path-effect19703-0-7-62-2-5-7-7-5-9-3-7-4-6-2"
       is_visible="true"
       weight="33.333333"
       steps="2"
       helper_size="0"
       apply_no_weight="true"
       apply_with_weight="true"
       only_selected="false"
       lpeversion="0" />
    <inkscape:path-effect
       effect="bspline"
       id="path-effect19703-0-7-62-2-5-7-4-17-1-4-9-4-2-47-9"
       is_visible="true"
       weight="33.333333"
       steps="2"
       helper_size="0"
       apply_no_weight="true"
       apply_with_weight="true"
       only_selected="false"
       lpeversion="0" />
    <inkscape:path-effect
       effect="bspline"
       id="path-effect19703-0-7-62-2-5-7-4-5-7-1-0-3-4"
       is_visible="true"
       weight="33.333333"
       steps="2"
       helper_size="0"
       apply_no_weight="true"
       apply_with_weight="true"
       only_selected="false"
       lpeversion="0" />
    <inkscape:path-effect
       effect="bspline"
       id="path-effect19703-0-7-62-2-5-7-4-17-17-2-6-0-6-3"
       is_visible="true"
       weight="33.333333"
       steps="2"
       helper_size="0"
       apply_no_weight="true"
       apply_with_weight="true"
       only_selected="false"
       lpeversion="0" />
    <inkscape:path-effect
       effect="bspline"
       id="path-effect19703-0-7-62-2-5-7-7-08-5-3-3-0-5"
       is_visible="true"
       weight="33.333333"
       steps="2"
       helper_size="0"
       apply_no_weight="true"
       apply_with_weight="true"
       only_selected="false"
       lpeversion="0" />
  </defs>
  <g
     inkscape:label="Capa 1"
     inkscape:groupmode="layer"
     id="layer1">
    <g
       id="g8011"
       transform="matrix(0.98571446,0,0,0.98571446,-2.8042789,0.00755943)">
      <path
         d="m 12.739872,8.5392303 q -0.603821,0 -1.009513,-0.2264329 Q 11.324666,8.0769298 11.117103,7.6523682 10.918974,7.2278065 10.918974,6.6428549 V 4.8030877 q 0,-0.6132557 0.198129,-1.0283826 0.207563,-0.4245617 0.613256,-0.6509946 0.405692,-0.2264328 1.009513,-0.2264328 0.584951,0 0.981209,0.188694 0.396258,0.1792594 0.584952,0.5472128 0.198128,0.3679535 0.198128,0.924601 V 5.0766941 H 13.145564 V 4.5200466 q 0,-0.2453022 -0.04717,-0.3773881 -0.03774,-0.1415205 -0.132086,-0.1981288 -0.08491,-0.056608 -0.226433,-0.056608 -0.141521,0 -0.226433,0.075478 -0.08491,0.066043 -0.122651,0.2358676 -0.03774,0.16039 -0.03774,0.4528658 v 2.1416776 q 0,0.4434311 0.09435,0.6038211 0.103782,0.1509552 0.301911,0.1509552 0.150955,0 0.235867,-0.066043 Q 13.070089,7.416501 13.10783,7.2749805 13.14557,7.13346 13.14557,6.9164618 V 6.2560321 h 1.358597 v 0.5943863 q 0,0.5472128 -0.198128,0.9340356 -0.198129,0.3773881 -0.594387,0.5660822 -0.396257,0.1886941 -0.971774,0.1886941 z"
         id="path7669"
         style="font-size:192px;line-height:1.25;font-family:'Oswald SemiBold';-inkscape-font-specification:'Oswald SemiBold, ';letter-spacing:0.01px;word-spacing:0px;fill:#4d4d4d;stroke-width:0.0491391" />
      <path
         d="m 16.967101,8.5014915 q -0.566083,0 -0.886863,-0.1698247 Q 15.759458,8.1524074 15.636807,7.8221928 15.514156,7.4919782 15.514156,7.020243 V 3.9256603 H 14.976378 V 2.9916247 h 0.537778 V 1.3405516 h 1.44351 v 1.6510731 h 0.792515 v 0.9340356 h -0.792515 v 2.9624969 q 0,0.254737 0.122651,0.3679534 0.132086,0.1037818 0.358519,0.1037818 0.113216,0 0.216998,-0.00943 0.103782,-0.018869 0.188694,-0.028304 v 1.113295 q -0.132086,0.018869 -0.377388,0.037739 -0.245302,0.028304 -0.500039,0.028304 z"
         id="path7671"
         style="font-size:192px;line-height:1.25;font-family:'Oswald SemiBold';-inkscape-font-specification:'Oswald SemiBold, ';letter-spacing:0.01px;word-spacing:0px;fill:#4d4d4d;stroke-width:0.0491391" />
      <path
         d="m 19.665917,8.5392303 q -0.386823,0 -0.669864,-0.1981288 -0.273606,-0.1981288 -0.415127,-0.5000393 -0.14152,-0.3019105 -0.14152,-0.6226904 0,-0.509474 0.198128,-0.858558 0.198129,-0.349084 0.518909,-0.5849516 0.32078,-0.2358676 0.717038,-0.4056923 0.396257,-0.1698246 0.792515,-0.3113452 v -0.509474 q 0,-0.1792593 -0.0283,-0.3113452 -0.0283,-0.1320858 -0.113217,-0.1981287 -0.07548,-0.075478 -0.226433,-0.075478 -0.150955,0 -0.235867,0.066043 -0.07548,0.056608 -0.113217,0.1792593 -0.0283,0.1132165 -0.03774,0.254737 l -0.0283,0.3773882 -1.349162,-0.056608 q 0.04717,-0.9623397 0.500039,-1.4246402 0.4623,-0.4623004 1.386901,-0.4623004 0.830254,0 1.226512,0.4623004 0.396257,0.4528658 0.396257,1.1982074 v 2.5379352 q 0,0.3207799 0.0094,0.5755169 0.01887,0.2453022 0.03774,0.443431 0.0283,0.1886941 0.04717,0.3302146 H 20.85469 Q 20.82639,8.2373198 20.78865,7.9920175 20.75091,7.7467152 20.73204,7.6618029 20.63769,8.0014522 20.373521,8.2750586 20.109349,8.5392303 19.665918,8.5392303 Z M 20.184826,7.529717 q 0.103781,0 0.198129,-0.047173 0.09435,-0.047174 0.160389,-0.1226511 0.07548,-0.075478 0.122652,-0.1415206 V 5.718254 q -0.198129,0.1226511 -0.367954,0.2453023 -0.169824,0.1132164 -0.292476,0.2547369 -0.122651,0.1415206 -0.188694,0.3113453 -0.06604,0.1698246 -0.06604,0.3868228 0,0.2830411 0.113217,0.4528658 0.113216,0.1603899 0.32078,0.1603899 z M 19.967828,2.4161078 20.552779,0.52916687 h 1.44351 L 20.83582,2.4161078 Z"
         id="path7673"
         style="font-size:192px;line-height:1.25;font-family:'Oswald SemiBold';-inkscape-font-specification:'Oswald SemiBold, ';letter-spacing:0.01px;word-spacing:0px;fill:#4d4d4d;stroke-width:0.0491391" />
      <path
         d="m 24.666801,10.294085 q -0.594386,0 -1.037817,-0.122651 -0.433996,-0.122651 -0.679299,-0.3679535 -0.245302,-0.2358676 -0.245302,-0.6132557 0,-0.254737 0.103782,-0.4623005 0.113216,-0.1981287 0.30191,-0.349084 0.198129,-0.1509552 0.424562,-0.2641717 -0.330215,-0.094347 -0.518909,-0.2924758 -0.179259,-0.1981288 -0.179259,-0.509474 0,-0.3302146 0.16039,-0.5660822 0.16039,-0.2358676 0.443431,-0.4811698 -0.283041,-0.2358676 -0.424562,-0.5849516 -0.14152,-0.3490841 -0.14152,-0.8774275 0,-0.6132557 0.216998,-1.0378173 0.216998,-0.4245617 0.632125,-0.6415599 0.424562,-0.2264328 1.018948,-0.2264328 0.424562,0 0.735907,0.1226511 0.311345,0.1132164 0.518908,0.3396493 0.09435,-0.1415205 0.273607,-0.2924758 0.179259,-0.1603899 0.405692,-0.2736064 l 0.188694,-0.084912 0.339649,0.7170374 q -0.09435,0.028304 -0.264171,0.094347 -0.16039,0.066043 -0.330215,0.1415205 -0.16039,0.075478 -0.273606,0.1415206 0.09435,0.1981288 0.150955,0.4717352 0.05661,0.2736063 0.05661,0.5472127 0,0.575517 -0.198129,1.0000786 -0.198128,0.4245617 -0.594386,0.6509945 -0.396257,0.2264329 -1.009513,0.2264329 -0.235868,0 -0.452866,-0.037739 -0.207563,-0.037739 -0.396257,-0.094347 -0.05661,0.075478 -0.103782,0.1698246 -0.03774,0.084912 -0.03774,0.1792594 0,0.1132164 0.103782,0.1792594 0.113216,0.066043 0.396257,0.094347 l 1.311424,0.1415205 q 0.688733,0.075478 1.009513,0.4434311 0.330215,0.3585187 0.330215,0.9623397 0,0.5000393 -0.226433,0.8491233 -0.226433,0.3490841 -0.726472,0.5283437 -0.490605,0.179259 -1.283121,0.179259 z m 0.169825,-1.047252 q 0.518909,0 0.792515,-0.094347 0.273606,-0.094347 0.273606,-0.3679534 0,-0.1320859 -0.07548,-0.2264329 -0.06604,-0.084912 -0.245303,-0.1415206 -0.169824,-0.056608 -0.481169,-0.084912 l -0.98121,-0.094347 q -0.09435,0.075478 -0.169824,0.1603899 -0.07548,0.084912 -0.122651,0.1792594 -0.04717,0.094347 -0.04717,0.2075635 0,0.2264328 0.235868,0.3396493 0.245302,0.1226511 0.820819,0.1226511 z m -0.09435,-3.4153626 q 0.150955,0 0.245302,-0.056608 0.09435,-0.056608 0.141521,-0.1792594 0.04717,-0.1226511 0.06604,-0.3207799 0.01887,-0.1981288 0.01887,-0.4717352 0,-0.2736064 -0.01887,-0.4623004 -0.01887,-0.1981288 -0.06604,-0.3207799 -0.04717,-0.1320859 -0.141521,-0.1886941 -0.09435,-0.056608 -0.245302,-0.056608 -0.141521,0 -0.245302,0.056608 -0.09435,0.056608 -0.141521,0.1792594 -0.04717,0.1226511 -0.06604,0.3207799 -0.01887,0.1981287 -0.01887,0.4717351 0,0.2641717 0.01887,0.4623005 0.01887,0.1886941 0.06604,0.3207799 0.04717,0.1226512 0.141521,0.1886941 0.09435,0.056608 0.245302,0.056608 z"
         id="path7675"
         style="font-size:192px;line-height:1.25;font-family:'Oswald SemiBold';-inkscape-font-specification:'Oswald SemiBold, ';letter-spacing:0.01px;word-spacing:0px;fill:#4d4d4d;stroke-width:0.0491391" />
      <path
         d="m 29.271418,8.5392303 q -0.584952,0 -1.000079,-0.2075635 Q 27.856213,8.1146686 27.639214,7.7089764 27.431651,7.3032841 27.431651,6.6994631 V 4.7370448 q 0,-0.603821 0.207563,-1.0095132 0.216999,-0.4056923 0.632125,-0.6132558 0.415127,-0.2169981 1.000079,-0.2169981 0.584952,0 1.000079,0.2169981 0.415127,0.2075635 0.632125,0.6132558 0.216998,0.4056922 0.216998,1.0095132 v 1.9624183 q 0,0.603821 -0.216998,1.0095133 -0.216998,0.4056922 -0.632125,0.6226904 -0.415127,0.2075635 -1.000079,0.2075635 z m 0.0094,-0.9623398 q 0.179259,0 0.273606,-0.094347 0.09435,-0.1037817 0.122651,-0.2736064 0.0283,-0.1792594 0.0283,-0.4056922 V 4.6426978 q 0,-0.2358676 -0.0283,-0.4056923 -0.0283,-0.1698246 -0.122651,-0.2736064 -0.09435,-0.1037817 -0.273606,-0.1037817 -0.17926,0 -0.273607,0.1037817 -0.09435,0.1037818 -0.132085,0.2736064 -0.0283,0.1698247 -0.0283,0.4056923 v 2.1605471 q 0,0.2264328 0.0283,0.4056922 0.03774,0.1698247 0.132085,0.2736064 0.09435,0.094347 0.273607,0.094347 z"
         id="path7677"
         style="font-size:192px;line-height:1.25;font-family:'Oswald SemiBold';-inkscape-font-specification:'Oswald SemiBold, ';letter-spacing:0.01px;word-spacing:0px;fill:#4d4d4d;stroke-width:0.0491391" />
      <path
         d="M 31.989109,8.4448832 V 2.9916247 h 1.42464 v 0.5472128 q 0.292476,-0.2924758 0.613256,-0.4623005 0.330214,-0.1792593 0.698168,-0.1792593 0.339649,0 0.547213,0.1698246 0.216998,0.1698247 0.32078,0.4528658 0.103781,0.2736064 0.103781,0.6226904 V 8.4448832 H 34.281742 V 4.3785261 q 0,-0.2264329 -0.07548,-0.3396493 -0.06604,-0.1132165 -0.264171,-0.1132165 -0.113217,0 -0.254737,0.066043 -0.132086,0.056608 -0.273607,0.1603899 v 4.29279 z"
         id="path7679"
         style="font-size:192px;line-height:1.25;font-family:'Oswald SemiBold';-inkscape-font-specification:'Oswald SemiBold, ';letter-spacing:0.01px;word-spacing:0px;fill:#4d4d4d;stroke-width:0.0491391" />
      <path
         d="m 38.36746,8.5392303 q -0.584952,0 -1.000079,-0.2075635 Q 36.952254,8.1146686 36.735256,7.7089764 36.527693,7.3032841 36.527693,6.6994631 V 4.7370448 q 0,-0.603821 0.207563,-1.0095132 0.216998,-0.4056923 0.632125,-0.6132558 0.415127,-0.2169981 1.000079,-0.2169981 0.584951,0 1.000078,0.2169981 0.415127,0.2075635 0.632125,0.6132558 0.216999,0.4056922 0.216999,1.0095132 v 1.9624183 q 0,0.603821 -0.216999,1.0095133 -0.216998,0.4056922 -0.632125,0.6226904 -0.415127,0.2075635 -1.000078,0.2075635 z m 0.0094,-0.9623398 q 0.17926,0 0.273607,-0.094347 0.09435,-0.1037817 0.122651,-0.2736064 0.0283,-0.1792594 0.0283,-0.4056922 V 4.6426978 q 0,-0.2358676 -0.0283,-0.4056923 -0.0283,-0.1698246 -0.122651,-0.2736064 -0.09435,-0.1037817 -0.273607,-0.1037817 -0.179259,0 -0.273606,0.1037817 -0.09435,0.1037818 -0.132086,0.2736064 -0.0283,0.1698247 -0.0283,0.4056923 v 2.1605471 q 0,0.2264328 0.0283,0.4056922 0.03774,0.1698247 0.132086,0.2736064 0.09435,0.094347 0.273606,0.094347 z"
         id="path7681"
         style="font-size:192px;line-height:1.25;font-family:'Oswald SemiBold';-inkscape-font-specification:'Oswald SemiBold, ';letter-spacing:0.01px;word-spacing:0px;fill:#4d4d4d;stroke-width:0.0491391" />
      <g
         style="stroke:none"
         transform="matrix(0.28136815,0,0,0.28136815,23.711078,-21.694072)"
         id="g24137-6-3-4-9">
        <path
           id="path22005-2-9-9-4"
           style="opacity:1;fill:#ba2d0b;stroke-width:0.0849535;stroke-opacity:0"
           d="m -56.955334,96.318573 a 3,3 0 0 1 -3,3 3,3 0 0 1 -3,-3 3,3 0 0 1 3,-3 3,3 0 0 1 3,3 z" />
        <g
           style="stroke:none"
           transform="translate(-2.612657,43.562831)"
           id="g22481-8-5-0-5-2">
          <path
             inkscape:connector-curvature="0"
             id="path19701-46-0-0-6-8-7-94-9-2-4-3-2"
             d="m -49.717852,46.938241 c 0.163634,0.384925 0.875518,0.991314 1.202424,1.761264 0.326906,0.76995 0.268916,1.703411 0.210944,2.636591 -0.05797,0.93318 -0.115979,1.86687 0.595624,2.473042 0.711602,0.606172 2.193897,0.885716 2.882073,0.366422 0.688176,-0.519294 0.582689,-1.837513 0.284703,-3.074243 -0.297985,-1.236729 -0.788302,-2.391266 -1.582085,-3.190286 -0.793783,-0.799019 -1.890392,-1.241853 -2.631388,-1.381523 -0.740995,-0.13967 -1.125929,0.02381 -0.962295,0.408733 z"
             style="fill:#ff5614;fill-opacity:0.866667;stroke:none;stroke-width:0.250927px;stroke-linecap:butt;stroke-linejoin:miter;stroke-opacity:1" />
          <path
             inkscape:connector-curvature="0"
             id="path19701-46-0-0-6-8-7-3-0-4-0-6-3-8-6"
             d="m -64.9675,58.573245 c -0.163635,-0.384923 -0.875524,-0.991316 -1.202427,-1.761264 -0.326904,-0.769948 -0.268915,-1.703409 -0.210942,-2.636594 0.05797,-0.933185 0.115978,-1.866865 -0.595625,-2.473039 -0.711602,-0.606174 -2.193897,-0.885721 -2.882073,-0.366429 -0.688176,0.519293 -0.582689,1.837512 -0.284701,3.074246 0.297987,1.236734 0.788301,2.391262 1.582084,3.190282 0.793783,0.799019 1.890391,1.241853 2.631387,1.381524 0.740996,0.139672 1.125931,-0.0238 0.962297,-0.408726 z"
             style="fill:#6053cc;fill-opacity:0.866667;stroke:none;stroke-width:0.250927px;stroke-linecap:butt;stroke-linejoin:miter;stroke-opacity:1" />
          <path
             inkscape:connector-curvature="0"
             id="path19701-46-0-0-6-8-7-1-1-2-9-3-1-4"
             d="m -51.606867,60.188218 c -0.303235,0.355988 -0.909624,1.067872 -1.679575,1.394778 -0.76995,0.326906 -1.70341,0.268916 -2.636592,0.210943 -0.933181,-0.05797 -1.866865,-0.115977 -2.473039,0.595624 -0.606174,0.711601 -0.885719,2.193899 -0.366428,2.882073 0.519291,0.688173 1.837514,0.582688 3.074246,0.284702 1.236731,-0.297986 2.391261,-0.788299 3.190282,-1.582083 0.799022,-0.793783 1.241855,-1.890391 1.381525,-2.631391 0.13967,-0.740999 -0.02381,-1.12593 -0.105498,-1.318283 -0.08169,-0.192352 -0.08169,-0.192352 -0.384921,0.163637 z"
             style="fill:#d7263c;fill-opacity:0.866667;stroke:none;stroke-width:0.250927px;stroke-linecap:butt;stroke-linejoin:miter;stroke-opacity:1" />
          <path
             inkscape:connector-curvature="0"
             id="path19701-46-0-0-6-8-7-3-0-1-4-4-1-4-07-1"
             d="m -63.078491,45.32327 c 0.303234,-0.355988 0.909628,-1.067878 1.679576,-1.394781 0.769948,-0.326903 1.703406,-0.268913 2.636588,-0.21094 0.933182,0.05797 1.866866,0.115977 2.473041,-0.595624 0.606174,-0.711601 0.885719,-2.1939 0.366427,-2.882076 -0.519292,-0.688176 -1.837514,-0.582688 -3.074244,-0.284701 -1.23673,0.297986 -2.391261,0.788301 -3.190283,1.582085 -0.799022,0.793783 -1.241857,1.890391 -1.381526,2.631386 -0.13967,0.740995 0.02381,1.125927 0.105498,1.318283 0.08169,0.192357 0.08169,0.192357 0.384923,-0.163632 z"
             style="fill:#378659;fill-opacity:0.866667;stroke:none;stroke-width:0.250927px;stroke-linecap:butt;stroke-linejoin:miter;stroke-opacity:1" />
          <path
             inkscape:connector-curvature="0"
             id="path19701-46-0-0-6-8-7-9-9-7-3-2-2-28"
             d="m -66.65406,51.556022 c -0.0373,-0.466136 -0.111899,-1.398306 0.201381,-2.173898 0.31328,-0.775592 1.014342,-1.394642 1.715194,-2.013507 0.700851,-0.618865 1.402084,-1.238066 1.327533,-2.169873 -0.07455,-0.931808 -0.925026,-2.177621 -1.778834,-2.29704 -0.853809,-0.119419 -1.711341,0.887294 -2.375134,1.972505 -0.663794,1.085212 -1.133466,2.248295 -1.137169,3.374577 -0.0037,1.126282 0.458587,2.214833 0.883787,2.837557 0.425201,0.622724 0.812987,0.779316 1.006767,0.857566 0.193779,0.07825 0.193777,0.07825 0.156475,-0.387887 z"
             style="fill:#aaa95a;fill-opacity:0.866667;stroke:none;stroke-width:0.250927px;stroke-linecap:butt;stroke-linejoin:miter;stroke-opacity:1" />
          <path
             inkscape:connector-curvature="0"
             id="path19701-46-0-0-6-8-7-3-6-8-6-3-4-8-8"
             d="m -58.5424,43.444356 c -0.466142,-0.0373 -1.398303,-0.111899 -2.173895,0.201382 -0.775593,0.313282 -1.394642,1.014341 -2.01351,1.715195 -0.618867,0.700853 -1.238067,1.402082 -2.169872,1.327532 -0.931806,-0.07455 -2.177616,-0.925022 -2.297037,-1.77883 -0.119421,-0.853807 0.887297,-1.711342 1.972505,-2.375133 1.085208,-0.663791 2.24829,-1.133465 3.374573,-1.137168 1.126283,-0.0037 2.21483,0.458585 2.837555,0.883785 0.622725,0.4252 0.77932,0.812988 0.85757,1.006764 0.07825,0.193776 0.07825,0.193776 -0.387889,0.156473 z"
             style="fill:#aaa95a;fill-opacity:0.866667;stroke:none;stroke-width:0.250927px;stroke-linecap:butt;stroke-linejoin:miter;stroke-opacity:1" />
          <path
             inkscape:connector-curvature="0"
             id="path19701-46-0-0-6-8-7-2-8-3-5-1-5-8-9"
             d="m -56.142955,62.067132 c 0.466143,0.0373 1.398302,0.111899 2.173895,-0.201382 0.775593,-0.313281 1.394643,-1.014341 2.013509,-1.715196 0.618867,-0.700854 1.238065,-1.402084 2.169874,-1.327535 0.931809,0.07455 2.177617,0.925024 2.297037,1.778832 0.119421,0.853809 -0.887298,1.711344 -1.972506,2.375136 -1.085208,0.663791 -2.248289,1.133464 -3.374572,1.137168 -1.126283,0.0037 -2.214832,-0.458586 -2.837557,-0.883786 -0.622724,-0.4252 -0.779318,-0.812989 -0.857569,-1.006769 -0.07825,-0.193781 -0.07825,-0.193771 0.387889,-0.156468 z"
             style="fill:#177e89;fill-opacity:0.866667;stroke:none;stroke-width:0.250927px;stroke-linecap:butt;stroke-linejoin:miter;stroke-opacity:1" />
          <path
             inkscape:connector-curvature="0"
             id="path19701-46-0-0-6-8-7-3-0-0-8-7-5-3-8-2"
             d="m -48.031294,53.955461 c 0.0373,0.466141 0.111899,1.398311 -0.201381,2.173903 -0.31328,0.775592 -1.014337,1.394638 -1.715191,2.013505 -0.700855,0.618867 -1.402086,1.238067 -1.327536,2.169875 0.07455,0.931809 0.925025,2.177621 1.778834,2.29704 0.853808,0.119419 1.711341,-0.887293 2.375134,-1.972505 0.663794,-1.085212 1.133467,-2.248295 1.137169,-3.374577 0.0037,-1.126282 -0.458587,-2.214834 -0.883787,-2.837557 -0.425201,-0.622724 -0.812987,-0.779316 -1.006767,-0.857566 -0.193779,-0.07825 -0.193778,-0.07826 -0.156475,0.387882 z"
             style="fill:#177e89;fill-opacity:0.866667;stroke:none;stroke-width:0.250927px;stroke-linecap:butt;stroke-linejoin:miter;stroke-opacity:1" />
          <path
             inkscape:connector-curvature="0"
             id="path19701-46-0-0-6-8-7-1-0-5-1-2-8-9-8"
             d="m -56.142958,43.444356 c 0.466143,-0.0373 1.398304,-0.111899 2.173897,0.201382 0.775593,0.313282 1.394642,1.014341 2.013507,1.715192 0.618865,0.700851 1.23807,1.402084 2.169876,1.327535 0.931806,-0.07455 2.177614,-0.925022 2.297036,-1.778829 0.119421,-0.853808 -0.887297,-1.711343 -1.972505,-2.375134 -1.085208,-0.663791 -2.24829,-1.133464 -3.374573,-1.137168 -1.126284,-0.0037 -2.214831,0.458585 -2.837556,0.883785 -0.622725,0.425199 -0.77932,0.812988 -0.85757,1.006764 -0.07825,0.193776 -0.07825,0.193776 0.387888,0.156473 z"
             style="fill:#ffb800;fill-opacity:0.866667;stroke:none;stroke-width:0.250927px;stroke-linecap:butt;stroke-linejoin:miter;stroke-opacity:1" />
          <path
             inkscape:connector-curvature="0"
             id="path19701-46-0-0-6-8-7-2-1-9-2-3-69-1-1-8"
             d="m -66.654065,53.955461 c -0.0373,0.466141 -0.111899,1.398311 0.201381,2.173903 0.313281,0.775592 1.014338,1.394638 1.715192,2.013505 0.700854,0.618867 1.402081,1.238063 1.327533,2.169873 -0.07455,0.93181 -0.925018,2.177616 -1.778829,2.297038 -0.85381,0.119421 -1.71134,-0.887292 -2.375134,-1.972503 -0.663794,-1.085211 -1.133468,-2.248293 -1.137171,-3.374575 -0.0037,-1.126282 0.458586,-2.214833 0.883786,-2.837557 0.425201,-0.622724 0.812988,-0.779316 1.006767,-0.857566 0.193779,-0.07825 0.193778,-0.07826 0.156475,0.387882 z"
             style="fill:#0d3b65;fill-opacity:0.866667;stroke:none;stroke-width:0.250927px;stroke-linecap:butt;stroke-linejoin:miter;stroke-opacity:1" />
          <path
             inkscape:connector-curvature="0"
             id="path19701-46-0-0-6-8-7-3-0-1-7-2-3-4-1-3-8"
             d="m -58.542404,62.06713 c -0.466142,0.0373 -1.398303,0.111895 -2.173894,-0.201385 -0.775591,-0.313279 -1.394642,-1.014337 -2.01351,-1.715191 -0.618868,-0.700854 -1.238065,-1.402084 -2.169874,-1.327535 -0.931809,0.07455 -2.177617,0.925024 -2.297038,1.778833 -0.11942,0.853808 0.887299,1.711344 1.972506,2.375135 1.085208,0.66379 2.24829,1.133464 3.374573,1.137167 1.126283,0.0037 2.214831,-0.458585 2.837555,-0.883785 0.622725,-0.4252 0.779319,-0.812988 0.85757,-1.006769 0.07825,-0.193781 0.07825,-0.193771 -0.387888,-0.15647 z"
             style="fill:#0d3b65;fill-opacity:0.866667;stroke:none;stroke-width:0.250927px;stroke-linecap:butt;stroke-linejoin:miter;stroke-opacity:1" />
          <path
             inkscape:connector-curvature="0"
             id="path19701-46-0-0-6-8-7-2-1-5-3-46-3-3-68"
             d="m -51.606867,45.32327 c -0.303235,-0.355988 -0.909629,-1.067878 -1.679577,-1.394781 -0.769948,-0.326903 -1.703407,-0.268913 -2.636589,-0.21094 -0.933182,0.05797 -1.866865,0.115977 -2.473039,-0.595624 -0.606174,-0.711601 -0.885719,-2.1939 -0.366428,-2.882076 0.519291,-0.688177 1.837514,-0.582688 3.074243,-0.284702 1.23673,0.297987 2.391263,0.788302 3.190285,1.582085 0.799022,0.793784 1.241857,1.890391 1.381526,2.631386 0.139669,0.740995 -0.02381,1.125927 -0.105499,1.318284 -0.08169,0.192357 -0.08169,0.192357 -0.384922,-0.163632 z"
             style="fill:#388659;fill-opacity:0.866667;stroke:none;stroke-width:0.250927px;stroke-linecap:butt;stroke-linejoin:miter;stroke-opacity:1" />
          <path
             inkscape:connector-curvature="0"
             id="path19701-46-0-0-6-8-7-3-7-2-2-8-0-1-4-3"
             d="m -48.031295,51.556022 c 0.0373,-0.466136 0.111899,-1.398306 -0.201382,-2.173898 -0.313281,-0.775593 -1.014342,-1.394642 -1.715194,-2.013507 -0.700851,-0.618865 -1.402084,-1.238066 -1.327533,-2.169874 0.07455,-0.931808 0.925025,-2.17762 1.778833,-2.297039 0.853809,-0.119418 1.711341,0.887294 2.375135,1.972506 0.663794,1.085211 1.133463,2.248285 1.137167,3.374571 0.0037,1.126287 -0.458584,2.214839 -0.883785,2.837563 -0.425202,0.622724 -0.812987,0.779315 -1.006766,0.857565 -0.193779,0.07825 -0.193778,0.07825 -0.156475,-0.387887 z"
             style="fill:#ffb800;fill-opacity:0.866667;stroke:none;stroke-width:0.250927px;stroke-linecap:butt;stroke-linejoin:miter;stroke-opacity:1" />
          <path
             inkscape:connector-curvature="0"
             id="path19701-46-0-0-6-8-7-3-1-5-74-5-4-8"
             d="m -49.717853,58.573245 c 0.163635,-0.384923 0.875524,-0.991316 1.202427,-1.761264 0.326904,-0.769948 0.268915,-1.703409 0.210942,-2.636594 -0.05797,-0.933185 -0.115978,-1.866865 0.595624,-2.473039 0.711603,-0.606174 2.193898,-0.885721 2.882073,-0.366429 0.688176,0.519293 0.582689,1.837512 0.284702,3.074246 -0.297988,1.236734 -0.788301,2.391262 -1.582084,3.190282 -0.793783,0.799019 -1.890392,1.241853 -2.631388,1.381524 -0.740996,0.139672 -1.125931,-0.0238 -0.962296,-0.408726 z"
             style="fill:#ff5614;fill-opacity:0.866667;stroke:none;stroke-width:0.250927px;stroke-linecap:butt;stroke-linejoin:miter;stroke-opacity:1" />
          <path
             inkscape:connector-curvature="0"
             id="path19701-46-0-0-6-8-7-3-7-5-1-3-8-1-3"
             d="m -63.078491,60.188218 c 0.303234,0.355988 0.909623,1.067872 1.679574,1.394778 0.76995,0.326906 1.703409,0.268916 2.636591,0.210943 0.933181,-0.05797 1.866866,-0.115977 2.47304,0.595624 0.606175,0.711601 0.88572,2.193899 0.366428,2.882073 -0.519292,0.688173 -1.837514,0.582688 -3.074246,0.284702 -1.236732,-0.297986 -2.39126,-0.788299 -3.190282,-1.582083 -0.799021,-0.793783 -1.241855,-1.890392 -1.381525,-2.631391 -0.13967,-0.740999 0.02381,-1.125931 0.105498,-1.318283 0.08169,-0.192352 0.08169,-0.192352 0.384922,0.163637 z"
             style="fill:#d7263c;fill-opacity:0.866667;stroke:none;stroke-width:0.250927px;stroke-linecap:butt;stroke-linejoin:miter;stroke-opacity:1" />
          <path
             inkscape:connector-curvature="0"
             id="path19701-46-0-0-6-8-7-2-5-0-7-1-9-3"
             d="m -64.967501,46.938241 c -0.163634,0.384925 -0.875518,0.991314 -1.202424,1.761264 -0.326906,0.76995 -0.268916,1.703411 -0.210944,2.636591 0.05797,0.93318 0.115978,1.86687 -0.595624,2.473042 -0.711602,0.606172 -2.193897,0.885716 -2.882073,0.366422 -0.688177,-0.519294 -0.58269,-1.837513 -0.284704,-3.074243 0.297986,-1.23673 0.788303,-2.391266 1.582086,-3.190286 0.793783,-0.799019 1.890391,-1.241853 2.631387,-1.381523 0.740995,-0.13967 1.125929,0.02381 0.962296,0.408733 z"
             style="fill:#6053cc;fill-opacity:0.866667;stroke:none;stroke-width:0.250927px;stroke-linecap:butt;stroke-linejoin:miter;stroke-opacity:1" />
        </g>
      </g>
      <path
         d="m 28.089107,2.4107592 q -0.104304,0 -0.198836,-0.032597 -0.09453,-0.032596 -0.164609,-0.09127 -0.07008,-0.058674 -0.102685,-0.1352754 -0.01629,-0.034226 0,-0.063563 0.01793,-0.029337 0.05867,-0.037486 0.02934,-0.00652 0.05705,0.00978 0.02934,0.014669 0.04401,0.045635 0.01956,0.040746 0.06356,0.074972 0.04564,0.034226 0.1092,0.055414 0.06356,0.021188 0.133641,0.021188 0.07823,0 0.143427,-0.024448 0.06682,-0.024447 0.107568,-0.070082 0.04075,-0.047265 0.04075,-0.1157176 0,-0.08638 -0.06845,-0.1548332 Q 28.245573,1.824024 28.090745,1.807726 27.888646,1.788168 27.77293,1.688749 27.657209,1.58933 27.657209,1.442646 q 0,-0.1075687 0.06031,-0.1825406 0.0603,-0.074971 0.162984,-0.1140869 0.10431,-0.039116 0.231436,-0.039116 0.09942,0 0.172757,0.027707 0.07497,0.027707 0.130389,0.076601 0.05541,0.048895 0.09616,0.1157176 0.02281,0.035856 0.01793,0.068452 -0.0032,0.030967 -0.03096,0.048895 -0.03097,0.019558 -0.06683,0.00815 -0.03585,-0.011409 -0.05378,-0.042376 -0.02607,-0.047265 -0.06356,-0.079861 -0.03748,-0.032596 -0.08801,-0.050524 -0.05052,-0.019559 -0.118973,-0.019559 -0.12061,-0.00163 -0.202099,0.045635 -0.08149,0.045635 -0.08149,0.1417949 0,0.048894 0.02445,0.094529 0.02607,0.044005 0.0929,0.076602 0.06845,0.032596 0.195578,0.045635 0.193947,0.019558 0.301515,0.118977 0.1092,0.097789 0.1092,0.2591413 0,0.0929 -0.03912,0.1613521 -0.03749,0.068453 -0.102679,0.1157176 -0.06356,0.045635 -0.146683,0.068452 -0.0815,0.022818 -0.169506,0.022818 z"
         id="path7685"
         style="font-weight:bold;font-size:26.6667px;line-height:1.25;font-family:Comfortaa;-inkscape-font-specification:'Comfortaa Bold';text-align:center;letter-spacing:0.01px;word-spacing:0px;text-anchor:middle;fill:#c1c8c2;stroke-width:0.0611182" />
      <path
         d="m 29.194736,2.4009803 q -0.132015,0 -0.233062,-0.057044 -0.101047,-0.058673 -0.15972,-0.1597227 -0.05705,-0.1026787 -0.05705,-0.234694 0,-0.1336454 0.05705,-0.2346946 0.05867,-0.1026787 0.15972,-0.1597221 0.101047,-0.058674 0.233062,-0.058674 0.13039,0 0.231437,0.058674 0.101046,0.057043 0.158094,0.1597221 0.05867,0.1010492 0.05867,0.2346946 0,0.1320153 -0.05705,0.234694 -0.05704,0.1010492 -0.158089,0.1597227 -0.101052,0.057044 -0.233068,0.057044 z m 0,-0.1466844 q 0.08475,0 0.149948,-0.039116 0.06519,-0.039116 0.101046,-0.107568 0.03748,-0.068453 0.03748,-0.1580927 0,-0.08964 -0.03748,-0.1580927 -0.03586,-0.070083 -0.101046,-0.1091981 -0.06519,-0.039116 -0.149948,-0.039116 -0.08475,0 -0.149941,0.039116 -0.06519,0.039116 -0.102679,0.1091981 -0.03748,0.068452 -0.03748,0.1580927 0,0.08964 0.03748,0.1580927 0.03748,0.068452 0.102679,0.107568 0.06519,0.039116 0.149941,0.039116 z"
         id="path7687"
         style="font-weight:bold;font-size:26.6667px;line-height:1.25;font-family:Comfortaa;-inkscape-font-specification:'Comfortaa Bold';text-align:center;letter-spacing:0.01px;word-spacing:0px;text-anchor:middle;fill:#c1c8c2;stroke-width:0.0611182" />
      <path
         d="m 30.295475,2.4009803 q -0.130383,0 -0.233062,-0.058674 -0.101046,-0.060303 -0.15972,-0.1613522 -0.05705,-0.1026786 -0.05705,-0.2314345 0,-0.1320154 0.05705,-0.2346946 0.05704,-0.1026787 0.156463,-0.1597221 0.09941,-0.058674 0.228172,-0.058674 0.09616,0 0.176021,0.037486 0.07986,0.035856 0.143426,0.1091981 0.02282,0.026077 0.01629,0.053784 -0.0065,0.027707 -0.03585,0.048895 -0.02282,0.016298 -0.05053,0.011409 -0.02771,-0.00652 -0.05053,-0.029337 -0.07986,-0.084751 -0.198836,-0.084751 -0.08312,0 -0.146683,0.039116 -0.06356,0.037486 -0.09942,0.1059386 -0.03585,0.068453 -0.03585,0.1613522 0,0.08801 0.03585,0.1564626 0.03749,0.068453 0.102678,0.1091981 0.06519,0.039116 0.151573,0.039116 0.05705,0 0.09942,-0.013038 0.044,-0.014668 0.07986,-0.044005 0.02607,-0.021188 0.05378,-0.022818 0.02771,-0.00326 0.04889,0.014668 0.02771,0.022818 0.03096,0.052155 0.0032,0.027707 -0.01956,0.050525 -0.117347,0.1091981 -0.293368,0.1091981 z"
         id="path7689"
         style="font-weight:bold;font-size:26.6667px;line-height:1.25;font-family:Comfortaa;-inkscape-font-specification:'Comfortaa Bold';text-align:center;letter-spacing:0.01px;word-spacing:0px;text-anchor:middle;fill:#c1c8c2;stroke-width:0.0611182" />
      <path
         d="m 30.970838,2.3944608 q -0.03586,0 -0.0603,-0.022818 -0.02282,-0.024447 -0.02282,-0.060303 V 1.5860689 q 0,-0.037486 0.02282,-0.060303 0.02445,-0.022818 0.0603,-0.022818 0.03748,0 0.0603,0.022818 0.02282,0.022817 0.02282,0.060303 V 2.31134 q 0,0.035856 -0.02282,0.060303 -0.02282,0.022818 -0.0603,0.022818 z m 0,-1.0365664 q -0.04401,0 -0.07661,-0.030967 -0.03097,-0.032596 -0.03097,-0.076602 0,-0.044005 0.03097,-0.074971 0.0326,-0.032597 0.07661,-0.032597 0.044,0 0.07497,0.032597 0.0326,0.030966 0.0326,0.074971 0,0.044006 -0.0326,0.076602 -0.03096,0.030967 -0.07497,0.030967 z"
         id="path7691"
         style="font-weight:bold;font-size:26.6667px;line-height:1.25;font-family:Comfortaa;-inkscape-font-specification:'Comfortaa Bold';text-align:center;letter-spacing:0.01px;word-spacing:0px;text-anchor:middle;fill:#c1c8c2;stroke-width:0.0611182" />
      <path
         d="m 31.73583,2.4009803 q -0.118972,0 -0.213504,-0.058674 -0.09453,-0.060303 -0.149941,-0.1613522 -0.05378,-0.1026786 -0.05378,-0.2314345 0,-0.128756 0.05867,-0.2314346 0.0603,-0.1026786 0.161352,-0.1613527 0.102679,-0.060303 0.229805,-0.060303 0.127126,0 0.228173,0.060303 0.101046,0.058674 0.15972,0.1613527 0.0603,0.1026786 0.0603,0.2314346 h -0.06356 q 0,0.1287559 -0.05542,0.2314345 -0.05378,0.1010493 -0.148309,0.1613522 -0.09453,0.058674 -0.213511,0.058674 z m 0.0326,-0.1466844 q 0.08312,0 0.148309,-0.039116 0.06519,-0.040746 0.102679,-0.1091981 0.03749,-0.070082 0.03749,-0.1564626 0,-0.08801 -0.03749,-0.1564627 -0.03748,-0.070082 -0.102679,-0.1091981 -0.06519,-0.040746 -0.148309,-0.040746 -0.0815,0 -0.148316,0.040746 -0.06519,0.039116 -0.10431,0.1091981 -0.03748,0.068452 -0.03748,0.1564627 0,0.08638 0.03748,0.1564626 0.03912,0.068453 0.10431,0.1091981 0.06682,0.039116 0.148316,0.039116 z m 0.365077,0.1417943 q -0.03586,0 -0.0603,-0.022817 -0.02282,-0.024447 -0.02282,-0.060303 V 2.063607 l 0.03097,-0.172761 0.135273,0.058674 v 0.3634499 q 0,0.035856 -0.02445,0.060303 -0.02282,0.022817 -0.05867,0.022817 z"
         id="path7693"
         style="font-weight:bold;font-size:26.6667px;line-height:1.25;font-family:Comfortaa;-inkscape-font-specification:'Comfortaa Bold';text-align:center;letter-spacing:0.01px;word-spacing:0px;text-anchor:middle;fill:#c1c8c2;stroke-width:0.0611182" />
      <path
         d="m 32.67685,2.3944608 q -0.07171,0 -0.127126,-0.039116 -0.05542,-0.039116 -0.08638,-0.1059386 -0.03097,-0.068453 -0.03097,-0.1564627 V 1.2030611 q 0,-0.035856 0.02281,-0.058674 0.02282,-0.022817 0.05867,-0.022817 0.03586,0 0.05867,0.022817 0.02282,0.022817 0.02282,0.058674 v 0.8898827 q 0,0.060303 0.02282,0.099419 0.02282,0.039116 0.05867,0.039116 h 0.04075 q 0.03259,0 0.05215,0.022817 0.02119,0.022818 0.02119,0.058674 0,0.035856 -0.03097,0.058673 -0.03097,0.022818 -0.07986,0.022818 z"
         id="path7695"
         style="font-weight:bold;font-size:26.6667px;line-height:1.25;font-family:Comfortaa;-inkscape-font-specification:'Comfortaa Bold';text-align:center;letter-spacing:0.01px;word-spacing:0px;text-anchor:middle;fill:#c1c8c2;stroke-width:0.0611182" />
      <path
         d="m 33.532095,2.3944608 q -0.03586,0 -0.0603,-0.024447 -0.02282,-0.024447 -0.02282,-0.060304 V 1.2063206 q 0,-0.037486 0.02282,-0.060303 0.02445,-0.024447 0.0603,-0.024447 0.03912,0 0.0652,0.030966 l 0.710603,0.9452967 V 1.2063206 q 0,-0.037486 0.02445,-0.060303 0.02445,-0.024447 0.0603,-0.024447 0.03749,0 0.0603,0.024447 0.02282,0.022817 0.02282,0.060303 V 2.30971 q 0,0.035856 -0.02282,0.060304 -0.02282,0.024447 -0.0603,0.024447 -0.01629,0 -0.03585,-0.00652 -0.01793,-0.00815 -0.02934,-0.022817 L 33.616848,1.4198273 V 2.30971 q 0,0.035856 -0.02445,0.060304 -0.02282,0.024447 -0.06031,0.024447 z"
         id="path7697"
         style="font-weight:bold;font-size:26.6667px;line-height:1.25;font-family:Comfortaa;-inkscape-font-specification:'Comfortaa Bold';text-align:center;letter-spacing:0.01px;word-spacing:0px;text-anchor:middle;fill:#c1c8c2;stroke-width:0.0611182" />
      <path
         d="m 35.204901,2.4009803 q -0.135273,0 -0.241209,-0.057044 -0.10431,-0.058673 -0.164616,-0.1597227 -0.05867,-0.1026787 -0.05867,-0.234694 0,-0.1336454 0.05542,-0.2346946 0.05704,-0.1026787 0.156462,-0.1597221 0.09942,-0.058674 0.228173,-0.058674 0.127126,0 0.2184,0.057044 0.09127,0.055414 0.13853,0.1548333 0.0489,0.097789 0.0489,0.2265451 0,0.030967 -0.02119,0.052154 -0.02119,0.019558 -0.05378,0.019558 H 34.854492 V 1.8761776 h 0.65193 l -0.06683,0.045635 q -0.0016,-0.081491 -0.03259,-0.1450543 -0.03097,-0.065193 -0.08801,-0.1026786 -0.05704,-0.037486 -0.138537,-0.037486 -0.0929,0 -0.15972,0.040746 -0.06519,0.040746 -0.09942,0.1124576 -0.03423,0.070082 -0.03423,0.1597227 0,0.08964 0.04075,0.1597227 0.04075,0.070082 0.112457,0.1108275 0.07171,0.040746 0.16461,0.040746 0.05053,0 0.102679,-0.017928 0.05378,-0.019559 0.08638,-0.044006 0.02445,-0.017928 0.05215,-0.017928 0.02934,-0.00163 0.05053,0.016298 0.02771,0.024447 0.02934,0.053784 0.0017,0.029337 -0.02608,0.050525 -0.05542,0.044005 -0.138537,0.071712 -0.08149,0.027707 -0.156463,0.027707 z"
         id="path7699"
         style="font-weight:bold;font-size:26.6667px;line-height:1.25;font-family:Comfortaa;-inkscape-font-specification:'Comfortaa Bold';text-align:center;letter-spacing:0.01px;word-spacing:0px;text-anchor:middle;fill:#c1c8c2;stroke-width:0.0611182" />
      <path
         d="m 36.123105,2.3944608 q -0.08149,0 -0.146684,-0.040746 -0.0652,-0.042375 -0.102679,-0.1140876 -0.03748,-0.071712 -0.03748,-0.1613521 V 1.3008503 q 0,-0.035856 0.02282,-0.058674 0.02282,-0.022817 0.05867,-0.022817 0.03586,0 0.05867,0.022817 0.02282,0.022817 0.02282,0.058674 v 0.7774251 q 0,0.065193 0.03586,0.1091981 0.03586,0.044005 0.08801,0.044005 h 0.05542 q 0.02934,0 0.04889,0.022817 0.02118,0.022818 0.02118,0.058674 0,0.035856 -0.0277,0.058673 -0.02608,0.022818 -0.06845,0.022818 z m -0.36182,-0.7187516 q -0.03423,0 -0.05542,-0.019558 -0.02118,-0.019558 -0.02118,-0.048895 0,-0.032596 0.02118,-0.052154 0.02119,-0.019558 0.05542,-0.019558 h 0.376488 q 0.03423,0 0.05542,0.019558 0.02118,0.019558 0.02118,0.052154 0,0.029337 -0.02118,0.048895 -0.02119,0.019558 -0.05542,0.019558 z"
         id="path7701"
         style="font-weight:bold;font-size:26.6667px;line-height:1.25;font-family:Comfortaa;-inkscape-font-specification:'Comfortaa Bold';text-align:center;letter-spacing:0.01px;word-spacing:0px;text-anchor:middle;fill:#c1c8c2;stroke-width:0.0611182" />
      <path
         d="m 36.658299,2.3944608 q -0.02608,0 -0.0489,-0.014668 -0.02118,-0.016298 -0.02934,-0.039116 L 36.338852,1.6170357 q -0.01304,-0.050525 0,-0.081491 0.01467,-0.032597 0.06193,-0.032597 0.03097,0 0.05053,0.017928 0.02118,0.016298 0.03423,0.057044 l 0.205357,0.6421497 h -0.05704 l 0.193946,-0.655188 q 0.0081,-0.027707 0.0277,-0.044005 0.01956,-0.017928 0.05378,-0.017928 0.0326,0 0.05216,0.017928 0.02118,0.016298 0.02771,0.044005 L 37.14725,2.1809537 H 37.1228 L 37.315112,1.57792 q 0.02282,-0.074972 0.08475,-0.074972 0.04564,0 0.06193,0.032597 0.0163,0.030966 -0.0016,0.081491 L 37.21893,2.3406768 q -0.0065,0.022817 -0.0277,0.039116 -0.02119,0.014668 -0.04889,0.014668 -0.02608,0 -0.0489,-0.014668 -0.02282,-0.016298 -0.02934,-0.039116 L 36.896226,1.7197143 h 0.0163 l -0.17602,0.6209625 q -0.0065,0.022817 -0.02934,0.039116 -0.02119,0.014668 -0.0489,0.014668 z"
         id="path7703"
         style="font-weight:bold;font-size:26.6667px;line-height:1.25;font-family:Comfortaa;-inkscape-font-specification:'Comfortaa Bold';text-align:center;letter-spacing:0.01px;word-spacing:0px;text-anchor:middle;fill:#c1c8c2;stroke-width:0.0611182" />
      <path
         d="m 38.011658,2.4009803 q -0.132015,0 -0.233062,-0.057044 -0.101053,-0.058673 -0.159726,-0.1597227 -0.05704,-0.1026787 -0.05704,-0.234694 0,-0.1336454 0.05704,-0.2346946 0.05867,-0.1026787 0.159726,-0.1597221 0.101047,-0.058674 0.233062,-0.058674 0.13039,0 0.231437,0.058674 0.101046,0.057043 0.158094,0.1597221 0.05867,0.1010492 0.05867,0.2346946 0,0.1320153 -0.05705,0.234694 -0.05704,0.1010492 -0.158089,0.1597227 -0.101052,0.057044 -0.233068,0.057044 z m 0,-0.1466844 q 0.08475,0 0.149948,-0.039116 0.06519,-0.039116 0.101046,-0.107568 0.03748,-0.068453 0.03748,-0.1580927 0,-0.08964 -0.03748,-0.1580927 -0.03586,-0.070083 -0.101046,-0.1091981 -0.06519,-0.039116 -0.149948,-0.039116 -0.08475,0 -0.149941,0.039116 -0.06519,0.039116 -0.102679,0.1091981 -0.03749,0.068452 -0.03749,0.1580927 0,0.08964 0.03749,0.1580927 0.03748,0.068452 0.102679,0.107568 0.06519,0.039116 0.149941,0.039116 z"
         id="path7705"
         style="font-weight:bold;font-size:26.6667px;line-height:1.25;font-family:Comfortaa;-inkscape-font-specification:'Comfortaa Bold';text-align:center;letter-spacing:0.01px;word-spacing:0px;text-anchor:middle;fill:#c1c8c2;stroke-width:0.0611182" />
      <path
         d="m 38.788067,1.8370619 q 0,-0.09779 0.04726,-0.1743911 0.0489,-0.078231 0.130384,-0.1238664 0.0815,-0.045635 0.179284,-0.045635 0.09779,0 0.145052,0.032597 0.04889,0.030966 0.03748,0.074972 -0.0049,0.022817 -0.01956,0.035856 -0.01304,0.011409 -0.03096,0.014668 -0.01793,0.00326 -0.03911,-0.00163 -0.104311,-0.021188 -0.187432,-0.00326 -0.08312,0.017929 -0.132015,0.066823 -0.04726,0.048895 -0.04726,0.1238665 z m 0.0017,0.5573989 q -0.03912,0 -0.0603,-0.019558 -0.02119,-0.021188 -0.02119,-0.061934 V 1.5844395 q 0,-0.039116 0.02119,-0.060304 0.02118,-0.021188 0.0603,-0.021188 0.04075,0 0.0603,0.021188 0.02119,0.019558 0.02119,0.060304 v 0.7285299 q 0,0.039116 -0.02119,0.060303 -0.01956,0.021188 -0.0603,0.021188 z"
         id="path7707"
         style="font-weight:bold;font-size:26.6667px;line-height:1.25;font-family:Comfortaa;-inkscape-font-specification:'Comfortaa Bold';text-align:center;letter-spacing:0.01px;word-spacing:0px;text-anchor:middle;fill:#c1c8c2;stroke-width:0.0611182" />
      <path
         d="m 39.65737,2.0684965 -0.101046,-0.1108281 0.50035,-0.4465708 q 0.02445,-0.022818 0.05378,-0.021188 0.03097,0.00163 0.05216,0.026077 0.02282,0.024447 0.02118,0.053784 -0.0016,0.029337 -0.02607,0.052154 z m -0.0766,0.3259643 q -0.03586,0 -0.05867,-0.021188 -0.02119,-0.022817 -0.02119,-0.058673 V 1.2014311 q 0,-0.035856 0.02119,-0.057044 0.02282,-0.022817 0.05867,-0.022817 0.03585,0 0.05704,0.022817 0.02282,0.021188 0.02282,0.057044 v 1.1131683 q 0,0.035856 -0.02282,0.058673 -0.02119,0.021188 -0.05704,0.021188 z m 0.581845,-0.00815 q -0.02608,0.021188 -0.05867,0.017928 -0.03097,-0.00163 -0.05216,-0.027707 l -0.330852,-0.4090851 0.11409,-0.1075681 0.338998,0.4172346 q 0.02119,0.026077 0.01793,0.057044 -0.0016,0.029337 -0.02934,0.052154 z"
         id="path7709"
         style="font-weight:bold;font-size:26.6667px;line-height:1.25;font-family:Comfortaa;-inkscape-font-specification:'Comfortaa Bold';text-align:center;letter-spacing:0.01px;word-spacing:0px;text-anchor:middle;fill:#c1c8c2;stroke-width:0.0611182" />
    </g>
  </g>
</svg>
