<?xml version="1.0" encoding="UTF-8" standalone="no"?>
<!-- Created with Inkscape (http://www.inkscape.org/) -->

<svg
   width="215"
   height="300"
   viewBox="0 0 56.885416 79.375"
   version="1.1"
   id="svg18154"
   xml:space="preserve"
   inkscape:version="1.2.2 (732a01da63, 2022-12-09)"
   sodipodi:docname="logocolegio.svg"
   xmlns:inkscape="http://www.inkscape.org/namespaces/inkscape"
   xmlns:sodipodi="http://sodipodi.sourceforge.net/DTD/sodipodi-0.dtd"
   xmlns="http://www.w3.org/2000/svg"
   xmlns:svg="http://www.w3.org/2000/svg"><sodipodi:namedview
     id="namedview18156"
     pagecolor="#ffffff"
     bordercolor="#000000"
     borderopacity="0.25"
     inkscape:showpageshadow="2"
     inkscape:pageopacity="0.0"
     inkscape:pagecheckerboard="0"
     inkscape:deskcolor="#d1d1d1"
     inkscape:document-units="mm"
     showgrid="false"
     showguides="false"
     inkscape:zoom="1.0544998"
     inkscape:cx="284.49508"
     inkscape:cy="0"
     inkscape:window-width="1920"
     inkscape:window-height="1017"
     inkscape:window-x="2936"
     inkscape:window-y="173"
     inkscape:window-maximized="1"
     inkscape:current-layer="layer1" /><defs
     id="defs18151" /><g
     inkscape:label="Capa 1"
     inkscape:groupmode="layer"
     id="layer1"><g
       id="g24075"
       transform="matrix(0.79545187,0,0,0.79545187,-54.902048,-0.22866636)"><path
         id="rect18339"
         style="fill:#ffffff;fill-opacity:1;stroke:#000000;stroke-width:0.264583;stroke-dasharray:none;stroke-opacity:1"
         d="M 70.413959,2.4838704 H 139.09677 V 67.942338 L 104.75536,98.634002 70.413959,67.942338 Z"
         sodipodi:nodetypes="cccccc" /><rect
         style="fill:#008000;fill-opacity:1;stroke:#000000;stroke-width:0.269644;stroke-dasharray:none;stroke-opacity:1"
         id="rect20785"
         width="49.468285"
         height="24.336296"
         x="80.021225"
         y="12.349517" /><rect
         style="fill:#ffffff;fill-opacity:1;stroke:#000000;stroke-width:0.269644;stroke-dasharray:none;stroke-opacity:1"
         id="rect20785-6"
         width="49.468285"
         height="23.646351"
         x="80.021225"
         y="36.685814" /><path
         id="rect20787"
         style="fill:#008000;fill-opacity:1;stroke:#000000;stroke-width:0.269644;stroke-dasharray:none;stroke-opacity:1"
         d="M 80.021223,60.332163 H 129.4895 v 2.589184 L 104.75536,86.675578 80.021223,62.921347 Z"
         sodipodi:nodetypes="cccccc" /><text
         xml:space="preserve"
         style="font-weight:bold;font-size:4.7625px;line-height:0px;font-family:'Arial Rounded MT Bold';-inkscape-font-specification:'Arial Rounded MT Bold,  Bold';text-align:center;text-anchor:middle;fill:#008000;fill-opacity:1;stroke:none;stroke-width:1;stroke-dasharray:none;stroke-opacity:1"
         x="104.73792"
         y="9.0614634"
         id="text18901"><tspan
           sodipodi:role="line"
           id="tspan18899"
           style="font-style:normal;font-variant:normal;font-weight:bold;font-stretch:normal;font-size:4.7625px;font-family:Arial;-inkscape-font-specification:'Arial Bold';fill:#008000;fill-opacity:1;stroke:none;stroke-width:1"
           x="104.73792"
           y="9.0614634">COMERCIAL DEL PACIFICO</tspan></text><text
         xml:space="preserve"
         style="font-weight:bold;font-size:4.7625px;line-height:11.5412px;font-family:'Arial Rounded MT Bold';-inkscape-font-specification:'Arial Rounded MT Bold,  Bold';text-align:center;letter-spacing:0.529167px;text-anchor:middle;fill:#008000;fill-opacity:1;stroke:none;stroke-width:1;stroke-dasharray:none;stroke-opacity:1"
         x="-36.408279"
         y="76.34951"
         id="text18901-1"
         transform="rotate(-90)"><tspan
           sodipodi:role="line"
           id="tspan18899-6"
           style="font-style:normal;font-variant:normal;font-weight:bold;font-stretch:normal;font-size:4.7625px;font-family:Arial;-inkscape-font-specification:'Arial Bold';fill:#008000;fill-opacity:1;stroke:none;stroke-width:1"
           x="-36.143696"
           y="76.34951">INSTITUTO</tspan></text><text
         xml:space="preserve"
         style="font-weight:bold;font-size:4.7625px;line-height:0px;font-family:'Arial Rounded MT Bold';-inkscape-font-specification:'Arial Rounded MT Bold,  Bold';text-align:center;text-anchor:middle;fill:#008000;fill-opacity:1;stroke:none;stroke-width:1;stroke-dasharray:none;stroke-opacity:1"
         x="36.175735"
         y="-132.34286"
         id="text18901-1-3"
         transform="rotate(90)"><tspan
           sodipodi:role="line"
           id="tspan18899-6-3"
           style="font-style:normal;font-variant:normal;font-weight:bold;font-stretch:normal;font-size:4.7625px;font-family:Arial;-inkscape-font-specification:'Arial Bold';fill:#008000;fill-opacity:1;stroke:none;stroke-width:1"
           x="36.175735"
           y="-132.34286">BUENAVENTURA</tspan></text><text
         xml:space="preserve"
         style="font-weight:bold;font-size:4.7625px;line-height:0px;font-family:'Arial Rounded MT Bold';-inkscape-font-specification:'Arial Rounded MT Bold,  Bold';text-align:center;text-anchor:middle;fill:#008000;fill-opacity:1;stroke:none;stroke-width:1;stroke-dasharray:none;stroke-opacity:1"
         x="116.75559"
         y="-3.3173203"
         id="text18901-1-3-1"
         transform="rotate(43.632637)"><tspan
           sodipodi:role="line"
           id="tspan18899-6-3-1"
           style="font-style:normal;font-variant:normal;font-weight:bold;font-stretch:normal;font-size:4.7625px;font-family:Arial;-inkscape-font-specification:'Arial Bold';fill:#008000;fill-opacity:1;stroke:none;stroke-width:1"
           x="116.75559"
           y="-3.3173203">CONSAGRACION</tspan></text><text
         xml:space="preserve"
         style="font-weight:bold;font-size:4.7625px;line-height:0px;font-family:'Arial Rounded MT Bold';-inkscape-font-specification:'Arial Rounded MT Bold,  Bold';text-align:center;text-anchor:middle;fill:#008000;fill-opacity:1;stroke:none;stroke-width:1;stroke-dasharray:none;stroke-opacity:1"
         x="38.894676"
         y="140.49547"
         id="text18901-1-3-1-7"
         transform="rotate(-42.131442)"><tspan
           sodipodi:role="line"
           id="tspan18899-6-3-1-7"
           style="font-style:normal;font-variant:normal;font-weight:bold;font-stretch:normal;font-size:4.7625px;font-family:Arial;-inkscape-font-specification:'Arial Bold';fill:#008000;fill-opacity:1;stroke:none;stroke-width:1"
           x="38.894676"
           y="140.49547">Y   ESTUDIO</tspan></text><path
         id="path22335-5"
         style="fill:#008000;fill-opacity:1;stroke-width:0.110294"
         d="m 101.49355,59.094203 c -2.576568,-3e-6 -4.665298,-2.08873 -4.665298,-4.665302 0,-2.576572 2.08873,-4.665297 4.665298,-4.6653 z"
         sodipodi:nodetypes="cscc" /><path
         id="path22335-42-2"
         style="fill:#ffffff;stroke-width:0.0354047"
         d="m 101.54385,55.926478 c -0.82708,-1e-6 -1.49757,-0.670489 -1.49757,-1.497576 0,-0.827088 0.67049,-1.497575 1.49757,-1.497576 z"
         sodipodi:nodetypes="cscc" /><path
         id="path22335-4-3"
         style="fill:#008000;fill-opacity:1;stroke-width:0.110294"
         d="m 108.01718,51.802094 c 2.57657,-4e-6 4.6653,-2.08873 4.6653,-4.665302 0,-2.576572 -2.08873,-4.665297 -4.6653,-4.6653 z"
         sodipodi:nodetypes="cscc" /><path
         id="path22335-4-0-7"
         style="fill:#ffffff;stroke-width:0.0354047"
         d="m 107.97473,48.634369 c 0.82709,-10e-7 1.49758,-0.670489 1.49758,-1.497576 0,-0.827088 -0.67049,-1.497575 -1.49758,-1.497576 z"
         sodipodi:nodetypes="cscc" /><rect
         style="fill:#008000;fill-opacity:1;stroke:none;stroke-width:0.264583;stroke-dasharray:none;stroke-opacity:1"
         id="rect22636-8"
         width="3.9518147"
         height="16.622711"
         x="102.77946"
         y="42.471493" /><rect
         style="fill:#008000;fill-opacity:1;stroke:none;stroke-width:0.124844;stroke-dasharray:none;stroke-opacity:1"
         id="rect22636-1-0"
         width="3.9518147"
         height="3.7009051"
         x="102.77946"
         y="37.923775" /><g
         id="g23196"
         transform="matrix(0.16645723,-0.02488542,0.02488542,0.16645723,90.882144,42.012338)"><path
           style="fill:#ffffff;fill-opacity:1;stroke:none;stroke-width:0.264583;stroke-opacity:1"
           d="m 62.319517,-160.5422 c -7.41792,7.53589 -14.52317,15.36947 -21.73459,23.10091 -10.70638,11.34201 -21.304977,22.78463 -31.8626568,34.26509 -1.55849,1.79669 -3.30849,3.427551 -4.75009,5.322681 -1.09069,1.21842 -0.71092,2.95711 -0.95137,4.44314 -0.13958,1.22827 -0.61401,2.61513 -1.88464,3.07733 -0.59708996,0.4005 -1.42239996,0.0152 -1.93579996,0.54467 -2.44593004,2.87059 -4.97243904,5.67761 -7.39023904,8.57415 0.98246,0.42596 1.96464,0.852 2.9471,1.27796 17.1142188,7.24779 34.2908858,14.43529 51.5157158,21.44934 1.42834,0.71907 3.21817,0.91617 4.26176,2.26084 0.78192,1.46822 1.18474,3.12488 1.9513,4.61057 1.08786,2.55723 2.67884,4.96621 4.86585,6.61045 3.51941,2.64596 8.00362,4.2412 12.3946,4.56768 1.34166,0.0998 2.68639,-0.33144 3.95221,-0.82011 2.51427,-0.77165 4.66008,-2.40376 6.38255,-4.3589 17.46039,7.37503 34.884483,14.87051 52.273823,22.42654 3.95593,1.68227 7.86164,3.48758 11.85147,5.08495 2.81963,-3.71735 5.57141,-7.48467 8.33799,-11.24117 7.49772,-10.09844 15.07473,-20.13977 22.5454,-30.26017 8.53991,-11.58627 17.26301,-23.03389 25.7979,-34.62372 -3.46093,-1.39604 -6.88438,-2.88115 -10.3203,-4.33772 -2.42668,-5.802321 -4.85011,-11.605991 -7.27449,-17.409281 -0.80934,-1.62948 -1.11886,-3.68141 -2.70371,-4.7842 -7.78029,-4.33484 -15.47817,-8.89617 -23.86417,-11.8954 -5.38171,-1.96293 -10.99895,-3.56735 -16.66927,-4.0535 -4.90797,-0.31657 -9.99349,-0.25643 -14.65389,1.49862 -1.51988,0.42616 -2.75402,1.61373 -4.34805,1.79007 -1.53523,0.0138 -2.31003,-1.56105 -2.97346,-2.70423 -1.94066,-3.26858 -4.35978,-6.28557 -7.26261,-8.75088 -5.82274,-5.06076 -12.926493,-8.36636 -20.181713,-10.82002 -3.94833,-1.40127 -8.02209,-2.42409 -12.1605,-3.07423 -4.61036,-0.69617 -9.26632,-1.34551 -13.88443,-1.64641 -0.75715,-0.0417 -1.51453,-0.0833 -2.27169,-0.12505 z"
           id="path23148" /><path
           id="path23117"
           style="fill:#000000;stroke-width:0.264583"
           d="m 64.810103,-160.41741 c 4.61811,0.3009 9.27435,0.95037 13.88471,1.64654 4.138418,0.65014 8.211828,1.6728 12.160158,3.07408 7.25523,2.45366 14.358939,5.75942 20.181689,10.82018 2.90283,2.46532 5.32203,5.4825 7.26269,8.75109 0.66343,1.14318 1.43841,2.71799 2.97364,2.7042 1.59403,-0.17634 2.82827,-1.36389 4.34815,-1.79005 4.6604,-1.75505 9.74584,-1.81558 14.65381,-1.49901 5.67033,0.48615 11.28739,2.09088 16.6691,4.05381 8.38601,2.99923 16.0838,7.56057 23.8641,11.89541 1.58485,1.10279 1.89459,3.15461 2.70393,4.7841 2.42438,5.80329 4.8479,11.60694 7.27459,17.409262 3.43592,1.45657 6.85937,2.94185 10.32031,4.33789 -8.5349,11.58984 -17.25823,23.03712 -25.79815,34.623414 -7.47067,10.120405 -15.04788,20.161875 -22.54561,30.260333 -2.76658,3.756499 -5.51825,7.523896 -8.33788,11.241252 -3.98983,-1.597376 -7.8953,-3.402762 -11.85124,-5.085036 -17.38935,-7.55603 -34.813359,-15.051639 -52.273759,-22.426683 -1.722478,1.955144 -3.868618,3.587138 -6.382888,4.358792 -1.26582,0.488676 -2.61024,0.919897 -3.95191,0.82014 -4.39098,-0.326483 -8.87515,-1.921417 -12.39456,-4.567374 -2.18702,-1.64424 -3.7781,-4.053483 -4.86596,-6.610716 -0.76656,-1.485685 -1.16964,-3.142001 -1.95156,-4.610217 -1.04359,-1.344669 -2.83349,-1.541935 -4.26183,-2.261014 -17.22485,-7.014048 -34.40118,-14.201601 -51.5154096,-21.449402 -0.98246,-0.425955 -1.96491,-0.85191 -2.94737,-1.277865 2.41781,-2.896544 4.94469,-5.703624 7.39062998,-8.574224 0.5134,-0.52944 1.33832,-0.14397 1.93541002,-0.54447 1.27063,-0.4622 1.74539,-1.84919 1.88497,-3.07747 0.24045,-1.48603 -0.13954,-3.22453 0.95115,-4.44296 1.44161,-1.89513 3.19168,-3.525992 4.75017,-5.322682 10.5576896,-11.48047 21.1564596,-22.92337 31.8628496,-34.26539 7.21143,-7.73145 14.31666,-15.56503 21.73459,-23.10093 0.75716,0.0417 1.51432,0.0833 2.27148,0.125 z m 0.30469,1.86133 c -1.69989,0.0652 -2.61777,1.70082 -3.74153,2.72989 -8.11555,8.39701 -15.96803,17.04278 -23.99048,25.52801 -7.05664,7.51782 -14.03025,15.13002 -20.95149,22.75387 -2.75131,2.99412 -5.50957,6.00123 -8.2950196,8.951122 -0.53997,0.77513 0.0743,2.01014 1.05899,1.90065 3.5221896,-0.0153 6.9958796,0.66453 10.4649796,1.19001 10.03754,1.69862 19.91841,5.11365 28.48189,10.75699 4.78563,3.197591 9.18006,7.057092 12.57007,11.733999 0.96262,1.193848 1.75794,2.510634 2.55689,3.810927 0.75431,0.87552 2.28791,0.663269 2.79382,-0.371846 0.99655,-1.285421 2.0602,-2.584753 2.6886,-4.089092 0.1864,-1.45339 -1.0122,-2.536599 -1.59442,-3.747132 -3.5128,-5.823416 -8.22917,-10.970896 -13.97479,-14.648276 -8.74179,-5.85075 -18.88432,-9.383382 -29.22571,-11.081152 0.47362,-0.3198 1.13122,0.0723 1.67578,0.0391 8.01886,1.10624 15.86312,3.740442 23.09179,7.296872 6.59349,3.41453 12.50974,8.21509 17.03681,14.113002 1.3858,1.809463 2.51232,3.80291 3.61031,5.787146 0.69199,0.819523 1.93664,0.216352 2.32945,-0.60327 1.07028,-1.351834 2.76986,-2.563167 2.75297,-4.458801 -0.20816,-1.950337 -1.57105,-3.488527 -2.52184,-5.123827 -3.37532,-5.09181 -7.78221,-9.54226 -13.04754,-12.67518 -8.85739,-5.545282 -18.96948,-8.837962 -29.23242,-10.566412 1.32028,-0.18571 2.66349,0.12422 3.97756,0.27979 3.58402,0.59594 7.03673,1.45063 10.48721,2.5565 7.44919,2.5469 14.70768,6.02765 20.87981,11.050302 1.94004,1.48173 3.70595,3.22439 5.28217,5.14076 1.97859,2.16046 3.43164,4.71253 4.8399,7.26243 0.32233,0.56913 0.64469,1.13825 0.9689,1.706313 1.36838,-2.131373 3.37027,-3.858603 4.373038,-6.212893 0.44867,-1.82549 -0.956928,-3.32153 -1.815558,-4.77023 -4.14718,-6.45403 -10.26646,-11.486182 -17.11677,-14.858632 -4.42056,-2.37208 -9.099,-4.23284 -13.90552,-5.6608 -3.95399,-1.2394 -7.97779,-2.28875 -12.07816,-2.91346 0.82898,-0.39177 1.72659,0.13483 2.58765,0.15039 6.02083,0.95007 11.80716,2.52198 17.48747,4.74499 5.0278,1.9868 9.81349,4.60815 14.20666,7.76339 3.45188,2.68349 6.67198,5.656662 9.18422,9.258162 0.86083,1.08411 1.321968,2.45849 2.330868,3.419 0.46724,0.4634 1.19475,0.6146 1.7034,0.13129 1.38476,-0.9095 2.17962,-2.42924 3.14502,-3.72415 0.55518,-0.92108 0.33455,-2.08094 -0.28797,-2.90585 -3.07787,-5.820252 -7.801838,-10.719762 -13.431778,-14.119672 -5.28813,-3.28074 -11.06954,-5.68498 -16.93687,-7.71236 -4.65971,-1.38942 -9.39447,-2.61945 -14.19766,-3.36261 0.81212,-0.0477 1.68646,0.11974 2.51902,0.17315 4.96907,0.56952 9.88228,1.90723 14.65721,3.45808 4.74632,1.66503 9.39649,3.7373 13.73027,6.18937 5.50208,3.21894 10.373248,7.74684 13.757568,13.095412 0.51769,0.95303 1.22283,2.14806 2.46717,2.10806 1.12974,-0.0484 1.61919,-1.26121 2.27887,-2.00066 0.76073,-1.021292 1.48007,-2.072532 2.23052,-3.101542 -2.68796,-5.98691 -7.24207,-10.96575 -12.47656,-14.8457 -0.40846,-0.21022 -0.1995,-0.38719 0.0762,-0.61328 0.39535,-0.25624 0.8624,0.52455 1.2832,0.64062 3.1547,2.12457 5.95281,4.76174 8.23057,7.80935 0.97781,1.26363 1.94963,2.57121 2.57216,4.04026 0.50944,0.86816 1.76001,1.04303 2.49776,0.36232 1.28107,-0.94167 2.01389,-2.41235 3.0445,-3.59328 0.20099,-0.4858 1.06536,-0.90918 0.76232,-1.44131 -2.90503,-5.99546 -7.35509,-11.29388 -13.00193,-14.87626 -7.914688,-5.10737 -16.963878,-8.18399 -26.117948,-10.19626 -1.78349,-0.38103 -3.58148,-0.69081 -5.38391,-0.96615 4.64058,0.13523 9.20542,1.13847 13.68359,2.30274 7.34679,2.05581 14.593708,5.03633 20.782438,9.60648 3.70166,2.72483 6.91234,6.14301 9.19828,10.14382 0.50083,0.85621 1.02583,2.02323 2.187249,2.04071 1.14094,0.0502 1.71724,-1.11934 2.43364,-1.80887 0.71422,-0.91542 1.53683,-1.85895 1.8105,-3.00558 0.15043,-1.54801 -1.01555,-2.76552 -1.65727,-4.06569 -3.225549,-5.45086 -7.766659,-10.1627 -13.286029,-13.30946 -5.17745,-3.2368 -10.855648,-5.6696 -16.793028,-7.1087 -3.80142,-1.0301 -7.83609,-1.91345 -11.64844,-2.31107 4.50377,0.12081 8.98326,0.85956 13.31323,2.10478 6.816168,1.96554 13.493508,4.70662 19.262398,8.89594 2.89157,1.96981 5.49063,4.36532 7.606909,7.15404 1.38951,1.72944 2.49572,3.51304 3.55292,5.46986 0.54166,0.92186 2.04694,1.22717 2.69301,0.25031 1.23161,-1.1926 2.11141,-2.66344 3.15428,-3.98632 0.60522,-1.11079 -0.36554,-2.18209 -0.78524,-3.16311 -2.55484,-4.67284 -6.23354,-8.68024 -10.424459,-11.93644 -4.06615,-2.96308 -8.68805,-5.05208 -13.33042,-6.93272 -4.01982,-1.45302 -8.186858,-2.46193 -12.355428,-3.38326 -2.2613,-0.46378 -4.54703,-0.81908 -6.8454,-1.03753 0.46265,-0.45424 1.16995,-0.0332 1.74148,-0.1056 4.93747,0.4163 9.81371,1.53285 14.554038,2.82117 4.62826,1.40205 9.06768,3.39142 13.31249,5.69576 5.784199,3.27166 10.739579,8.0144 14.152939,13.72525 0.48579,0.77469 1.17707,1.40797 1.99491,1.81849 1.70616,-1.14267 2.85045,-2.89922 4.03125,-4.5332 0.67888,-1.19606 0.33856,-2.68976 -0.46421,-3.73505 -4.20902,-7.40505 -11.12127,-12.96415 -18.733479,-16.60377 -5.34168,-2.61479 -11.04328,-4.43972 -16.85636,-5.66837 -4.626898,-1.09521 -9.374748,-1.56465 -14.106108,-1.94594 -0.50926,-0.0225 -1.01777,-0.0707 -1.52734,-0.0801 z m 70.634767,23.64648 c -3.91831,-0.0594 -7.98475,0.36013 -11.46289,2.30664 -3.54739,1.91209 -5.9627,5.25315 -8.57977,8.20712 -7.43806,8.80158 -14.71044,17.75039 -22.146089,26.557402 -8.40241,10.10671 -16.853038,20.176146 -25.197968,30.327279 -0.69903,1.063481 0.33138,2.840339 1.62705,2.453743 1.75567,-0.692047 3.47998,-1.466438 5.30599,-1.964555 2.88357,-0.886682 5.770218,-1.542059 8.831398,-1.592973 4.47687,0.05547 8.99474,-0.04433 13.3315,1.162417 8.062159,1.877327 15.762189,5.229206 23.054449,9.005821 2.29364,1.220643 4.57357,2.673445 6.9375,3.808594 1.33957,0.242432 2.05957,-1.13294 2.80864,-1.974816 7.11009,-8.591996 13.80806,-17.513133 20.78138,-26.21278 8.30351,-10.61389 16.73439,-21.122182 25.07176,-31.708412 0.709,-1.01266 1.66701,-1.87529 2.22103,-2.9829 0.33063,-0.97758 -0.32039,-1.97728 -1.17973,-2.41791 -2.54506,-1.89341 -5.39853,-3.31166 -8.12886,-4.91022 -7.51152,-4.10725 -15.5252,-7.36023 -23.87767,-9.28425 -3.08477,-0.6966 -6.24598,-0.83309 -9.39772,-0.7802 z m -88.099607,6.38086 c 3.4789,0.0209 6.82934,1.08376 10.18329,1.88949 4.56142,1.20487 9.0457,2.77406 13.24249,4.9445 -0.29465,0.53145 -0.71783,0.11886 -1.11775,-0.0532 -6.88431,-2.8668 -14.02821,-5.19002 -21.37777,-6.51536 -0.24311,-0.0867 -1.74565,-0.12887 -1.08269,-0.25956 l 0.0802,-0.008 z m 86.249997,0.12891 c 6.21215,0.30909 12.1354,2.3104 17.83856,4.66266 4.90976,2.1241 9.65848,4.57105 14.33302,7.14397 0.0511,0.13545 -0.49752,0.77559 -0.75426,0.54447 -8.13655,-4.41552 -16.4454,-8.73094 -25.44528,-11.0959 -2.02554,-0.52731 -4.07179,-1.0026 -6.15173,-1.25716 l 0.1,0.001 z m -3.72852,6.16601 c 3.08265,0.14287 6.1071,0.84357 9.01087,1.86528 5.13241,1.62616 9.99899,3.61968 14.76006,6.1297 2.48296,1.26246 4.94179,2.57674 7.33454,4.00307 -0.33475,0.64752 -0.82064,0.59192 -1.34635,0.17262 -3.81301,-2.04178 -7.57356,-4.18217 -11.53682,-5.92874 -5.9603,-2.77756 -12.16767,-5.18841 -18.68324,-6.25951 0.15365,0.006 0.3073,0.0117 0.46094,0.0176 z m -7.86133,5.9961 c 3.18376,-0.0188 6.36794,0.41199 9.40522,1.37431 7.93846,2.13862 15.43446,5.72518 22.62024,9.67956 0.70203,0.39556 1.34932,0.76485 2.02923,1.1805 -0.26482,0.36054 -0.57478,0.81386 -1.01658,0.42002 -1.87794,-0.97794 -3.69716,-2.0668 -5.60018,-3.00061 -5.09655,-2.67473 -10.29582,-5.20798 -15.78694,-6.97375 -3.89838,-1.30853 -7.90873,-2.406 -12.02794,-2.68199 0.12565,6.5e-4 0.2513,0.001 0.37695,0.002 z m 57.86719,1.45703 c -2.72722,2.12065 -4.6296,5.06381 -6.83505,7.67955 -12.18014,15.403722 -24.42983,30.75678 -36.49498,46.248205 -1.69912,2.259207 -3.45391,4.493439 -4.99223,6.861307 -0.66353,1.604647 0.20548,3.382918 1.26996,4.588194 0.5608,0.594075 1.60987,0.957588 2.23379,0.258603 1.3279,-1.06557 2.17854,-2.544802 3.25821,-3.793735 14.51505,-18.674129 29.37727,-37.072162 43.92749,-55.719084 0.75543,-0.95694 0.93011,-2.38699 0.21358,-3.41223 -0.37259,-1.20488 -1.01588,-2.52545 -2.33858,-2.88464 -0.0807,0.0579 -0.16146,0.11588 -0.24219,0.17383 z m -63.09765,4.73828 c 6.19575,0.0712 12.27658,1.97631 18.00617,4.26191 5.43457,2.21603 10.68216,4.87229 15.79461,7.747852 0.66673,0.14711 0.4699,0.58944 -0.0293,0.9043 -0.44672,0.12055 -0.88965,-0.36362 -1.30166,-0.54192 -2.56348,-1.48616 -5.21268,-2.820652 -7.84511,-4.180072 -4.68861,-2.36554 -9.48499,-4.57782 -14.54514,-6.02574 -3.60221,-1.07665 -7.29909,-1.89748 -11.05614,-2.16438 0.32541,-0.009 0.65107,-1.3e-4 0.97656,-0.002 z m 66.51562,1.87305 c -13.47207,17.063592 -26.96484,34.102898 -40.43471,51.169723 -2.65191,3.437509 -5.35737,6.843234 -7.86412,10.384962 -0.65127,1.384731 0.30622,2.809586 0.7919,4.082034 0.43434,0.984934 0.86563,1.971206 1.29795,2.957029 15.19522,-19.284304 30.39714,-38.561751 45.61746,-57.820506 1.18836,-1.57803 2.49326,-3.087572 3.49582,-4.792782 0.32775,-0.9456 -0.47419,-1.77364 -0.69868,-2.6515 -0.54769,-1.34729 -1.09613,-2.69428 -1.64312,-4.04185 z m -71.36914,4.36718 c 5.9604,0.3678 11.75668,2.07151 17.3125,4.183602 5.84477,2.26962 11.43538,5.13918 16.88672,8.22461 -0.30771,0.17872 -0.50413,0.92184 -0.91016,0.46093 -3.35352,-1.78063 -6.69033,-3.62649 -10.13672,-5.25781 -5.77764,-2.84077 -11.81393,-5.257852 -18.15887,-6.472722 -2.43999,-0.48489 -4.90681,-0.83551 -7.38605,-1.0429 0.78261,-0.1674 1.59755,-0.078 2.39258,-0.0957 z m 74.50391,4.439462 c -1.47305,0.29971 -2.25623,1.78317 -3.16716,2.8393 -13.16474,16.832233 -26.558,33.490273 -39.71123,50.335567 -1.93348,2.505345 -3.84783,5.025484 -5.772,7.53802 0.94691,1.44155 1.33061,3.362079 2.81054,4.382812 1.0289,0.456886 1.84865,-0.527456 2.37989,-1.272882 6.74187,-8.440878 13.3133,-17.022673 20.07234,-25.452087 8.45486,-10.722523 17.03683,-21.34272 25.243,-32.25652 0.33591,-0.56321 0.93268,-1.09579 1.10351,-1.67889 -0.7232,-1.47565 -0.88375,-3.46018 -2.45499,-4.33571 -0.16011,-0.0625 -0.33158,-0.10499 -0.5039,-0.0996 z m -178.6171866,4.24804 c -1.34091,-0.0922 -2.66281,0.72745 -3.11568,2.00264 -0.67339,1.166 -1.32626,2.34125 -1.98784,3.51494 6.14828,0.46855 12.1027596,1.96137 18.1366296,3.15279 5.56773,1.23975 11.07978,2.84365 16.31207,5.132569 4.14564,1.891026 8.23414,3.953817 12.04988,6.453262 1.97392,1.301813 3.78264,2.835825 5.47982,4.474179 0.71921,0.67521 1.8404,1.351664 2.78137,0.666108 0.97723,-0.651899 0.8962,-2.237753 -0.0742,-2.855788 -1.99986,-2.429193 -4.06817,-4.815589 -6.47947,-6.849868 -4.46594,-3.996892 -9.72615,-6.997202 -15.22099,-9.339362 -5.36729,-2.36299 -11.05098,-3.97921 -16.85193,-4.83171 -3.65578,-0.64319 -7.32121,-1.27649 -11.0296796,-1.51976 z m 111.4980466,0.10547 c 7.65932,2.17424 14.82545,5.87245 21.68945,9.90039 -0.2997,0.37182 -0.53426,0.91998 -1.03125,0.41797 -2.36144,-1.50836 -4.86114,-2.78295 -7.34416,-4.0791 -4.3966,-2.27617 -8.96423,-4.19841 -13.59889,-5.93109 -0.87344,-0.25748 -0.18197,-0.27778 0.28485,-0.30817 z m -16.08399,3.70313 c 4.72098,0.42743 9.43274,1.7169 13.95145,3.24787 6.30522,2.47444 12.44671,5.38364 18.31034,8.774248 0.65688,0.185487 0.50416,0.561599 0.0733,0.907545 -0.38856,0.331671 -0.83985,-0.287421 -1.29054,-0.426804 -8.19956,-4.832999 -16.91525,-8.942119 -26.16379,-11.307279 -3.05745,-0.74521 -6.20942,-0.89268 -9.341729,-0.9866 1.220369,-0.3995 2.546019,-0.25922 3.812759,-0.25977 0.21606,0.0169 0.43212,0.0339 0.64818,0.0508 z m -101.2539066,2.4414 c -1.73755002,0.16885 -3.02673002,2.13146 -2.61523002,3.79297 0.35428,1.04509 1.51496002,1.41267 2.51289002,1.47123 3.33379,0.63443 6.76145,1.24907 10.0183596,1.985803 -0.73217,0.948242 -0.19201,2.411272 0.89148,2.823108 1.92501,1.064649 4.09123,1.56879 6.09227,2.465704 8.59686,3.334542 17.08817,6.930237 25.57366,10.535175 0.83933,0.412155 2.10533,0.455167 2.55978,-0.531018 0.61761,-1.062607 -0.31177,-2.184572 -1.21523,-2.69864 -2.36802,-1.718983 -4.89636,-3.209074 -7.49766,-4.545501 5.37032,2.471691 10.37983,5.703232 15.15429,9.212891 1.84529,1.343258 3.48021,2.948973 5.27149,4.351562 0.9567,0.733688 2.65041,0.133333 2.62244,-1.162361 0.004,-1.381947 -1.23228,-2.284162 -1.95438,-3.332364 -5.23028,-6.374778 -12.01902,-11.362877 -19.45246,-14.87856 -7.32596,-3.549499 -15.20431,-5.847959 -23.20052,-7.285869 -4.87395,-0.80769 -9.7284796,-1.84136 -14.6611396,-2.20337 l -0.059,-7.6e-4 z m 96.1132776,4.15235 c 4.815779,0.23127 9.420829,1.60015 14.011579,3.093528 6.64895,2.309727 12.97402,5.573596 19.05483,9.134984 -0.31469,0.512481 -0.70395,0.832268 -1.20022,0.307289 -6.60589,-3.699597 -13.32146,-7.346328 -20.58059,-9.606061 -4.07749,-1.31289 -8.24716,-2.59341 -12.570459,-2.62441 -0.94333,-0.056 -2.04128,-0.0683 -2.88506,-0.11197 1.41057,-0.16235 2.75921,-0.22716 4.16992,-0.19336 z m 82.298829,4.910153 c -1.6421,0.0908 -2.48207,1.708435 -3.52778,2.74266 -8.72363,9.990446 -16.68341,20.609647 -24.88268,31.021127 -3.66336,4.699876 -7.3122,9.411028 -10.96258,14.120979 0.73466,1.470258 0.81666,3.421612 2.27539,4.417969 1.09288,0.529302 2.1048,-0.455382 2.63211,-1.323654 8.69542,-11.882552 17.77592,-23.503331 26.56981,-35.323698 3.09286,-4.216764 6.16805,-8.458946 8.91976,-12.905555 0.61851,-0.976695 0.34836,-2.674859 -1.02403,-2.749828 z m -86.312499,1.933594 c 4.00628,0.171457 7.931159,1.347293 11.816279,2.387711 6.63722,2.005786 12.88549,5.153795 18.96239,8.500721 0.33186,0.314939 1.35373,0.524927 1.19686,0.951119 -0.2504,0.607843 -0.67827,0.489237 -1.12975,0.139184 -5.48017,-2.881364 -10.91339,-5.912237 -16.76466,-7.994087 -4.13413,-1.490075 -8.39464,-2.673485 -12.736419,-3.364379 -2.57099,-0.384259 -5.30601,-0.368872 -7.81735,-0.360504 1.34211,-0.216395 2.72647,-0.162748 4.08704,-0.244384 0.79517,-0.02503 1.5902,-0.02181 2.38561,-0.01538 z m -5.27148,11.621094 c -5.76718,-0.05086 -11.809748,0.366478 -16.951408,3.232377 -1.74686,1.01569 -3.38297,2.316501 -4.65601,3.873091 -0.48002,1.05917 0.43298,2.57332 1.66992,2.234375 1.28925,-0.437176 2.37705,-1.29867 3.69175,-1.688794 2.58843,-1.009665 5.37977,-1.338051 8.142938,-1.264275 3.53261,0.0072 7.02958,0.0623 10.51785,0.632629 5.77545,1.113267 11.330579,2.986865 16.793569,5.153172 5.8272,2.410073 11.41954,5.189661 16.95713,8.209357 1.99705,1.087016 3.97945,2.253049 6.09012,3.090724 1.18101,0.283566 2.3644,-0.944547 1.93875,-2.112161 -0.32782,-0.905792 -1.05774,-1.592466 -1.41751,-2.490108 -0.84413,-1.655404 -1.99138,-3.221476 -3.65805,-4.12184 -3.49963,-2.221838 -7.17632,-4.1575 -10.85436,-6.063033 -6.02687,-3.084455 -12.28759,-5.800682 -18.888459,-7.387355 -3.06937,-0.740547 -6.21097,-1.273359 -9.37623,-1.298159 z m -34.503908,5.126953 c -1.28761,-0.01632 -1.95757,1.516027 -1.71064,2.562701 0.2481,5.642132 3.66214,10.938821 8.45607,13.834239 2.49147,1.499349 5.43281,2.160199 8.328,1.980233 2.41795,-0.03074 4.85534,-0.855165 6.6135,-2.555288 1.77136,-1.597153 3.13506,-3.89238 3.05135,-6.331651 -0.25158,-1.167902 -1.57756,-1.345489 -2.55899,-1.488468 -1.33531,-0.412612 -2.86254,0.413777 -3.23036,1.765614 -1.01386,2.042224 -3.29216,3.475143 -5.6052,3.128336 -4.59244,-0.334465 -8.52073,-4.170933 -9.31538,-8.650322 -0.2924,-1.197011 -0.39943,-2.796517 -1.68998,-3.440261 -0.71451,-0.414645 -1.53512,-0.662284 -2.33837,-0.805133 z m 27.304688,1.480468 c -3.330208,0.128171 -6.752048,0.304606 -9.896478,1.494141 -1.06428,0.544558 -1.2103,2.334726 -0.0217,2.829333 1.21095,0.616255 2.57648,0.375822 3.86612,0.578631 2.56104,0.180253 5.118488,0.429309 7.659478,0.799067 -1.09639,0.958838 -0.49299,2.938082 0.91016,3.216797 1.16067,0.133263 2.13402,0.892348 3.2207,1.294922 10.07963,4.39931 20.278819,8.520538 30.343179,12.956126 1.34148,0.542997 2.64654,1.269541 4.03182,1.711843 1.4998,0.194028 2.53921,-2.015682 1.26953,-2.951172 -5.55603,-4.023128 -11.61628,-7.310754 -17.92969,-9.978516 9.36231,3.741198 18.11969,8.726229 27.03369,13.406603 2.03978,1.072361 4.05509,2.214478 6.15382,3.159804 0.97217,0.274383 1.76126,-1.045983 1.0834,-1.784513 -1.1993,-1.747221 -2.30906,-3.561301 -3.46076,-5.333183 -1.52872,-1.708247 -3.75269,-2.501746 -5.66748,-3.674218 -7.73451,-4.197225 -15.52082,-8.327649 -23.58506,-11.863859 -6.21215,-2.524987 -12.667819,-4.54588 -19.331799,-5.43764 -1.88151,-0.255837 -3.77951,-0.404504 -5.67893,-0.424166 z"
           sodipodi:nodetypes="cccccccccccccccccccaacccccccccccccsccccccccccccccccccccccccccccccccccccccccccccccccccccccccccccccccccccccccccccccccccccccccccccccsscccccccccccccccccccccccccccccccccccsccccccsscccccccccccccccccccccccccccccccccccccccccsccccccssscccccccccssscccccccccccssccccccscccccccssccccccccccccccccccccccccccccccccccccsccccccccssccccccccccccccccccccccccccccccccccccccccccccccc" /></g><g
         id="g23684"
         transform="matrix(1.0379194,0,0,1.0379194,21.071732,-8.6438216)"><g
           id="g23592"
           transform="matrix(1.4820503,0,0,1.4820503,-36.329668,-36.615265)"><path
             style="fill:#000000;stroke-width:0.0150613"
             d="m 73.416576,80.630898 c 0,-0.009 0.04771,-0.258048 0.106028,-0.5535 0.05832,-0.295453 0.146121,-0.740514 0.195126,-0.989026 0.049,-0.24851 0.110167,-0.570445 0.135923,-0.71541 0.02575,-0.144964 0.0571,-0.30932 0.06965,-0.365235 l 0.02283,-0.101664 h 4.982426 4.982426 l 0.0068,0.04895 c 0.0038,0.02692 0.01779,0.10317 0.0312,0.169439 0.01341,0.06627 0.04537,0.235709 0.07103,0.376533 0.08352,0.458462 0.293697,1.541733 0.368193,1.897719 0.0208,0.0994 0.03789,0.195985 0.03798,0.214623 l 1.59e-4,0.03389 H 78.92147 c -3.941993,0 -5.504894,-0.0046 -5.504894,-0.01631 z m 10.889299,-0.106231 c 0,-0.0094 -0.05108,-0.278824 -0.113517,-0.598685 -0.140243,-0.718503 -0.226379,-1.168639 -0.248181,-1.296979 -0.02255,-0.13272 -0.105084,-0.558428 -0.114615,-0.591153 -0.0062,-0.02128 -0.0249,-0.02636 -0.09703,-0.02636 -0.04914,0 -0.08935,0.0066 -0.08935,0.01475 0,0.0314 0.170222,0.742956 0.424617,1.774959 0.05785,0.234668 0.101752,0.430091 0.09757,0.434274 -0.0076,0.0076 -10.495246,0.0076 -10.502833,1.5e-5 -0.0022,-0.0022 0.0026,-0.02738 0.0107,-0.05595 0.03923,-0.138638 0.526527,-2.124001 0.526527,-2.145195 0,-0.02014 -0.01501,-0.02358 -0.0866,-0.01984 l -0.0866,0.0045 -0.04201,0.218389 c -0.02311,0.120113 -0.11645,0.60132 -0.207432,1.06935 -0.09098,0.468029 -0.178912,0.922126 -0.195403,1.009105 -0.01648,0.08698 -0.03341,0.173393 -0.0376,0.192031 l -0.0076,0.03389 h 5.384693 c 4.011081,0 5.384692,-0.0044 5.384692,-0.01712 z M 84.040429,80.1276 c -0.001,-0.0083 -0.0436,-0.187888 -0.0946,-0.399123 -0.179081,-0.74173 -0.35205,-1.454678 -0.383671,-1.581434 l -0.03194,-0.128019 h -4.608187 -4.608185 l -0.01172,0.04518 c -0.04176,0.161109 -0.509046,2.066868 -0.509022,2.075989 3e-6,0.0013 2.306072,0.0025 5.124597,0.0025 3.407603,0 5.123964,-0.005 5.122718,-0.01506 z"
             id="path23220" /><path
             id="rect23506"
             style="fill:#fff9f9;fill-opacity:1;stroke:#000000;stroke-width:0.0887186;stroke-opacity:1"
             d="m 73.990441,77.968056 h 9.843597 l 0.532311,2.573343 H 73.45813 Z"
             sodipodi:nodetypes="ccccc" /><path
             style="fill:#000000;stroke-width:0.0150613"
             d="m 81.709596,79.468749 c -0.02196,-0.142894 -0.05643,-0.375025 -0.07658,-0.515849 -0.03297,-0.230344 -0.07182,-0.488729 -0.110574,-0.735508 -0.0098,-0.06217 -0.0089,-0.08975 0.003,-0.09427 0.0092,-0.0035 0.432887,-0.0046 0.941506,-0.0025 l 0.924761,0.0039 0.04177,0.210857 c 0.02297,0.115972 0.09297,0.443569 0.155537,0.727992 0.06257,0.284424 0.118185,0.550444 0.123585,0.591154 l 0.0098,0.07402 h -0.986419 -0.986419 z m 1.006682,0.0979 c -0.02026,-0.120078 0.02407,-0.109193 -0.44469,-0.109193 h -0.420701 v 0.05901 c 0,0.113831 -0.03002,0.10666 0.446602,0.10666 h 0.428317 z m 0.453667,0.0113 c -0.03002,-0.155408 -0.018,-0.140448 -0.104476,-0.130058 -0.0426,0.0051 -0.110105,0.0094 -0.150011,0.0094 -0.06178,1.14e-4 -0.07148,0.004 -0.06533,0.02649 0.004,0.0145 0.01152,0.05177 0.01677,0.08284 l 0.0095,0.05648 h 0.151126 0.151128 z m 0.42805,0.03215 c 0,-0.01531 -0.07003,-0.330297 -0.0917,-0.412444 l -0.0149,-0.05648 h -0.12744 c -0.0977,0 -0.127441,0.0048 -0.127441,0.02058 0,0.0255 0.07288,0.41667 0.08246,0.442554 0.0081,0.02185 0.279011,0.02747 0.279011,0.0058 z m -1.385803,-0.314545 c -9.1e-5,-0.02278 -0.0044,-0.06683 -0.0095,-0.0979 l -0.0093,-0.05648 h -0.193825 c -0.217902,0 -0.202912,-0.01024 -0.184248,0.125919 l 0.0096,0.06988 h 0.193749 0.19375 l -1.66e-4,-0.04142 z m 0.451837,0 c -9e-5,-0.02278 -0.0044,-0.06683 -0.0095,-0.0979 l -0.0093,-0.05648 h -0.148642 c -0.166453,0 -0.159386,-0.0064 -0.132333,0.119749 l 0.01631,0.07605 h 0.141834 0.141835 l -1.66e-4,-0.04142 z m 0.443913,-0.02259 c -0.02248,-0.133936 -0.01963,-0.131787 -0.174343,-0.131787 H 82.7956 l 0.01,0.08488 c 0.0055,0.04668 0.0136,0.09074 0.01802,0.0979 0.0044,0.0072 0.07263,0.01303 0.151566,0.01303 h 0.143516 z m 0.353941,-0.27221 c -3.35e-4,-0.0097 -0.02294,-0.119383 -0.05029,-0.243639 l -0.04973,-0.22592 -0.130444,-0.0043 c -0.113506,-0.0038 -0.130446,-10e-4 -0.130446,0.02078 0,0.02384 0.06188,0.315048 0.09092,0.427881 l 0.01356,0.05272 0.128491,-0.0049 c 0.08613,-0.0033 0.128308,-0.01071 0.127932,-0.02259 z m -1.302009,-0.06667 c -0.0059,-0.04763 -0.01388,-0.09169 -0.01769,-0.0979 -0.0075,-0.01234 -0.371974,-0.01596 -0.384114,-0.0038 -0.0041,0.0041 -8.38e-4,0.04816 0.0071,0.0979 l 0.01457,0.09043 h 0.195455 0.195455 z m 0.438757,0.04518 c -0.0042,-0.02278 -0.01187,-0.06683 -0.01694,-0.0979 l -0.0092,-0.05648 h -0.136915 -0.136917 l 0.0096,0.06988 c 0.0053,0.03843 0.0096,0.08249 0.0096,0.0979 0,0.02537 0.01365,0.02802 0.144279,0.02802 h 0.144279 z m 0.441931,0 c -9e-5,-0.02278 -0.0044,-0.06683 -0.0095,-0.0979 l -0.0093,-0.05648 H 82.87206 c -0.135418,0 -0.148925,0.0025 -0.141969,0.02636 0.0042,0.0145 0.01224,0.05855 0.01779,0.0979 l 0.01009,0.07154 h 0.141372 0.141372 l -1.66e-4,-0.04142 z m -0.937929,-0.342257 c -0.0047,-0.04535 -0.01281,-0.0894 -0.01806,-0.0979 -0.0057,-0.0092 -0.08274,-0.01544 -0.189394,-0.01544 h -0.179845 v 0.07982 c 0,0.0439 0.0081,0.08796 0.01807,0.0979 0.01204,0.01204 0.07812,0.01807 0.197902,0.01807 h 0.179831 z m 0.433772,-0.0042 c -0.0059,-0.04763 -0.01388,-0.09168 -0.01769,-0.0979 -0.0038,-0.0062 -0.06751,-0.0113 -0.141576,-0.0113 -0.114567,0 -0.134662,0.0037 -0.134662,0.02461 0,0.04033 0.03497,0.147743 0.05198,0.15966 0.0087,0.0061 0.0691,0.01117 0.134255,0.0113 l 0.118461,1.68e-4 -0.01078,-0.0866 z m 0.438436,0.02724 c -0.0216,-0.135046 -0.02332,-0.136436 -0.168925,-0.136436 h -0.130129 l 0.0108,0.0866 c 0.0059,0.04763 0.01858,0.09158 0.02809,0.09767 0.0095,0.0061 0.07408,0.01117 0.14348,0.0113 l 0.12618,1.68e-4 -0.0095,-0.05936 z m -0.91849,-0.313404 c -0.0051,-0.03107 -0.0094,-0.07173 -0.0095,-0.09037 -1.66e-4,-0.03333 -0.0033,-0.03389 -0.188431,-0.03389 h -0.188266 v 0.0433 c 0,0.02381 0.0042,0.06448 0.0094,0.09037 l 0.0094,0.04707 h 0.188352 0.188355 z m 0.410547,0 c -8.38e-4,-0.03107 -0.0062,-0.07331 -0.01192,-0.09389 -0.01013,-0.03639 -0.01366,-0.03727 -0.130285,-0.03248 -0.06593,0.0027 -0.122123,0.0071 -0.124878,0.0098 -0.0027,0.0027 -3.35e-4,0.0427 0.0055,0.08896 l 0.01051,0.0841 h 0.126286 0.126284 l -0.0015,-0.05648 z m 0.44802,0.01506 c -0.0042,-0.02278 -0.01197,-0.0674 -0.01718,-0.09916 -0.0071,-0.04345 -0.01514,-0.05556 -0.03237,-0.04895 -0.01259,0.0048 -0.07406,0.0088 -0.136572,0.0088 h -0.113668 l 0.01038,0.07821 c 0.0057,0.04301 0.01376,0.08368 0.01789,0.09037 0.0041,0.0067 0.06865,0.01216 0.143375,0.01216 h 0.13586 z m 0.405241,0 c -0.0055,-0.02278 -0.01689,-0.06769 -0.02532,-0.0998 l -0.01532,-0.05838 -0.06879,0.0094 c -0.03783,0.0052 -0.0904,0.0094 -0.116813,0.0094 h -0.04803 l 0.01455,0.09037 0.01455,0.09037 h 0.127575 0.127577 z"
             id="path23228" /><path
             style="fill:#000000;stroke-width:0.0150613"
             d="m 74.034087,80.028613 c 0,-0.04009 0.146569,-0.688269 0.324998,-1.437262 0.05328,-0.223659 0.100358,-0.421904 0.104613,-0.440542 l 0.0077,-0.03389 h 3.260478 3.260479 v 0.195795 0.195796 l -0.161908,1.14e-4 c -0.08905,5.7e-5 -0.207954,0.0045 -0.264233,0.0098 l -0.102325,0.0097 0.0044,0.09189 0.0044,0.09189 0.143082,0.0075 c 0.101588,0.0053 0.142646,0.01299 0.141576,0.02636 -8.38e-4,0.01036 -0.0025,0.09983 -0.0038,0.198843 l -0.0023,0.180017 -0.09413,0.0045 -0.09413,0.0045 -0.0021,0.150613 -0.0021,0.150611 -0.208707,0.0095 c -0.114789,0.0052 -0.213791,0.01028 -0.220003,0.0113 -0.0062,0.001 -0.0113,0.03805 -0.0113,0.08231 v 0.08047 l 0.250916,0.0099 c 0.138005,0.0054 0.466717,0.0099 0.730472,0.0099 h 0.479555 v 0.203327 0.203327 h -3.772867 c -2.67477,0 -3.772847,-0.0047 -3.772847,-0.01614 z m 1.081335,-0.190943 -0.0045,-0.101662 h -0.44317 -0.443168 l -0.01933,0.08284 c -0.01063,0.04556 -0.01961,0.09131 -0.01996,0.101664 -5.03e-4,0.01467 0.10258,0.01883 0.466949,0.01883 h 0.467589 z m 5.045525,0 -0.0045,-0.101662 -2.434873,-0.0038 -2.434874,-0.0038 -0.0051,0.09926 c -0.0028,0.05459 -0.0022,0.102054 0.0012,0.105475 0.0035,0.0034 1.103422,0.0062 2.44438,0.0062 h 2.438104 l -0.0045,-0.101664 z m 0.602451,0 -0.0044,-0.101662 H 80.54061 80.322221 l -0.0044,0.101662 -0.0045,0.101664 h 0.227297 0.227294 z m 0.677757,0 -0.0045,-0.101662 -0.252275,-0.0041 -0.252277,-0.0041 v 0.105792 0.105793 h 0.25673 0.25673 z m -6.325669,-0.301224 -0.0045,-0.0866 -0.409761,-0.004 c -0.460433,-0.0045 -0.427428,-0.01284 -0.448307,0.1132 l -0.0106,0.06401 h 0.438853 0.438853 z m 0.756076,0.006 v -0.0806 l -0.124256,-0.0097 c -0.06834,-0.0053 -0.200502,-0.0097 -0.293693,-0.0098 l -0.169439,-1.14e-4 v 0.09037 0.09037 h 0.293695 0.293693 z m 0.81025,-0.0037 0.0045,-0.07674 -0.161193,-0.0099 c -0.202253,-0.01237 -0.447758,-0.01274 -0.479092,-6.71e-4 -0.01707,0.0066 -0.02382,0.02931 -0.02382,0.08033 0,0.03915 0.0046,0.07583 0.01033,0.08152 0.0057,0.0057 0.153096,0.0085 0.327584,0.0063 l 0.31725,-0.0041 z m 0.76817,-0.0023 -0.0045,-0.0866 h -0.301224 -0.301227 l -0.0045,0.0866 -0.0045,0.0866 h 0.310259 0.31026 z m 0.409668,-0.0038 v -0.09037 l -0.06401,1.68e-4 c -0.03521,1.14e-4 -0.08943,0.0044 -0.120491,0.0095 l -0.05648,0.0093 v 0.08087 0.08087 h 0.12049 0.12049 v -0.09037 z m 0.602451,-3.36e-4 v -0.09078 l -0.214623,0.0042 -0.214623,0.0042 -0.0045,0.0866 -0.0045,0.0866 h 0.219139 0.21914 z m 0.562837,0.05689 c 0.02023,-0.07549 0.01093,-0.127889 -0.0244,-0.137355 -0.05223,-0.014 -0.369966,-0.01115 -0.378955,0.0034 -0.0044,0.0071 -0.0038,0.04775 0.0012,0.09037 l 0.0092,0.07748 h 0.191942 c 0.186319,0 0.192207,-0.001 0.201023,-0.03389 z m 0.943291,-0.04732 c 0,-0.07226 -0.0037,-0.08191 -0.03389,-0.08765 -0.02803,-0.0053 -0.43582,-0.0044 -0.685287,0.0017 l -0.06401,0.0015 v 0.08284 0.08284 h 0.391593 0.391594 z m -4.864791,-0.302858 v -0.0979 h -0.375824 -0.375825 l -0.01568,0.05648 c -0.0086,0.03106 -0.01573,0.07512 -0.01578,0.0979 l -5.7e-5,0.04142 h 0.391594 0.391593 z m 0.58739,0 v -0.0979 H 75.47997 75.269111 v 0.08786 c 0,0.04832 0.0045,0.09238 0.01004,0.0979 0.0055,0.0055 0.10041,0.01004 0.210859,0.01004 h 0.200816 z m 0.674711,-0.0038 0.0045,-0.09413 h -0.256762 -0.25676 v 0.09826 0.09826 l 0.252277,-0.0041 0.252277,-0.0041 z m 0.828338,0 c -0.0031,-0.06995 -0.01033,-0.101193 -0.02328,-0.100157 -0.01036,8.38e-4 -0.161155,0.0025 -0.335111,0.0038 l -0.316287,0.0023 v 0.0979 0.0979 h 0.339566 0.339566 z m 0.662727,0 0.0045,-0.09413 h -0.249229 -0.24923 v 0.08786 c 0,0.04832 0.0047,0.09254 0.01041,0.09827 0.0057,0.0057 0.115861,0.0085 0.244746,0.0063 l 0.234338,-0.0041 z m 0.846477,0.0038 v -0.0979 h -0.346408 -0.34641 v 0.08786 c 0,0.04832 0.0045,0.09238 0.01004,0.0979 0.0055,0.0055 0.161407,0.01004 0.34641,0.01004 h 0.336367 z m 0.707881,0 v -0.0979 h -0.271104 -0.271103 v 0.0979 0.0979 h 0.271103 0.271104 z m 0.572327,0 v -0.0979 h -0.203326 -0.203328 v 0.0979 0.0979 h 0.203328 0.203326 z m 0.433746,-0.0043 0.0045,-0.09471 -0.14005,0.0043 -0.140051,0.0043 -0.0047,0.07339 c -0.0074,0.115903 -0.0064,0.116651 0.143737,0.111698 l 0.132032,-0.0044 z m -5.629884,-0.311946 v -0.0979 h -0.178947 -0.178947 l -0.01753,0.07154 c -0.0096,0.03935 -0.02107,0.0834 -0.0254,0.0979 -0.0072,0.02419 0.0089,0.02636 0.196478,0.02636 h 0.204342 z m 0.617513,0 v -0.0979 h -0.22592 -0.225919 v 0.0979 0.0979 h 0.225919 0.22592 z m 0.674709,0.0038 -0.0045,-0.09413 h -0.256041 -0.256043 l -0.0045,0.09413 -0.0045,0.09413 h 0.26501 0.265009 z m 0.786233,-0.0041 v -0.0982 l -0.312521,0.0041 -0.312521,0.0041 -0.0045,0.09413 -0.0045,0.09413 h 0.317006 0.317005 z m 0.632574,-5.7e-5 v -0.09828 l -0.237215,0.0042 -0.237214,0.0042 -0.0047,0.07339 c -0.0076,0.119425 -0.01731,0.114872 0.245173,0.114872 h 0.233922 v -0.09828 z m 0.632574,3.36e-4 v -0.0979 h -0.23094 c -0.127017,0 -0.233764,0.0028 -0.237214,0.0062 -0.0035,0.0034 -0.004,0.04748 -0.0012,0.0979 l 0.0051,0.09167 h 0.232111 0.232111 v -0.09794 z m 0.918737,0 v -0.0979 h -0.376533 -0.376531 v 0.0979 0.0979 h 0.376531 0.376533 z m 0.659649,0.0038 -0.0045,-0.09413 -0.252276,-0.0041 -0.252277,-0.0041 v 0.09826 0.09826 h 0.25676 0.256761 z m 0.906723,-0.0038 v -0.0979 h -0.376531 -0.376533 v 0.0979 0.0979 h 0.376533 0.376531 z m -5.828712,-0.301226 v -0.0979 h -0.147374 -0.147374 l -0.0163,0.0866 c -0.009,0.04763 -0.01341,0.09168 -0.0099,0.0979 0.0035,0.0062 0.07717,0.0113 0.163665,0.0113 h 0.157254 z m 0.644588,-0.0038 0.0045,-0.09413 h -0.241698 -0.241699 v 0.09828 0.09828 l 0.237215,-0.0042 0.237214,-0.0041 z m 0.63562,0.0038 v -0.0979 h -0.24098 -0.240981 v 0.0979 0.0979 h 0.240981 0.24098 z m 0.493976,-0.0038 0.0045,-0.09413 h -0.156352 c -0.08599,0 -0.159176,0.0028 -0.162628,0.0062 -0.0035,0.0034 -0.004,0.04771 -0.0012,0.09841 l 0.0051,0.09218 0.153016,-0.0043 0.153012,-0.0043 z m 0.783186,0 0.0045,-0.09413 h -0.309475 -0.309475 v 0.08995 0.08995 l 0.214623,0.0049 c 0.118044,0.0027 0.25529,0.0046 0.304992,0.0042 l 0.09037,-8.38e-4 0.0045,-0.09413 z m 0.620559,0.0038 v -0.0979 H 77.731629 77.49818 v 0.08976 0.08976 l 0.124256,0.0051 c 0.06834,0.0028 0.173392,0.0065 0.233449,0.0081 l 0.109195,0.0031 z m 0.66525,0.07922 c 0.0066,-0.01043 0.01215,-0.05472 0.01227,-0.0984 l 1.68e-4,-0.07943 -0.258061,0.0041 -0.258063,0.0041 0.001,0.07907 c 5.03e-4,0.04349 0.0015,0.08415 0.0021,0.09037 6.71e-4,0.0062 0.110756,0.01306 0.24477,0.01521 0.183031,0.0029 0.24666,-8.38e-4 0.255707,-0.01505 z m 0.898075,-0.08298 0.0045,-0.09413 h -0.369721 -0.369719 v 0.08786 c 0,0.04832 0.0029,0.09068 0.0064,0.09413 0.0035,0.0035 0.16788,0.0063 0.365236,0.0063 h 0.358828 z m 0.783185,0 0.0045,-0.09413 h -0.317005 -0.317006 v 0.09002 0.09002 l 0.267338,0.0048 c 0.147035,0.0026 0.287671,0.0045 0.312521,0.0041 0.04482,-6.71e-4 0.04522,-0.0015 0.04967,-0.09483 z m -5.343703,-0.305427 v -0.09081 l -0.198499,0.0042 c -0.222222,0.0047 -0.201224,-0.0071 -0.227897,0.128459 l -0.0096,0.04895 h 0.218011 0.218013 z m 0.722941,5.03e-4 v -0.09037 h -0.276123 c -0.151869,0 -0.278948,0.0028 -0.2824,0.0062 -0.0035,0.0034 -0.004,0.0441 -0.0012,0.09037 l 0.0052,0.08412 h 0.27724 0.277239 v -0.09037 z m 0.70788,0 v -0.09037 h -0.271103 -0.271103 v 0.09037 0.09037 h 0.271103 0.271103 z m 0.572328,0 v -0.09037 h -0.203328 -0.203326 v 0.09037 0.09037 h 0.203326 0.203328 z m 0.647634,0 v -0.09037 h -0.24098 -0.24098 v 0.09037 0.09037 h 0.24098 0.24098 z m 0.738003,0 v -0.09037 h -0.286165 -0.286164 v 0.09037 0.09037 h 0.286164 0.286165 z m 0.903675,0 v -0.09037 h -0.376531 -0.376532 v 0.08033 c 0,0.04418 0.0045,0.08485 0.01004,0.09037 0.0055,0.0055 0.174962,0.01004 0.376533,0.01004 l 0.36649,2e-6 v -0.09037 z m 0.623432,0.06654 c 0.005,-0.01311 0.0091,-0.05377 0.0091,-0.09037 v -0.06654 h -0.231509 -0.23151 l -0.01006,0.0758 c -0.0055,0.04169 -0.006,0.08235 -0.001,0.09037 0.0051,0.0083 0.104764,0.01457 0.232423,0.01457 0.189835,0 0.224793,-0.0036 0.232561,-0.02382 z m 0.97005,-0.07031 0.0045,-0.0866 h -0.407406 -0.407405 v 0.09061 0.09061 l 0.402888,-0.004 0.402888,-0.004 z"
             id="path23226" /></g><g
           id="g23611"
           transform="matrix(1.1349569,0,0,1.1349569,-8.9356567,-9.2946717)"><path
             id="rect23503"
             style="fill:#ffffff;stroke:none;stroke-width:0.0887186"
             d="m 76.979065,76.690408 h 3.929447 l 0.443592,1.004215 h -4.816631 z"
             sodipodi:nodetypes="ccccc" /><path
             style="fill:#000000;stroke-width:0.0150613"
             d="m 76.494045,77.740461 -0.07787,-0.0075 0.05164,-0.08749 c 0.0284,-0.04812 0.09128,-0.15995 0.13973,-0.248512 0.04845,-0.08856 0.150479,-0.272422 0.22673,-0.408577 0.07625,-0.136156 0.13991,-0.252922 0.141466,-0.259481 0.0015,-0.0066 -0.498713,-0.01376 -1.111706,-0.01601 l -1.114535,-0.0041 -0.06314,-0.03375 c -0.07513,-0.04016 -0.130847,-0.109481 -0.154448,-0.19217 -0.01272,-0.04458 -0.01604,-0.984375 -0.01276,-3.614706 l 0.0044,-3.554459 0.03242,-0.06025 c 0.04326,-0.08039 0.09053,-0.122254 0.169461,-0.150103 0.05824,-0.02055 0.523245,-0.02307 4.209198,-0.02277 4.001183,3.36e-4 4.145794,0.0013 4.203966,0.02822 0.07382,0.03418 0.133857,0.09627 0.164876,0.170524 0.02093,0.0501 0.02336,0.430971 0.02306,3.614705 -3.35e-4,3.545445 -5.03e-4,3.55896 -0.03095,3.626214 -0.03863,0.08516 -0.06648,0.115819 -0.141924,0.156251 -0.06003,0.03217 -0.06422,0.03228 -1.171013,0.03228 -0.676573,0 -1.110767,0.0055 -1.110768,0.01403 0,0.0077 0.05556,0.112775 0.123472,0.233451 0.06791,0.120674 0.171269,0.3053 0.229684,0.410277 0.05842,0.104977 0.126526,0.226972 0.151354,0.271101 0.02483,0.04413 0.04702,0.08701 0.04932,0.0953 0.0043,0.01544 -4.774412,0.02274 -4.931698,0.0075 z m 4.754392,-0.109197 c 0,-0.01036 -0.03622,-0.08321 -0.08048,-0.161908 -0.04427,-0.0787 -0.126697,-0.225037 -0.183181,-0.325209 l -0.102698,-0.18213 -0.438097,-0.0099 c -0.240953,-0.0054 -1.117842,-0.0099 -1.948642,-0.0099 l -1.510542,-2.7e-5 -0.05276,0.0866 c -0.09687,0.159019 -0.337536,0.591417 -0.337536,0.606446 0,0.0097 0.809606,0.01484 2.326967,0.01484 1.851659,0 2.326967,-0.0039 2.326967,-0.01883 z m -0.451838,-0.79508 c 0,-0.0086 -0.01403,-0.04317 -0.03118,-0.07679 -0.02561,-0.0502 -0.03705,-0.05955 -0.06401,-0.05232 -0.01805,0.0048 -0.83641,0.0089 -1.818563,0.009 l -1.785736,1.68e-4 -0.02875,0.05648 c -0.01581,0.03106 -0.03119,0.06156 -0.03417,0.06778 -0.003,0.0062 0.842348,0.0113 1.878501,0.0113 1.294019,0 1.883914,-0.0049 1.883914,-0.01566 z m -5.892871,-3.941688 0.0036,-3.708837 h -0.06838 c -0.08426,0 -0.144051,0.02956 -0.189947,0.09391 l -0.03508,0.04918 v 3.56199 c 0,3.55453 5.7e-5,3.562102 0.03063,3.614706 0.03882,0.06681 0.116534,0.107403 0.195286,0.102018 l 0.06024,-0.0041 z m 7.941203,3.22058 c 0,-0.272685 0.0041,-0.506511 0.0091,-0.519615 0.0083,-0.02169 -0.34363,-0.02382 -3.923462,-0.02382 h -3.932602 v 0.519615 0.519614 h 3.923461 3.92346 z m 0.262912,0.465988 c 0.03386,-0.0164 0.07497,-0.05197 0.09136,-0.07907 0.02943,-0.04866 0.02985,-0.09265 0.03391,-3.581137 0.0038,-3.218682 0.002,-3.537568 -0.02017,-3.596137 -0.03171,-0.08392 -0.101211,-0.136525 -0.187868,-0.142193 l -0.06718,-0.0044 -0.0038,3.716367 -0.0038,3.716368 h 0.04799 c 0.02639,0 0.07569,-0.01341 0.109552,-0.0298 z m -0.259216,-4.25513 0.0038,-3.140275 H 78.9252 74.997973 v 2.009666 1.120568 c 0,1.721629 0.0045,3.134753 0.01004,3.140275 0.0055,0.0055 1.77105,0.01004 3.923391,0.01004 h 3.913351 z"
             id="path23230" /><rect
             style="fill:#ffffff;fill-opacity:1;stroke:#000000;stroke-width:0.264583;stroke-dasharray:none;stroke-opacity:1"
             id="rect23250"
             width="8.7910795"
             height="7.6973467"
             x="74.516701"
             y="69.0037" /><path
             style="fill:#000000;stroke-width:0.0142342"
             d="m 81.571021,76.075388 c -0.05141,-0.05268 -0.0541,-0.1137 -0.0074,-0.169272 0.02691,-0.03205 0.04555,-0.0401 0.0929,-0.0401 0.115985,0 0.167242,0.125574 0.08546,0.20937 -0.02806,0.02874 -0.05519,0.04211 -0.08546,0.04211 -0.03027,0 -0.0574,-0.01337 -0.08546,-0.04211 z"
             id="path23232" /><path
             style="fill:#000000;stroke-width:0.00948949"
             d="m 77.70019,76.047512 c -0.03428,-0.03512 -0.03607,-0.0758 -0.005,-0.112848 0.01794,-0.02137 0.03037,-0.02673 0.06193,-0.02673 0.07733,0 0.111495,0.08372 0.05697,0.13958 -0.0187,0.01916 -0.03679,0.02808 -0.05697,0.02808 -0.02018,0 -0.03827,-0.0089 -0.05697,-0.02808 z"
             id="path23232-6" /><path
             style="fill:#000000;stroke-width:0.00948949"
             d="m 78.398358,76.047512 c -0.03428,-0.03512 -0.03607,-0.0758 -0.005,-0.112848 0.01794,-0.02137 0.03037,-0.02673 0.06193,-0.02673 0.07733,0 0.111495,0.08372 0.05697,0.13958 -0.0187,0.01916 -0.03679,0.02808 -0.05697,0.02808 -0.02018,0 -0.03827,-0.0089 -0.05697,-0.02808 z"
             id="path23232-6-4" /><path
             style="fill:#000000;stroke-width:0.00948949"
             d="m 78.049274,76.047512 c -0.03428,-0.03512 -0.03606,-0.0758 -0.005,-0.112848 0.01794,-0.02137 0.03037,-0.02673 0.06193,-0.02673 0.07733,0 0.111495,0.08372 0.05697,0.13958 -0.0187,0.01916 -0.03679,0.02808 -0.05697,0.02808 -0.02018,0 -0.03827,-0.0089 -0.05697,-0.02808 z"
             id="path23232-6-8" /><path
             style="fill:#000000;stroke-width:0.00948949"
             d="m 79.096526,76.047512 c -0.03428,-0.03512 -0.03606,-0.0758 -0.005,-0.112848 0.01794,-0.02137 0.03037,-0.02673 0.06193,-0.02673 0.07733,0 0.111495,0.08372 0.05697,0.13958 -0.0187,0.01916 -0.03679,0.02808 -0.05697,0.02808 -0.02018,0 -0.03827,-0.0089 -0.05697,-0.02808 z"
             id="path23232-6-4-0" /><path
             style="fill:#000000;stroke-width:0.00948949"
             d="m 78.747442,76.047512 c -0.03428,-0.03512 -0.03607,-0.0758 -0.005,-0.112848 0.01794,-0.02137 0.03037,-0.02673 0.06193,-0.02673 0.07733,0 0.111495,0.08372 0.05697,0.13958 -0.0187,0.01916 -0.03679,0.02808 -0.05697,0.02808 -0.02018,0 -0.03827,-0.0089 -0.05697,-0.02808 z"
             id="path23232-6-6" /><path
             style="fill:#000000;stroke-width:0.00948949"
             d="m 79.794692,76.047512 c -0.03428,-0.03512 -0.03606,-0.0758 -0.005,-0.112848 0.01794,-0.02137 0.03037,-0.02673 0.06193,-0.02673 0.07733,0 0.111495,0.08372 0.05697,0.13958 -0.0187,0.01916 -0.03679,0.02808 -0.05697,0.02808 -0.02018,0 -0.03827,-0.0089 -0.05697,-0.02808 z"
             id="path23232-6-4-4" /><path
             style="fill:#000000;stroke-width:0.00948949"
             d="m 79.44561,76.047512 c -0.03428,-0.03512 -0.03607,-0.0758 -0.005,-0.112848 0.01794,-0.02137 0.03037,-0.02673 0.06193,-0.02673 0.07733,0 0.111496,0.08372 0.05697,0.13958 -0.0187,0.01916 -0.03679,0.02808 -0.05697,0.02808 -0.02018,0 -0.03827,-0.0089 -0.05697,-0.02808 z"
             id="path23232-6-8-2" /><path
             style="fill:#000000;stroke-width:0.00948949"
             d="m 80.143776,76.047512 c -0.03428,-0.03512 -0.03607,-0.0758 -0.005,-0.112848 0.01794,-0.02137 0.03037,-0.02673 0.06193,-0.02673 0.07733,0 0.111495,0.08372 0.05697,0.13958 -0.0187,0.01916 -0.03679,0.02808 -0.05697,0.02808 -0.02018,0 -0.03827,-0.0089 -0.05697,-0.02808 z"
             id="path23232-6-4-0-3" /><path
             style="fill:#000000;stroke-width:0.00948949"
             d="m 76.303856,76.047512 c -0.03428,-0.03512 -0.03606,-0.0758 -0.005,-0.112848 0.01794,-0.02137 0.03037,-0.02673 0.06193,-0.02673 0.07733,0 0.111495,0.08372 0.05697,0.13958 -0.0187,0.01916 -0.03679,0.02808 -0.05697,0.02808 -0.02018,0 -0.03827,-0.0089 -0.05697,-0.02808 z"
             id="path23232-6-6-5" /><path
             style="fill:#000000;stroke-width:0.00948949"
             d="m 77.002024,76.047512 c -0.03428,-0.03512 -0.03607,-0.0758 -0.005,-0.112848 0.01794,-0.02137 0.03037,-0.02673 0.06193,-0.02673 0.07733,0 0.111495,0.08372 0.05697,0.13958 -0.0187,0.01916 -0.03679,0.02808 -0.05697,0.02808 -0.02018,0 -0.03827,-0.0089 -0.05697,-0.02808 z"
             id="path23232-6-4-4-6" /><path
             style="fill:#000000;stroke-width:0.00948949"
             d="m 76.65294,76.047512 c -0.03428,-0.03512 -0.03607,-0.0758 -0.005,-0.112848 0.01794,-0.02137 0.03037,-0.02673 0.06193,-0.02673 0.07733,0 0.111495,0.08372 0.05697,0.13958 -0.0187,0.01916 -0.03679,0.02808 -0.05697,0.02808 -0.02018,0 -0.03827,-0.0089 -0.05697,-0.02808 z"
             id="path23232-6-8-2-9" /><path
             style="fill:#000000;stroke-width:0.00948949"
             d="m 77.351108,76.047512 c -0.03428,-0.03512 -0.03606,-0.0758 -0.005,-0.112848 0.01794,-0.02137 0.03037,-0.02673 0.06193,-0.02673 0.07733,0 0.111495,0.08372 0.05697,0.13958 -0.0187,0.01916 -0.03679,0.02808 -0.05697,0.02808 -0.02018,0 -0.03827,-0.0089 -0.05697,-0.02808 z"
             id="path23232-6-4-0-3-3" /><rect
             style="fill:#ffffff;fill-opacity:1;stroke:#000000;stroke-width:0.264583;stroke-dasharray:none;stroke-opacity:1"
             id="rect23248"
             width="6.8688726"
             height="5.2534585"
             x="75.477798"
             y="70.036346" /></g></g></g></g></svg>
